<svg width="413" height="410" viewBox="0 0 413 410" fill="none" xmlns="http://www.w3.org/2000/svg">
<path d="M153.896 172.239L33.176 240.511L0 222.424L120.719 154.152L153.896 172.239Z" fill="url(#paint0_linear_64_6)"/>
<path d="M71.166 176.375V219.769" stroke="#0084DA" stroke-width="3" stroke-miterlimit="10" stroke-linecap="round" stroke-linejoin="round"/>
<path d="M37.989 158.288V201.682" stroke="#0084DA" stroke-width="3" stroke-miterlimit="10" stroke-linecap="round" stroke-linejoin="round"/>
<path d="M153.938 130.063V173.457" stroke="#0084DA" stroke-width="3" stroke-miterlimit="10" stroke-linecap="round" stroke-linejoin="round"/>
<path d="M120.761 111.975V155.37" stroke="#0084DA" stroke-width="3" stroke-miterlimit="10" stroke-linecap="round" stroke-linejoin="round"/>
<path d="M31.05 172.502L71.583 195.569L160.4 144.354V141.354L119.933 121.702L31.05 169.502V172.502Z" fill="#0084DA"/>
<path d="M31.05 169.502L71.583 192.569L160.4 141.354L119.933 118.702L31.05 169.502Z" fill="#B9EAF0"/>
<path d="M106.122 129.787L88.02 139.598L81.801 136.143L99.469 126.238L106.122 129.787Z" fill="#0084DA"/>
<path d="M88.02 139.598V153.206L81.801 149.577V136.143L88.02 139.598Z" fill="#0084DA"/>
<path d="M81.801 139.271V145.144L88.02 148.598V142.726L81.801 139.271Z" fill="#BBB8CE"/>
<path d="M106.122 129.787L88.02 139.598V153.206L106.122 142.924V129.787Z" fill="#B9EAF0"/>
<path d="M88.02 142.729V148.587L106.122 138.776V132.918L88.02 142.729Z" fill="#EBEAF0"/>
<path d="M116.394 135.462L98.292 145.273L92.074 141.819L109.742 131.914L116.394 135.462Z" fill="#0084DA"/>
<path d="M98.292 145.273V158.881L92.074 155.252V141.819L98.292 145.273Z" fill="#0084DA"/>
<path d="M92.074 144.946V150.819L98.292 154.273V148.401L92.074 144.946Z" fill="#BBB8CE"/>
<path d="M116.394 135.462L98.292 145.273V158.881L116.394 148.599V135.462Z" fill="#B9EAF0"/>
<path d="M98.292 148.405V154.262L116.395 144.451V138.593L98.292 148.405Z" fill="#EBEAF0"/>
<path d="M126.667 141.137L108.565 150.948L102.347 147.494L120.015 137.589L126.667 141.137Z" fill="#0084DA"/>
<path d="M108.565 150.948V164.556L102.347 160.927V147.494L108.565 150.948Z" fill="#0084DA"/>
<path d="M102.347 150.622V156.494L108.565 159.949V154.076L102.347 150.622Z" fill="#BBB8CE"/>
<path d="M126.667 141.137L108.565 150.948V164.556L126.667 154.274V141.137Z" fill="#B9EAF0"/>
<path d="M108.565 154.08V159.937L126.667 150.126V144.269L108.565 154.08Z" fill="#EBEAF0"/>
<path opacity="0.47" d="M123.39 134.998C121.459 136.113 118.328 136.113 116.397 134.998C114.466 133.883 114.466 132.075 116.397 130.96C118.328 129.845 121.459 129.845 123.39 130.96C125.321 132.075 125.321 133.883 123.39 134.998Z" fill="#FFAD10"/>
<path opacity="0.64" d="M116.397 120.189C118.328 119.074 121.459 119.074 123.39 120.189C124.356 120.747 124.838 121.477 124.838 122.208V132.979C124.838 133.71 124.355 134.44 123.39 134.998C121.459 136.113 118.328 136.113 116.397 134.998C115.431 134.44 114.949 133.71 114.949 132.979V122.209C114.949 121.478 115.431 120.747 116.397 120.189Z" fill="#FFCC85"/>
<path d="M116.397 132.143C118.328 133.258 121.459 133.258 123.39 132.143C124.356 131.586 124.838 130.855 124.838 130.124V123.386C124.833 123.386 124.829 123.387 124.824 123.387C124.764 124.067 124.29 124.737 123.39 125.257C121.459 126.372 118.328 126.372 116.397 125.257C115.5 124.739 115.025 124.071 114.961 123.393H114.948V130.124C114.949 130.855 115.432 131.585 116.397 132.143Z" fill="#FF5746"/>
<path d="M123.39 120.705C121.459 121.82 118.328 121.82 116.397 120.705C114.466 119.59 114.466 117.782 116.397 116.667C118.328 115.552 121.459 115.552 123.39 116.667C125.321 117.783 125.321 119.591 123.39 120.705Z" fill="#380200"/>
<path d="M124.839 116.003H114.949V118.687H124.839V116.003Z" fill="#380200"/>
<path d="M123.39 118.021C121.459 119.136 118.328 119.136 116.397 118.021C114.466 116.906 114.466 115.098 116.397 113.984C118.328 112.869 121.459 112.869 123.39 113.984C125.321 115.099 125.321 116.907 123.39 118.021Z" fill="#736374"/>
<path opacity="0.36" d="M121.747 116.902C120.724 117.493 119.064 117.493 118.041 116.902C117.018 116.311 117.018 115.353 118.041 114.762C119.064 114.171 120.724 114.171 121.747 114.762C122.77 115.353 122.77 116.311 121.747 116.902Z" fill="#FFCC85"/>
<path d="M139.132 143.141C136.551 144.631 132.367 144.631 129.787 143.141C127.206 141.651 127.206 139.235 129.787 137.745C132.368 136.255 136.552 136.255 139.132 137.745C141.713 139.235 141.713 141.651 139.132 143.141Z" fill="#FFAD10"/>
<path opacity="0.64" d="M129.481 123.121C130.249 121.997 131.71 120.656 134.459 120.656C137.208 120.656 138.665 122 139.437 123.121C139.853 123.726 141.067 125.135 141.067 126.05V140.443C141.067 141.42 140.422 142.396 139.131 143.141C136.55 144.631 132.366 144.631 129.786 143.141C128.496 142.396 127.85 141.419 127.85 140.443V126.05C127.851 125.135 129.116 123.656 129.481 123.121Z" fill="#FFCC85"/>
<path d="M129.787 139.326C132.368 140.816 136.552 140.816 139.132 139.326C140.422 138.581 141.068 137.605 141.068 136.628V127.624C141.061 127.625 141.055 127.625 141.049 127.626C140.969 128.535 140.336 129.431 139.133 130.125C136.552 131.615 132.368 131.615 129.788 130.125C128.589 129.433 127.954 128.54 127.87 127.634H127.853V136.629C127.852 137.605 128.497 138.581 129.787 139.326Z" fill="#BBB8CE"/>
<path d="M137.675 122.642C135.899 123.667 133.02 123.667 131.244 122.642C129.468 121.617 129.468 119.954 131.244 118.929C133.02 117.904 135.899 117.904 137.675 118.929C139.451 119.954 139.451 121.616 137.675 122.642Z" fill="#380200"/>
<path d="M139.007 118.317H129.912V120.785H139.007V118.317Z" fill="#380200"/>
<path d="M137.675 120.173C135.899 121.198 133.02 121.198 131.244 120.173C129.468 119.148 129.468 117.485 131.244 116.46C133.02 115.435 135.899 115.435 137.675 116.46C139.451 117.485 139.451 119.148 137.675 120.173Z" fill="#736374"/>
<path opacity="0.36" d="M136.164 119.143C135.223 119.686 133.697 119.686 132.756 119.143C131.815 118.6 131.815 117.719 132.756 117.175C133.697 116.632 135.223 116.632 136.164 117.175C137.105 117.719 137.105 118.6 136.164 119.143Z" fill="#FFCC85"/>
<path d="M80.5691 163.894C77.9881 165.384 73.8041 165.384 71.2241 163.894C68.6431 162.404 68.6431 159.988 71.2241 158.498C73.8051 157.008 77.9891 157.008 80.5691 158.498C83.1501 159.988 83.1501 162.404 80.5691 163.894Z" fill="#B9EAF0"/>
<path opacity="0.47" d="M82.5051 146.802H69.2891V161.195C69.2891 162.172 69.9341 163.148 71.2241 163.893C73.8051 165.383 77.9891 165.383 80.5691 163.893C81.8591 163.148 82.5051 162.172 82.5051 161.195V146.802Z" fill="white"/>
<path d="M71.224 160.078C73.805 161.568 77.989 161.568 80.569 160.078C81.859 159.333 82.505 158.357 82.505 157.38V148.376C82.498 148.377 82.492 148.378 82.486 148.378C82.406 149.287 81.773 150.183 80.57 150.877C77.989 152.367 73.805 152.367 71.225 150.877C70.026 150.185 69.391 149.292 69.307 148.386H69.29V157.381C69.289 158.358 69.934 159.334 71.224 160.078Z" fill="#0084DA"/>
<path d="M80.5691 149.5C77.9881 150.99 73.8041 150.99 71.2241 149.5C68.6431 148.01 68.6431 145.594 71.2241 144.104C73.8051 142.614 77.9891 142.614 80.5691 144.104C83.1501 145.595 83.1501 148.01 80.5691 149.5Z" fill="#0084DA"/>
<path d="M80.5691 144.794C77.9881 146.284 73.8041 146.284 71.2241 144.794C68.6431 143.304 68.6431 140.888 71.2241 139.398C73.8051 137.908 77.9891 137.908 80.5691 139.398C83.1501 140.889 83.1501 143.304 80.5691 144.794Z" fill="#380200"/>
<path d="M82.5041 138.51H69.2881V142.097H82.5041V138.51Z" fill="#380200"/>
<path d="M80.5691 141.208C77.9881 142.698 73.8041 142.698 71.2241 141.208C68.6431 139.718 68.6431 137.302 71.2241 135.812C73.8051 134.322 77.9891 134.322 80.5691 135.812C83.1501 137.302 83.1501 139.718 80.5691 141.208Z" fill="#736374"/>
<path opacity="0.36" d="M78.373 139.711C77.005 140.501 74.788 140.501 73.421 139.711C72.053 138.921 72.053 137.641 73.421 136.852C74.789 136.063 77.006 136.063 78.373 136.852C79.74 137.641 79.74 138.922 78.373 139.711Z" fill="#FFCC85"/>
<path opacity="0.47" d="M95.135 172.318C92.554 173.808 88.37 173.808 85.79 172.318C83.209 170.828 83.209 168.412 85.79 166.922C88.371 165.432 92.555 165.432 95.135 166.922C97.716 168.413 97.716 170.828 95.135 172.318Z" fill="white"/>
<path opacity="0.47" d="M97.071 155.227H83.855V169.62C83.855 170.597 84.5 171.573 85.791 172.318C88.372 173.808 92.556 173.808 95.136 172.318C96.426 171.573 97.072 170.597 97.072 169.62V155.227H97.071Z" fill="white"/>
<path d="M85.79 168.503C88.371 169.993 92.5549 169.993 95.1349 168.503C96.4249 167.758 97.071 166.782 97.071 165.805V156.801C97.064 156.802 97.058 156.802 97.052 156.803C96.972 157.712 96.339 158.608 95.136 159.302C92.555 160.792 88.371 160.792 85.791 159.302C84.592 158.61 83.957 157.717 83.873 156.811H83.856V165.806C83.855 166.782 84.5 167.758 85.79 168.503Z" fill="#0084DA"/>
<path d="M95.135 157.925C92.554 159.415 88.37 159.415 85.79 157.925C83.209 156.435 83.209 154.019 85.79 152.529C88.371 151.039 92.555 151.039 95.135 152.529C97.716 154.019 97.716 156.435 95.135 157.925Z" fill="#0084DA"/>
<path d="M95.135 153.219C92.554 154.709 88.37 154.709 85.79 153.219C83.209 151.729 83.209 149.313 85.79 147.823C88.371 146.333 92.555 146.333 95.135 147.823C97.716 149.314 97.716 151.729 95.135 153.219Z" fill="#380200"/>
<path d="M97.07 146.935H83.854V150.522H97.07V146.935Z" fill="#380200"/>
<path d="M95.135 149.632C92.554 151.122 88.37 151.122 85.79 149.632C83.209 148.142 83.209 145.726 85.79 144.236C88.371 142.746 92.555 142.746 95.135 144.236C97.716 145.727 97.716 148.142 95.135 149.632Z" fill="#736374"/>
<path opacity="0.36" d="M92.939 148.136C91.571 148.926 89.3541 148.926 87.9871 148.136C86.6201 147.346 86.6191 146.066 87.9871 145.277C89.3551 144.487 91.572 144.487 92.939 145.277C94.306 146.066 94.306 147.346 92.939 148.136Z" fill="#FFCC85"/>
<path d="M61.9111 174.16C59.3301 175.65 55.1461 175.65 52.5661 174.16C49.9851 172.67 49.9851 170.254 52.5661 168.765C55.1471 167.275 59.3311 167.275 61.9111 168.765C64.4921 170.254 64.4921 172.67 61.9111 174.16Z" fill="#B9EAF0"/>
<path d="M52.5661 170.345C55.1471 171.835 59.3311 171.835 61.9111 170.345C63.2011 169.6 63.8461 168.624 63.8461 167.647V158.643C63.8391 158.644 63.8331 158.645 63.8271 158.645C63.7471 159.554 63.1141 160.45 61.9111 161.144C59.3301 162.634 55.1461 162.634 52.5661 161.144C51.3671 160.452 50.7321 159.559 50.6481 158.653H50.6311V167.648C50.6311 168.624 51.2761 169.6 52.5661 170.345Z" fill="#0084DA"/>
<path opacity="0.47" d="M52.5661 154.371C55.1471 152.881 59.3311 152.881 61.9111 154.371C63.2011 155.116 63.8471 156.092 63.8461 157.069V171.462C63.8461 172.439 63.2011 173.415 61.9111 174.16C59.3301 175.65 55.1461 175.65 52.5661 174.16C51.2761 173.415 50.6301 172.439 50.6311 171.462V157.07C50.6301 156.093 51.2751 155.116 52.5661 154.371Z" fill="white"/>
<path d="M60.87 155.516C58.864 156.674 55.613 156.674 53.607 155.516C51.601 154.358 51.601 152.481 53.607 151.323C55.613 150.165 58.864 150.165 60.87 151.323C62.876 152.481 62.875 154.358 60.87 155.516Z" fill="#380200"/>
<path d="M62.374 150.632H52.103V153.419H62.374V150.632Z" fill="#380200"/>
<path d="M60.87 152.728C58.864 153.886 55.613 153.886 53.607 152.728C51.601 151.57 51.601 149.693 53.607 148.535C55.613 147.377 58.864 147.377 60.87 148.535C62.876 149.693 62.875 151.57 60.87 152.728Z" fill="#736374"/>
<path opacity="0.36" d="M59.1631 151.565C58.1001 152.179 56.3771 152.179 55.3141 151.565C54.2511 150.951 54.2511 149.957 55.3141 149.343C56.3771 148.729 58.1001 148.729 59.1631 149.343C60.2261 149.957 60.2261 150.952 59.1631 151.565Z" fill="#FFCC85"/>
<path d="M71.166 144.175V187.569" stroke="#0084DA" stroke-width="3" stroke-miterlimit="10" stroke-linecap="round" stroke-linejoin="round"/>
<path d="M37.989 126.088V169.482" stroke="#0084DA" stroke-width="3" stroke-miterlimit="10" stroke-linecap="round" stroke-linejoin="round"/>
<path d="M153.938 97.863V141.257" stroke="#0084DA" stroke-width="3" stroke-miterlimit="10" stroke-linecap="round" stroke-linejoin="round"/>
<path d="M120.761 79.776V123.17" stroke="#0084DA" stroke-width="3" stroke-miterlimit="10" stroke-linecap="round" stroke-linejoin="round"/>
<path d="M31.05 130.058L71.583 153.125L160.4 101.909V98.9089L119.933 79.2579L31.05 127.058V130.058Z" fill="#0084DA"/>
<path d="M31.05 127.058L71.583 150.125L160.4 98.9089L119.933 76.2579L31.05 127.058Z" fill="#B9EAF0"/>
<path d="M106.122 88.2239L88.02 98.0359L81.801 94.5809L99.469 84.6759L106.122 88.2239Z" fill="#0084DA"/>
<path d="M88.02 98.0359V111.644L81.801 108.015V94.5809L88.02 98.0359Z" fill="#0084DA"/>
<path d="M81.801 97.7089V103.581L88.02 107.036V101.164L81.801 97.7089Z" fill="#BBB8CE"/>
<path d="M106.122 88.2239L88.02 98.0359V111.644L106.122 101.362V88.2239Z" fill="#B9EAF0"/>
<path d="M88.02 101.167V107.024L106.122 97.213V91.356L88.02 101.167Z" fill="#EBEAF0"/>
<path d="M116.394 93.8999L98.292 103.711L92.074 100.256L109.742 90.351L116.394 93.8999Z" fill="#0084DA"/>
<path d="M98.292 103.711V117.319L92.074 113.69V100.256L98.292 103.711Z" fill="#0084DA"/>
<path d="M92.074 103.384V109.257L98.292 112.711V106.839L92.074 103.384Z" fill="#BBB8CE"/>
<path d="M116.394 93.8999L98.292 103.711V117.319L116.394 107.037V93.8999Z" fill="#B9EAF0"/>
<path d="M98.292 106.842V112.7L116.395 102.889V97.031L98.292 106.842Z" fill="#EBEAF0"/>
<path d="M126.667 99.5749L108.565 109.386L102.347 105.932L120.015 96.0269L126.667 99.5749Z" fill="#0084DA"/>
<path d="M108.565 109.386V122.994L102.347 119.365V105.932L108.565 109.386Z" fill="#0084DA"/>
<path d="M102.347 109.06V114.932L108.565 118.386V112.514L102.347 109.06Z" fill="#BBB8CE"/>
<path d="M126.667 99.5748L108.565 109.386V122.994L126.667 112.712V99.5748Z" fill="#B9EAF0"/>
<path d="M108.565 112.517V118.375L126.667 108.564V102.706L108.565 112.517Z" fill="#EBEAF0"/>
<path opacity="0.47" d="M123.39 93.435C121.459 94.55 118.328 94.55 116.397 93.435C114.466 92.32 114.466 90.512 116.397 89.398C118.328 88.283 121.459 88.283 123.39 89.398C125.321 90.513 125.321 92.32 123.39 93.435Z" fill="#FFAD10"/>
<path opacity="0.64" d="M116.397 78.6269C118.328 77.5119 121.459 77.5119 123.39 78.6269C124.356 79.1849 124.838 79.9149 124.838 80.6459V91.4169C124.838 92.1479 124.355 92.8779 123.39 93.4359C121.459 94.5509 118.328 94.5509 116.397 93.4359C115.431 92.8779 114.949 92.1479 114.949 91.4169V80.6469C114.949 79.9149 115.431 79.1849 116.397 78.6269Z" fill="#FFCC85"/>
<path d="M116.397 90.58C118.328 91.695 121.459 91.695 123.39 90.58C124.356 90.023 124.838 89.292 124.838 88.561V81.823C124.833 81.823 124.829 81.824 124.824 81.824C124.764 82.504 124.29 83.174 123.39 83.694C121.459 84.809 118.328 84.809 116.397 83.694C115.5 83.176 115.025 82.508 114.961 81.83H114.948V88.561C114.949 89.293 115.432 90.023 116.397 90.58Z" fill="#FF5746"/>
<path d="M123.39 79.1429C121.459 80.2579 118.328 80.2579 116.397 79.1429C114.466 78.0279 114.466 76.2199 116.397 75.1049C118.328 73.9899 121.459 73.9899 123.39 75.1049C125.321 76.2209 125.321 78.0279 123.39 79.1429Z" fill="#380200"/>
<path d="M124.839 74.4399H114.949V77.1239H124.839V74.4399Z" fill="#380200"/>
<path d="M123.39 76.4589C121.459 77.5739 118.328 77.5739 116.397 76.4589C114.466 75.3439 114.466 73.5359 116.397 72.4219C118.328 71.3069 121.459 71.3069 123.39 72.4219C125.321 73.5369 125.321 75.3439 123.39 76.4589Z" fill="#736374"/>
<path opacity="0.36" d="M121.747 75.339C120.724 75.93 119.064 75.93 118.041 75.339C117.018 74.748 117.018 73.79 118.041 73.199C119.064 72.608 120.724 72.608 121.747 73.199C122.77 73.791 122.77 74.748 121.747 75.339Z" fill="#FFCC85"/>
<path d="M139.132 101.579C136.551 103.069 132.367 103.069 129.787 101.579C127.206 100.089 127.206 97.6729 129.787 96.1829C132.368 94.6929 136.552 94.6929 139.132 96.1829C141.713 97.6729 141.713 100.089 139.132 101.579Z" fill="#FFAD10"/>
<path opacity="0.64" d="M129.481 81.5589C130.249 80.4349 131.71 79.0939 134.459 79.0939C137.208 79.0939 138.665 80.4379 139.437 81.5589C139.853 82.1639 141.067 83.5729 141.067 84.4879V98.8809C141.067 99.8569 140.422 100.834 139.131 101.579C136.55 103.069 132.366 103.069 129.786 101.579C128.496 100.834 127.85 99.8569 127.85 98.8809V84.4879C127.851 83.5729 129.116 82.0939 129.481 81.5589Z" fill="#FFCC85"/>
<path d="M129.787 97.7639C132.368 99.2539 136.552 99.2539 139.132 97.7639C140.422 97.0189 141.068 96.0429 141.068 95.0659V86.0619C141.061 86.0629 141.055 86.0639 141.049 86.0639C140.969 86.9729 140.336 87.8689 139.133 88.5629C136.552 90.0529 132.368 90.0529 129.788 88.5629C128.589 87.8709 127.954 86.9779 127.87 86.0719H127.853V95.0669C127.852 96.0429 128.497 97.0189 129.787 97.7639Z" fill="#BBB8CE"/>
<path d="M137.675 81.0789C135.899 82.1039 133.02 82.1039 131.244 81.0789C129.468 80.0539 129.468 78.3909 131.244 77.3659C133.02 76.3409 135.899 76.3409 137.675 77.3659C139.451 78.3909 139.451 80.0539 137.675 81.0789Z" fill="#380200"/>
<path d="M139.007 76.7539H129.912V79.2219H139.007V76.7539Z" fill="#380200"/>
<path d="M137.675 78.6109C135.899 79.6359 133.02 79.6359 131.244 78.6109C129.468 77.5859 129.468 75.9229 131.244 74.8979C133.02 73.8729 135.899 73.8729 137.675 74.8979C139.451 75.9229 139.451 77.5849 137.675 78.6109Z" fill="#736374"/>
<path opacity="0.36" d="M136.164 77.5809C135.223 78.1239 133.697 78.1239 132.756 77.5809C131.815 77.0379 131.815 76.1569 132.756 75.6129C133.697 75.0699 135.223 75.0699 136.164 75.6129C137.105 76.1569 137.105 77.0379 136.164 77.5809Z" fill="#FFCC85"/>
<path opacity="0.47" d="M80.5691 122.331C77.9881 123.821 73.8041 123.821 71.2241 122.331C68.6431 120.841 68.6431 118.425 71.2241 116.935C73.8051 115.445 77.9891 115.445 80.5691 116.935C83.1501 118.426 83.1501 120.841 80.5691 122.331Z" fill="white"/>
<path opacity="0.47" d="M82.5051 105.24H69.2891V119.633C69.2891 120.61 69.9341 121.586 71.2241 122.331C73.8051 123.821 77.9891 123.821 80.5691 122.331C81.8591 121.586 82.5051 120.61 82.5051 119.633V105.24Z" fill="white"/>
<path d="M71.224 118.516C73.805 120.006 77.989 120.006 80.569 118.516C81.859 117.771 82.505 116.795 82.505 115.818V106.814C82.498 106.815 82.492 106.816 82.486 106.816C82.406 107.725 81.773 108.621 80.57 109.315C77.989 110.805 73.805 110.805 71.225 109.315C70.026 108.623 69.391 107.73 69.307 106.824H69.29V115.819C69.289 116.795 69.934 117.771 71.224 118.516Z" fill="#0084DA"/>
<path d="M80.5691 107.938C77.9881 109.428 73.8041 109.428 71.2241 107.938C68.6431 106.448 68.6431 104.032 71.2241 102.542C73.8051 101.052 77.9891 101.052 80.5691 102.542C83.1501 104.032 83.1501 106.448 80.5691 107.938Z" fill="#0084DA"/>
<path d="M80.5691 103.232C77.9881 104.722 73.8041 104.722 71.2241 103.232C68.6431 101.742 68.6431 99.326 71.2241 97.836C73.8051 96.346 77.9891 96.346 80.5691 97.836C83.1501 99.327 83.1501 101.742 80.5691 103.232Z" fill="#380200"/>
<path d="M82.5041 96.948H69.2881V100.535H82.5041V96.948Z" fill="#380200"/>
<path d="M80.5691 99.645C77.9881 101.135 73.8041 101.135 71.2241 99.645C68.6431 98.155 68.6431 95.739 71.2241 94.249C73.8051 92.759 77.9891 92.759 80.5691 94.249C83.1501 95.74 83.1501 98.155 80.5691 99.645Z" fill="#736374"/>
<path opacity="0.36" d="M78.373 98.149C77.005 98.939 74.788 98.939 73.421 98.149C72.053 97.359 72.053 96.079 73.421 95.29C74.789 94.5 77.006 94.5 78.373 95.29C79.74 96.079 79.74 97.359 78.373 98.149Z" fill="#FFCC85"/>
<path opacity="0.47" d="M95.135 130.756C92.554 132.246 88.37 132.246 85.79 130.756C83.209 129.266 83.209 126.85 85.79 125.36C88.371 123.87 92.555 123.87 95.135 125.36C97.716 126.85 97.716 129.266 95.135 130.756Z" fill="white"/>
<path opacity="0.47" d="M97.071 113.665H83.855V128.058C83.855 129.035 84.5 130.011 85.791 130.756C88.372 132.246 92.556 132.246 95.136 130.756C96.426 130.011 97.072 129.035 97.072 128.058V113.665H97.071Z" fill="white"/>
<path d="M85.79 126.941C88.371 128.431 92.5549 128.431 95.1349 126.941C96.4249 126.196 97.071 125.22 97.071 124.243V115.239C97.064 115.24 97.058 115.24 97.052 115.241C96.972 116.15 96.339 117.046 95.136 117.74C92.555 119.23 88.371 119.23 85.791 117.74C84.592 117.048 83.957 116.155 83.873 115.249H83.856V124.244C83.855 125.22 84.5 126.196 85.79 126.941Z" fill="#0084DA"/>
<path d="M95.135 116.363C92.554 117.853 88.37 117.853 85.79 116.363C83.209 114.873 83.209 112.457 85.79 110.967C88.371 109.477 92.555 109.477 95.135 110.967C97.716 112.457 97.716 114.873 95.135 116.363Z" fill="#0084DA"/>
<path d="M95.135 111.657C92.554 113.147 88.37 113.147 85.79 111.657C83.209 110.167 83.209 107.751 85.79 106.261C88.371 104.771 92.555 104.771 95.135 106.261C97.716 107.751 97.716 110.167 95.135 111.657Z" fill="#380200"/>
<path d="M97.07 105.372H83.854V108.959H97.07V105.372Z" fill="#380200"/>
<path d="M95.135 108.07C92.554 109.56 88.37 109.56 85.79 108.07C83.209 106.58 83.209 104.164 85.79 102.674C88.371 101.184 92.555 101.184 95.135 102.674C97.716 104.164 97.716 106.58 95.135 108.07Z" fill="#736374"/>
<path opacity="0.36" d="M92.9389 106.573C91.5709 107.363 89.3539 107.363 87.9869 106.573C86.6189 105.783 86.6189 104.503 87.9869 103.714C89.3549 102.925 91.5719 102.925 92.9389 103.714C94.3059 104.504 94.3059 105.784 92.9389 106.573Z" fill="#FFCC85"/>
<path d="M61.9111 132.598C59.3301 134.088 55.1461 134.088 52.5661 132.598C49.9851 131.108 49.9851 128.692 52.5661 127.203C55.1471 125.713 59.3311 125.713 61.9111 127.203C64.4921 128.692 64.4921 131.108 61.9111 132.598Z" fill="#B9EAF0"/>
<path d="M52.5661 128.782C55.1471 130.272 59.3311 130.272 61.9111 128.782C63.2011 128.037 63.8461 127.061 63.8461 126.084V117.08C63.8391 117.08 63.8331 117.081 63.8271 117.082C63.7471 117.991 63.1141 118.887 61.9111 119.581C59.3301 121.071 55.1461 121.071 52.5661 119.581C51.3671 118.889 50.7321 117.996 50.6481 117.09H50.6311V126.085C50.6311 127.062 51.2761 128.038 52.5661 128.782Z" fill="#0084DA"/>
<path opacity="0.47" d="M52.5661 112.809C55.1471 111.319 59.3311 111.319 61.9111 112.809C63.2011 113.554 63.8471 114.53 63.8461 115.507V129.9C63.8461 130.876 63.2011 131.853 61.9111 132.598C59.3301 134.088 55.1461 134.088 52.5661 132.598C51.2761 131.853 50.6301 130.876 50.6311 129.9V115.508C50.6301 114.53 51.2751 113.554 52.5661 112.809Z" fill="white"/>
<path d="M60.87 113.953C58.864 115.111 55.613 115.111 53.607 113.953C51.601 112.795 51.601 110.918 53.607 109.76C55.613 108.602 58.864 108.602 60.87 109.76C62.875 110.918 62.875 112.796 60.87 113.953Z" fill="#380200"/>
<path d="M62.374 109.069H52.103V111.856H62.374V109.069Z" fill="#380200"/>
<path d="M60.87 111.166C58.864 112.324 55.613 112.324 53.607 111.166C51.601 110.008 51.601 108.131 53.607 106.973C55.613 105.815 58.864 105.815 60.87 106.973C62.875 108.131 62.875 110.008 60.87 111.166Z" fill="#736374"/>
<path opacity="0.36" d="M59.1631 110.003C58.1001 110.616 56.3771 110.616 55.3141 110.003C54.2511 109.389 54.2511 108.394 55.3141 107.781C56.3771 107.168 58.1001 107.168 59.1631 107.781C60.2261 108.394 60.2261 109.389 59.1631 110.003Z" fill="#FFCC85"/>
<path d="M306.12 252.886L274.292 271.373L172.808 212.762L204.961 195.412L306.12 252.886Z" fill="url(#paint1_linear_64_6)"/>
<path d="M306.12 60.872V252.886L204.961 195.412V3.39795L306.12 60.872Z" fill="#9593B5"/>
<path d="M306.12 252.886L312.557 249.289V57.5649L306.12 60.8719V252.886Z" fill="#BBB8CE"/>
<path d="M312.557 57.565L211.839 0L204.961 3.398L306.12 60.872L312.557 57.565Z" fill="#EBEAF0"/>
<path d="M306.12 95.116L276.801 111.704L175.79 54.004L205.108 37.416L306.12 95.116Z" fill="#EBEAF0"/>
<path d="M276.801 111.704V119.419L306.12 102.831V95.116L276.801 111.704Z" fill="#9593B5"/>
<path d="M276.801 119.419L175.79 61.009V54.004L276.801 111.704V119.419Z" fill="#BBB8CE"/>
<path d="M223.386 43.4771L241.488 53.2881L247.707 49.8341L230.038 39.9291L223.386 43.4771Z" fill="#0084DA"/>
<path d="M241.488 53.2881V66.8961L247.707 63.2671V49.8341L241.488 53.2881Z" fill="#0084DA"/>
<path d="M247.707 52.962V58.834L241.488 62.289V56.416L247.707 52.962Z" fill="#BBB8CE"/>
<path d="M223.386 43.4771L241.488 53.2881V66.896L223.386 56.6141V43.4771Z" fill="#B9EAF0"/>
<path d="M241.488 56.4201V62.2771L223.386 52.4661V46.6091L241.488 56.4201Z" fill="#EBEAF0"/>
<path d="M213.113 49.1521L231.216 58.9641L237.434 55.5091L219.766 45.6041L213.113 49.1521Z" fill="#0084DA"/>
<path d="M231.216 58.9642V72.5722L237.434 68.9432V55.5092L231.216 58.9642Z" fill="#0084DA"/>
<path d="M237.434 58.6371V64.5091L231.216 67.9641V62.0921L237.434 58.6371Z" fill="#BBB8CE"/>
<path d="M213.113 49.1521L231.216 58.9641V72.5721L213.113 62.2891V49.1521Z" fill="#B9EAF0"/>
<path d="M231.216 62.0952V67.9522L213.113 58.1412V52.2842L231.216 62.0952Z" fill="#EBEAF0"/>
<path d="M202.841 54.828L220.943 64.6391L227.161 61.1841L209.493 51.2791L202.841 54.828Z" fill="#0084DA"/>
<path d="M220.943 64.6391V78.2471L227.161 74.6181V61.1841L220.943 64.6391Z" fill="#0084DA"/>
<path d="M227.161 64.312V70.185L220.943 73.639V67.767L227.161 64.312Z" fill="#BBB8CE"/>
<path d="M202.841 54.828L220.943 64.639V78.247L202.841 67.965V54.828Z" fill="#B9EAF0"/>
<path d="M220.943 67.7701V73.6281L202.841 63.8171V57.9591L220.943 67.7701Z" fill="#EBEAF0"/>
<path opacity="0.47" d="M206.118 48.6881C208.049 49.8031 211.18 49.8031 213.111 48.6881C215.042 47.5731 215.042 45.7651 213.111 44.6511C211.18 43.5361 208.049 43.5361 206.118 44.6511C204.187 45.7651 204.187 47.5731 206.118 48.6881Z" fill="#FFAD10"/>
<path opacity="0.64" d="M213.111 33.8801C211.18 32.7651 208.049 32.7651 206.118 33.8801C205.153 34.4381 204.67 35.1681 204.67 35.8991V46.6701C204.67 47.4011 205.153 48.1311 206.118 48.6891C208.049 49.8041 211.18 49.8041 213.111 48.6891C214.077 48.1321 214.559 47.4011 214.559 46.6701V35.9001C214.559 35.1681 214.076 34.4371 213.111 33.8801Z" fill="#FFCC85"/>
<path d="M213.111 45.8332C211.18 46.9482 208.049 46.9482 206.118 45.8332C205.153 45.2752 204.67 44.5452 204.67 43.8142V37.0762C204.675 37.0762 204.679 37.0772 204.684 37.0772C204.744 37.7572 205.218 38.4272 206.118 38.9472C208.049 40.0622 211.18 40.0622 213.111 38.9472C214.008 38.4292 214.483 37.7612 214.547 37.0832H214.56V43.8142C214.559 44.5462 214.076 45.2762 213.111 45.8332Z" fill="#FF5746"/>
<path d="M206.118 34.3961C208.049 35.5111 211.18 35.5111 213.111 34.3961C215.042 33.2811 215.042 31.4731 213.111 30.3581C211.18 29.2431 208.049 29.2431 206.118 30.3581C204.187 31.4731 204.187 33.2811 206.118 34.3961Z" fill="#380200"/>
<path d="M204.67 32.3776H214.56V29.6936H204.67V32.3776Z" fill="#380200"/>
<path d="M206.118 31.7121C208.049 32.8271 211.18 32.8271 213.111 31.7121C215.042 30.5971 215.042 28.7891 213.111 27.6751C211.18 26.5601 208.049 26.5601 206.118 27.6751C204.187 28.7891 204.187 30.5971 206.118 31.7121Z" fill="#736374"/>
<path opacity="0.36" d="M207.761 30.592C208.784 31.183 210.443 31.183 211.467 30.592C212.49 30.001 212.49 29.043 211.467 28.452C210.444 27.861 208.784 27.861 207.761 28.452C206.738 29.043 206.738 30.001 207.761 30.592Z" fill="#FFCC85"/>
<path opacity="0.47" d="M279.046 91.378C280.977 92.493 284.108 92.493 286.039 91.378C287.97 90.263 287.97 88.455 286.039 87.341C284.108 86.226 280.977 86.226 279.046 87.341C277.115 88.456 277.115 90.263 279.046 91.378Z" fill="#FFAD10"/>
<path opacity="0.64" d="M286.039 76.57C284.108 75.455 280.977 75.455 279.046 76.57C278.08 77.127 277.598 77.858 277.598 78.589V89.36C277.598 90.091 278.081 90.821 279.046 91.379C280.977 92.494 284.108 92.494 286.039 91.379C287.005 90.821 287.487 90.091 287.487 89.36V78.59C287.488 77.858 287.005 77.128 286.039 76.57Z" fill="#FFCC85"/>
<path d="M286.039 88.5231C284.108 89.6381 280.977 89.6381 279.046 88.5231C278.08 87.9661 277.598 87.2351 277.598 86.5041V79.7661C277.603 79.7661 277.607 79.7671 277.612 79.7671C277.672 80.4471 278.146 81.1171 279.046 81.6371C280.977 82.7521 284.108 82.7521 286.039 81.6371C286.936 81.1191 287.411 80.4511 287.475 79.7731H287.488V86.5041C287.487 87.2361 287.004 87.9661 286.039 88.5231Z" fill="#FF5746"/>
<path d="M279.046 77.086C280.977 78.201 284.108 78.201 286.039 77.086C287.97 75.971 287.97 74.163 286.039 73.048C284.108 71.933 280.977 71.933 279.046 73.048C277.115 74.164 277.115 75.971 279.046 77.086Z" fill="#380200"/>
<path d="M277.598 75.0673H287.488V72.3833H277.598V75.0673Z" fill="#380200"/>
<path d="M279.046 74.4021C280.977 75.5171 284.108 75.5171 286.039 74.4021C287.97 73.2871 287.97 71.4791 286.039 70.3651C284.108 69.2501 280.977 69.2501 279.046 70.3651C277.115 71.4801 277.115 73.2871 279.046 74.4021Z" fill="#736374"/>
<path opacity="0.36" d="M280.69 73.2821C281.713 73.8731 283.373 73.8731 284.396 73.2821C285.419 72.6911 285.419 71.7331 284.396 71.1421C283.373 70.5511 281.713 70.5511 280.69 71.1421C279.666 71.7341 279.666 72.6921 280.69 73.2821Z" fill="#FFCC85"/>
<path d="M190.376 56.8311C192.957 58.3211 197.141 58.3211 199.721 56.8311C202.302 55.3411 202.302 52.9251 199.721 51.4351C197.14 49.9451 192.956 49.9451 190.376 51.4351C187.795 52.9261 187.795 55.3421 190.376 56.8311Z" fill="#FFAD10"/>
<path opacity="0.64" d="M200.027 36.812C199.259 35.688 197.798 34.347 195.049 34.347C192.3 34.347 190.843 35.691 190.071 36.812C189.655 37.417 188.441 38.826 188.441 39.741V54.134C188.441 55.11 189.086 56.087 190.376 56.832C192.957 58.322 197.141 58.322 199.721 56.832C201.011 56.087 201.657 55.11 201.657 54.134V39.74C201.657 38.826 200.392 37.347 200.027 36.812Z" fill="#FFCC85"/>
<path d="M199.721 53.0161C197.14 54.5061 192.956 54.5061 190.376 53.0161C189.086 52.2711 188.441 51.2951 188.441 50.3181V41.3151C188.448 41.3161 188.454 41.3171 188.46 41.3171C188.54 42.2261 189.173 43.1221 190.376 43.8161C192.957 45.3061 197.141 45.3061 199.721 43.8161C200.92 43.1241 201.555 42.2311 201.639 41.3251H201.656V50.3201C201.656 51.2961 201.011 52.2721 199.721 53.0161Z" fill="#BBB8CE"/>
<path d="M191.833 36.3321C193.609 37.3571 196.488 37.3571 198.264 36.3321C200.04 35.3071 200.04 33.6441 198.264 32.6191C196.488 31.5941 193.609 31.5941 191.833 32.6191C190.057 33.6441 190.057 35.3071 191.833 36.3321Z" fill="#380200"/>
<path d="M190.501 34.4753H199.596V32.0073H190.501V34.4753Z" fill="#380200"/>
<path d="M191.833 33.8641C193.609 34.8891 196.488 34.8891 198.264 33.8641C200.04 32.8391 200.04 31.1761 198.264 30.1511C196.488 29.1261 193.609 29.1261 191.833 30.1511C190.057 31.1761 190.057 32.8381 191.833 33.8641Z" fill="#736374"/>
<path opacity="0.36" d="M193.344 32.8341C194.285 33.3771 195.811 33.3771 196.752 32.8341C197.693 32.2911 197.693 31.4101 196.752 30.8661C195.811 30.3231 194.285 30.3231 193.344 30.8661C192.403 31.4091 192.403 32.2901 193.344 32.8341Z" fill="#FFCC85"/>
<path d="M250.657 59.1352L268.759 68.9462L274.977 65.4912L257.309 55.5862L250.657 59.1352Z" fill="#0084DA"/>
<path d="M268.759 68.9462V82.5542L274.977 78.9252V65.4912L268.759 68.9462Z" fill="#0084DA"/>
<path d="M274.977 68.6191V74.4921L268.759 77.9461V72.0741L274.977 68.6191Z" fill="#BBB8CE"/>
<path d="M250.657 59.1351L268.759 68.9461V82.5541L250.657 72.2721V59.1351Z" fill="#B9EAF0"/>
<path d="M268.759 72.0772V77.9352L250.657 68.1242V62.2662L268.759 72.0772Z" fill="#EBEAF0"/>
<path d="M240.384 64.8102L258.486 74.6212L264.704 71.1662L247.036 61.2622L240.384 64.8102Z" fill="#0084DA"/>
<path d="M258.486 74.6213V88.2293L264.704 84.6003V71.1663L258.486 74.6213Z" fill="#0084DA"/>
<path d="M264.704 74.2952V80.1672L258.486 83.6212V77.7492L264.704 74.2952Z" fill="#BBB8CE"/>
<path d="M240.384 64.8102L258.486 74.6212V88.2292L240.384 77.9472V64.8102Z" fill="#B9EAF0"/>
<path d="M258.486 77.7522V83.6102L240.384 73.7992V67.9412L258.486 77.7522Z" fill="#EBEAF0"/>
<path d="M230.111 70.4851L248.213 80.2961L254.432 76.8421L236.763 66.9371L230.111 70.4851Z" fill="#0084DA"/>
<path d="M248.213 80.2962V93.9042L254.432 90.2752V76.8422L248.213 80.2962Z" fill="#0084DA"/>
<path d="M254.432 79.9701V85.8421L248.213 89.2971V83.4241L254.432 79.9701Z" fill="#BBB8CE"/>
<path d="M230.111 70.4851L248.213 80.2961V93.9041L230.111 83.6221V70.4851Z" fill="#B9EAF0"/>
<path d="M248.213 83.4282V89.2852L230.111 79.4742V73.6172L248.213 83.4282Z" fill="#EBEAF0"/>
<path d="M254.272 84.2631L272.375 94.0751L278.593 90.6201L260.925 80.7151L254.272 84.2631Z" fill="#0084DA"/>
<path d="M272.375 94.0751V107.683L278.593 104.054V90.6201L272.375 94.0751Z" fill="#0084DA"/>
<path d="M278.593 93.748V99.6201L272.375 103.075V97.203L278.593 93.748Z" fill="#BBB8CE"/>
<path d="M254.272 84.2631L272.375 94.0751V107.683L254.272 97.4011V84.2631Z" fill="#B9EAF0"/>
<path d="M272.375 97.2061V103.064L254.272 93.2521V87.3951L272.375 97.2061Z" fill="#EBEAF0"/>
<path d="M306.12 183.81L276.801 200.398L175.79 142.698L205.108 126.11L306.12 183.81Z" fill="#EBEAF0"/>
<path d="M276.801 200.398V208.113L306.12 191.525V183.81L276.801 200.398Z" fill="#9593B5"/>
<path d="M276.801 208.113L175.79 149.703V142.698L276.801 200.398V208.113Z" fill="#BBB8CE"/>
<path d="M223.386 132.171L241.488 141.982L247.707 138.527L230.038 128.622L223.386 132.171Z" fill="#0084DA"/>
<path d="M241.488 141.982V155.59L247.707 151.961V138.527L241.488 141.982Z" fill="#0084DA"/>
<path d="M247.707 141.655V147.528L241.488 150.982V145.11L247.707 141.655Z" fill="#BBB8CE"/>
<path d="M223.386 132.171L241.488 141.982V155.59L223.386 145.308V132.171Z" fill="#B9EAF0"/>
<path d="M241.488 145.113V150.971L223.386 141.16V135.302L241.488 145.113Z" fill="#EBEAF0"/>
<path d="M213.113 137.846L231.216 147.657L237.434 144.203L219.766 134.298L213.113 137.846Z" fill="#0084DA"/>
<path d="M231.216 147.657V161.265L237.434 157.636V144.203L231.216 147.657Z" fill="#0084DA"/>
<path d="M237.434 147.33V153.203L231.216 156.657V150.785L237.434 147.33Z" fill="#BBB8CE"/>
<path d="M213.113 137.846L231.216 147.657V161.265L213.113 150.983V137.846Z" fill="#B9EAF0"/>
<path d="M231.216 150.789V156.646L213.113 146.835V140.977L231.216 150.789Z" fill="#EBEAF0"/>
<path d="M202.841 143.521L220.943 153.332L227.161 149.878L209.493 139.973L202.841 143.521Z" fill="#0084DA"/>
<path d="M220.943 153.332V166.94L227.161 163.312V149.878L220.943 153.332Z" fill="#0084DA"/>
<path d="M227.161 153.006V158.878L220.943 162.333V156.46L227.161 153.006Z" fill="#BBB8CE"/>
<path d="M202.841 143.521L220.943 153.332V166.94L202.841 156.658V143.521Z" fill="#B9EAF0"/>
<path d="M220.943 156.464V162.321L202.841 152.51V146.653L220.943 156.464Z" fill="#EBEAF0"/>
<path opacity="0.47" d="M206.118 137.382C208.049 138.497 211.18 138.497 213.111 137.382C215.042 136.267 215.042 134.459 213.111 133.344C211.18 132.229 208.049 132.229 206.118 133.344C204.187 134.459 204.187 136.267 206.118 137.382Z" fill="#FFAD10"/>
<path opacity="0.64" d="M213.111 122.573C211.18 121.458 208.049 121.458 206.118 122.573C205.153 123.13 204.67 123.861 204.67 124.592V135.363C204.67 136.094 205.153 136.824 206.118 137.382C208.049 138.497 211.18 138.497 213.111 137.382C214.077 136.825 214.559 136.094 214.559 135.363V124.593C214.559 123.862 214.076 123.131 213.111 122.573Z" fill="#FFCC85"/>
<path d="M213.111 134.527C211.18 135.642 208.049 135.642 206.118 134.527C205.153 133.969 204.67 133.239 204.67 132.508V125.77C204.675 125.77 204.679 125.771 204.684 125.771C204.744 126.451 205.218 127.121 206.118 127.641C208.049 128.756 211.18 128.756 213.111 127.641C214.008 127.123 214.483 126.455 214.547 125.777H214.56V132.508C214.559 133.239 214.076 133.969 213.111 134.527Z" fill="#FF5746"/>
<path d="M206.118 123.09C208.049 124.205 211.18 124.205 213.111 123.09C215.042 121.975 215.042 120.167 213.111 119.052C211.18 117.937 208.049 117.937 206.118 119.052C204.187 120.167 204.187 121.975 206.118 123.09Z" fill="#380200"/>
<path d="M204.67 121.071H214.56V118.387H204.67V121.071Z" fill="#380200"/>
<path d="M206.118 120.405C208.049 121.52 211.18 121.52 213.111 120.405C215.042 119.29 215.042 117.482 213.111 116.368C211.18 115.253 208.049 115.253 206.118 116.368C204.187 117.483 204.187 119.291 206.118 120.405Z" fill="#736374"/>
<path opacity="0.36" d="M207.761 119.286C208.784 119.877 210.443 119.877 211.467 119.286C212.49 118.695 212.49 117.737 211.467 117.146C210.444 116.555 208.784 116.555 207.761 117.146C206.738 117.737 206.738 118.695 207.761 119.286Z" fill="#FFCC85"/>
<path opacity="0.47" d="M279.046 180.072C280.977 181.187 284.108 181.187 286.039 180.072C287.97 178.957 287.97 177.149 286.039 176.034C284.108 174.919 280.977 174.919 279.046 176.034C277.115 177.149 277.115 178.957 279.046 180.072Z" fill="#FFAD10"/>
<path opacity="0.64" d="M286.039 165.264C284.108 164.149 280.977 164.149 279.046 165.264C278.08 165.822 277.598 166.552 277.598 167.283V178.054C277.598 178.785 278.081 179.515 279.046 180.073C280.977 181.188 284.108 181.188 286.039 180.073C287.005 179.516 287.487 178.785 287.487 178.054V167.284C287.488 166.552 287.005 165.821 286.039 165.264Z" fill="#FFCC85"/>
<path d="M286.039 177.217C284.108 178.332 280.977 178.332 279.046 177.217C278.08 176.659 277.598 175.929 277.598 175.198V168.46C277.603 168.46 277.607 168.461 277.612 168.461C277.672 169.141 278.146 169.811 279.046 170.331C280.977 171.446 284.108 171.446 286.039 170.331C286.936 169.813 287.411 169.145 287.475 168.467H287.488V175.198C287.487 175.929 287.004 176.66 286.039 177.217Z" fill="#FF5746"/>
<path d="M279.046 165.78C280.977 166.895 284.108 166.895 286.039 165.78C287.97 164.665 287.97 162.857 286.039 161.742C284.108 160.627 280.977 160.627 279.046 161.742C277.115 162.857 277.115 164.665 279.046 165.78Z" fill="#380200"/>
<path d="M277.598 163.761H287.488V161.077H277.598V163.761Z" fill="#380200"/>
<path d="M279.046 163.096C280.977 164.211 284.108 164.211 286.039 163.096C287.97 161.981 287.97 160.173 286.039 159.059C284.108 157.944 280.977 157.944 279.046 159.059C277.115 160.173 277.115 161.981 279.046 163.096Z" fill="#736374"/>
<path opacity="0.36" d="M280.69 161.976C281.713 162.567 283.373 162.567 284.396 161.976C285.419 161.385 285.419 160.427 284.396 159.836C283.373 159.245 281.713 159.245 280.69 159.836C279.666 160.427 279.666 161.385 280.69 161.976Z" fill="#FFCC85"/>
<path d="M190.376 145.525C192.957 147.015 197.141 147.015 199.721 145.525C202.302 144.035 202.302 141.619 199.721 140.129C197.14 138.639 192.956 138.639 190.376 140.129C187.795 141.62 187.795 144.035 190.376 145.525Z" fill="#FFAD10"/>
<path opacity="0.64" d="M200.027 125.505C199.259 124.381 197.798 123.04 195.049 123.04C192.3 123.04 190.843 124.384 190.071 125.505C189.655 126.11 188.441 127.519 188.441 128.434V142.827C188.441 143.803 189.086 144.78 190.376 145.525C192.957 147.015 197.141 147.015 199.721 145.525C201.011 144.78 201.657 143.803 201.657 142.827V128.434C201.657 127.519 200.392 126.04 200.027 125.505Z" fill="#FFCC85"/>
<path d="M199.721 141.71C197.14 143.2 192.956 143.2 190.376 141.71C189.086 140.965 188.441 139.989 188.441 139.012V130.008C188.448 130.009 188.454 130.009 188.46 130.01C188.54 130.919 189.173 131.815 190.376 132.509C192.957 133.999 197.141 133.999 199.721 132.509C200.92 131.817 201.555 130.924 201.639 130.018H201.656V139.013C201.656 139.989 201.011 140.965 199.721 141.71Z" fill="#BBB8CE"/>
<path d="M191.833 125.026C193.609 126.051 196.488 126.051 198.264 125.026C200.04 124.001 200.04 122.338 198.264 121.313C196.488 120.288 193.609 120.288 191.833 121.313C190.057 122.338 190.057 124 191.833 125.026Z" fill="#380200"/>
<path d="M190.501 123.169H199.596V120.701H190.501V123.169Z" fill="#380200"/>
<path d="M191.833 122.557C193.609 123.582 196.488 123.582 198.264 122.557C200.04 121.532 200.04 119.869 198.264 118.844C196.488 117.819 193.609 117.819 191.833 118.844C190.057 119.869 190.057 121.532 191.833 122.557Z" fill="#736374"/>
<path opacity="0.36" d="M193.344 121.527C194.285 122.07 195.811 122.07 196.752 121.527C197.693 120.984 197.693 120.103 196.752 119.559C195.811 119.016 194.285 119.016 193.344 119.559C192.403 120.103 192.403 120.984 193.344 121.527Z" fill="#FFCC85"/>
<path d="M250.657 147.828L268.759 157.639L274.977 154.185L257.309 144.28L250.657 147.828Z" fill="#0084DA"/>
<path d="M268.759 157.639V171.248L274.977 167.618V154.185L268.759 157.639Z" fill="#0084DA"/>
<path d="M274.977 157.313V163.185L268.759 166.64V160.767L274.977 157.313Z" fill="#BBB8CE"/>
<path d="M250.657 147.828L268.759 157.639V171.248L250.657 160.965V147.828Z" fill="#B9EAF0"/>
<path d="M268.759 160.771V166.628L250.657 156.817V150.96L268.759 160.771Z" fill="#EBEAF0"/>
<path d="M240.384 153.504L258.486 163.315L264.704 159.86L247.036 149.955L240.384 153.504Z" fill="#0084DA"/>
<path d="M258.486 163.315V176.923L264.704 173.294V159.86L258.486 163.315Z" fill="#0084DA"/>
<path d="M264.704 162.988V168.86L258.486 172.315V166.443L264.704 162.988Z" fill="#BBB8CE"/>
<path d="M240.384 153.504L258.486 163.315V176.923L240.384 166.641V153.504Z" fill="#B9EAF0"/>
<path d="M258.486 166.446V172.304L240.384 162.493V156.635L258.486 166.446Z" fill="#EBEAF0"/>
<path d="M230.111 159.179L248.213 168.99L254.432 165.535L236.763 155.631L230.111 159.179Z" fill="#0084DA"/>
<path d="M248.213 168.99V182.598L254.432 178.969V165.535L248.213 168.99Z" fill="#0084DA"/>
<path d="M254.432 168.663V174.536L248.213 177.99V172.118L254.432 168.663Z" fill="#BBB8CE"/>
<path d="M230.111 159.179L248.213 168.99V182.598L230.111 172.316V159.179Z" fill="#B9EAF0"/>
<path d="M248.213 172.121V177.979L230.111 168.168V162.31L248.213 172.121Z" fill="#EBEAF0"/>
<path d="M254.272 172.957L272.375 182.768L278.593 179.314L260.925 169.409L254.272 172.957Z" fill="#0084DA"/>
<path d="M272.375 182.768V196.376L278.593 192.747V179.314L272.375 182.768Z" fill="#0084DA"/>
<path d="M278.593 182.442V188.314L272.375 191.769V185.896L278.593 182.442Z" fill="#BBB8CE"/>
<path d="M254.272 172.957L272.375 182.768V196.376L254.272 186.094V172.957Z" fill="#B9EAF0"/>
<path d="M272.375 185.9V191.757L254.272 181.946V176.088L272.375 185.9Z" fill="#EBEAF0"/>
<path d="M391.241 300.653L359.414 319.14L293.12 280.155L325.273 262.805L391.241 300.653Z" fill="url(#paint2_linear_64_6)"/>
<path d="M391.241 108.639V300.653L325.273 262.805V70.7909L391.241 108.639Z" fill="#9593B5"/>
<path d="M391.241 300.653L397.679 297.056V105.332L391.241 108.639V300.653Z" fill="#BBB8CE"/>
<path d="M397.679 105.332L332.15 67.3929L325.273 70.7909L391.241 108.639L397.679 105.332Z" fill="#EBEAF0"/>
<path d="M391.241 142.883L361.923 159.471L296.102 121.397L325.42 104.809L391.241 142.883Z" fill="#EBEAF0"/>
<path d="M361.923 159.471V167.186L391.241 150.598V142.883L361.923 159.471Z" fill="#9593B5"/>
<path d="M361.923 167.186L296.102 128.402V121.397L361.923 159.471V167.186Z" fill="#BBB8CE"/>
<path d="M317.232 84.535L335.334 94.346L341.553 90.891L323.884 80.986L317.232 84.535Z" fill="#FF5746"/>
<path d="M335.334 94.346V122.469L341.553 118.84V90.891L335.334 94.346Z" fill="#EC9227"/>
<path d="M341.553 95.7369V106.215L335.334 109.669V99.1909L341.553 95.7369Z" fill="#BBB8CE"/>
<path d="M317.232 84.5349L335.334 94.3459V122.469L317.232 112.186V84.5349Z" fill="#EC9227"/>
<path d="M335.334 99.1949V109.658L317.232 99.8469V89.3839L335.334 99.1949Z" fill="#EBEAF0"/>
<path d="M305.805 94.0219L323.907 103.833L330.125 100.378L312.457 90.4729L305.805 94.0219Z" fill="#FF5746"/>
<path d="M323.907 103.833V131.955L330.125 128.327V100.378L323.907 103.833Z" fill="#EC9227"/>
<path d="M330.125 105.224V115.701L323.907 119.156V108.678L330.125 105.224Z" fill="#BBB8CE"/>
<path d="M305.805 94.0219L323.907 103.833V131.955L305.805 121.673V94.0219Z" fill="#EC9227"/>
<path d="M323.907 108.682V119.145L305.805 109.334V98.8699L323.907 108.682Z" fill="#EBEAF0"/>
<path d="M345.389 128.783C347.97 130.273 352.154 130.273 354.734 128.783C357.315 127.293 357.315 124.877 354.734 123.387C352.153 121.897 347.969 121.897 345.389 123.387C342.809 124.877 342.809 127.293 345.389 128.783Z" fill="#FFAD10"/>
<path opacity="0.64" d="M343.454 111.692H356.67V126.085C356.67 127.062 356.025 128.038 354.735 128.783C352.154 130.273 347.97 130.273 345.39 128.783C344.1 128.038 343.455 127.062 343.455 126.085L343.454 111.692Z" fill="#FFCC85"/>
<path d="M354.735 124.968C352.154 126.458 347.97 126.458 345.39 124.968C344.1 124.223 343.455 123.247 343.455 122.27V113.266C343.461 113.267 343.468 113.267 343.474 113.268C343.554 114.177 344.187 115.073 345.39 115.767C347.971 117.257 352.155 117.257 354.735 115.767C355.934 115.075 356.569 114.182 356.653 113.276H356.67V122.271C356.67 123.247 356.025 124.223 354.735 124.968Z" fill="#FF5746"/>
<path d="M345.389 114.39C347.97 115.88 352.154 115.88 354.734 114.39C357.315 112.9 357.315 110.484 354.734 108.994C352.153 107.504 347.969 107.504 345.389 108.994C342.809 110.484 342.809 112.9 345.389 114.39Z" fill="#FFAD10"/>
<path d="M345.389 109.684C347.97 111.174 352.154 111.174 354.734 109.684C357.315 108.194 357.315 105.778 354.734 104.288C352.153 102.798 347.969 102.798 345.389 104.288C342.809 105.778 342.809 108.194 345.389 109.684Z" fill="#380200"/>
<path d="M343.454 106.987H356.67V103.4H343.454V106.987Z" fill="#380200"/>
<path d="M345.389 106.097C347.97 107.587 352.154 107.587 354.734 106.097C357.315 104.607 357.315 102.191 354.734 100.701C352.153 99.211 347.969 99.211 345.389 100.701C342.809 102.192 342.809 104.607 345.389 106.097Z" fill="#736374"/>
<path opacity="0.36" d="M347.586 104.601C348.954 105.391 351.171 105.391 352.538 104.601C353.906 103.812 353.906 102.531 352.538 101.742C351.171 100.953 348.953 100.953 347.586 101.742C346.218 102.531 346.218 103.811 347.586 104.601Z" fill="#FFCC85"/>
<path d="M330.823 137.208C333.404 138.698 337.588 138.698 340.168 137.208C342.749 135.718 342.749 133.302 340.168 131.813C337.587 130.323 333.403 130.323 330.823 131.813C328.243 133.302 328.243 135.718 330.823 137.208Z" fill="#FFAD10"/>
<path opacity="0.64" d="M328.888 120.117H342.104V134.51C342.104 135.487 341.459 136.463 340.168 137.208C337.587 138.698 333.403 138.698 330.823 137.208C329.533 136.463 328.888 135.487 328.888 134.51V120.117Z" fill="#FFCC85"/>
<path d="M340.169 133.393C337.588 134.883 333.404 134.883 330.824 133.393C329.534 132.648 328.889 131.672 328.889 130.695V121.691C328.896 121.692 328.902 121.692 328.908 121.693C328.988 122.602 329.621 123.498 330.824 124.192C333.405 125.682 337.589 125.682 340.169 124.192C341.368 123.5 342.003 122.607 342.087 121.701H342.104V130.696C342.104 131.672 341.459 132.648 340.169 133.393Z" fill="#FF5746"/>
<path d="M330.823 122.815C333.404 124.305 337.588 124.305 340.168 122.815C342.749 121.325 342.749 118.909 340.168 117.419C337.587 115.929 333.403 115.929 330.823 117.419C328.243 118.909 328.243 121.325 330.823 122.815Z" fill="#FFAD10"/>
<path d="M330.823 118.109C333.404 119.599 337.588 119.599 340.168 118.109C342.749 116.619 342.749 114.203 340.168 112.713C337.587 111.223 333.403 111.223 330.823 112.713C328.243 114.203 328.243 116.619 330.823 118.109Z" fill="#380200"/>
<path d="M328.888 115.411H342.104V111.824H328.888V115.411Z" fill="#380200"/>
<path d="M330.823 114.522C333.404 116.012 337.588 116.012 340.168 114.522C342.749 113.032 342.749 110.616 340.168 109.126C337.587 107.636 333.403 107.636 330.823 109.126C328.243 110.616 328.243 113.032 330.823 114.522Z" fill="#736374"/>
<path opacity="0.36" d="M333.02 113.025C334.388 113.815 336.605 113.815 337.972 113.025C339.34 112.235 339.34 110.955 337.972 110.166C336.605 109.376 334.387 109.376 333.02 110.166C331.652 110.956 331.652 112.236 333.02 113.025Z" fill="#FFCC85"/>
<path d="M364.49 140.538C367.071 142.028 371.255 142.028 373.835 140.538C376.416 139.048 376.416 136.632 373.835 135.143C371.254 133.653 367.07 133.653 364.49 135.143C361.91 136.633 361.909 139.048 364.49 140.538Z" fill="#FFAD10"/>
<path d="M362.555 123.447H375.771V137.84C375.771 138.817 375.126 139.793 373.835 140.538C371.254 142.028 367.07 142.028 364.49 140.538C363.2 139.793 362.555 138.817 362.555 137.84V123.447Z" fill="#B9EAF0"/>
<path d="M373.835 136.722C371.254 138.212 367.07 138.212 364.49 136.722C363.2 135.977 362.555 135.001 362.555 134.024V125.02C362.562 125.02 362.568 125.021 362.574 125.022C362.654 125.931 363.287 126.827 364.49 127.521C367.071 129.011 371.255 129.011 373.835 127.521C375.034 126.829 375.669 125.936 375.753 125.03H375.77V134.025C375.77 135.002 375.125 135.978 373.835 136.722Z" fill="#0084DA"/>
<path d="M364.49 126.144C367.071 127.634 371.255 127.634 373.835 126.144C376.416 124.654 376.416 122.238 373.835 120.748C371.254 119.258 367.07 119.258 364.49 120.748C361.909 122.239 361.909 124.654 364.49 126.144Z" fill="#0084DA"/>
<path d="M364.49 121.439C367.071 122.929 371.255 122.929 373.835 121.439C376.416 119.949 376.416 117.533 373.835 116.043C371.254 114.553 367.07 114.553 364.49 116.043C361.909 117.533 361.909 119.949 364.49 121.439Z" fill="#380200"/>
<path d="M362.555 118.741H375.771V115.154H362.555V118.741Z" fill="#380200"/>
<path d="M364.49 117.852C367.071 119.342 371.255 119.342 373.835 117.852C376.416 116.362 376.416 113.946 373.835 112.456C371.254 110.966 367.07 110.966 364.49 112.456C361.909 113.946 361.909 116.362 364.49 117.852Z" fill="#736374"/>
<path opacity="0.36" d="M366.686 116.355C368.054 117.145 370.271 117.145 371.638 116.355C373.006 115.565 373.006 114.285 371.638 113.496C370.271 112.706 368.053 112.706 366.686 113.496C365.319 114.286 365.319 115.566 366.686 116.355Z" fill="#FFCC85"/>
<path d="M349.924 148.963C352.505 150.453 356.689 150.453 359.269 148.963C361.85 147.473 361.85 145.057 359.269 143.567C356.688 142.077 352.504 142.077 349.924 143.567C347.343 145.057 347.343 147.473 349.924 148.963Z" fill="#FFAD10"/>
<path d="M347.988 131.871H361.204V146.264C361.204 147.241 360.559 148.217 359.268 148.962C356.687 150.452 352.503 150.452 349.923 148.962C348.633 148.217 347.987 147.241 347.987 146.264V131.871H347.988Z" fill="#B9EAF0"/>
<path d="M359.269 145.147C356.688 146.637 352.504 146.637 349.924 145.147C348.634 144.402 347.988 143.426 347.988 142.449V133.445C347.995 133.446 348.001 133.447 348.007 133.447C348.087 134.356 348.72 135.252 349.923 135.946C352.504 137.436 356.688 137.436 359.268 135.946C360.467 135.254 361.102 134.361 361.186 133.455H361.203V142.45C361.204 143.427 360.559 144.403 359.269 145.147Z" fill="#0084DA"/>
<path d="M349.924 134.569C352.505 136.059 356.689 136.059 359.269 134.569C361.85 133.079 361.85 130.663 359.269 129.173C356.688 127.683 352.504 127.683 349.924 129.173C347.343 130.664 347.343 133.079 349.924 134.569Z" fill="#0084DA"/>
<path d="M349.924 129.863C352.505 131.353 356.689 131.353 359.269 129.863C361.85 128.373 361.85 125.957 359.269 124.467C356.688 122.977 352.504 122.977 349.924 124.467C347.343 125.958 347.343 128.373 349.924 129.863Z" fill="#380200"/>
<path d="M347.99 127.165H361.206V123.578H347.99V127.165Z" fill="#380200"/>
<path d="M349.924 126.277C352.505 127.767 356.689 127.767 359.269 126.277C361.85 124.787 361.85 122.371 359.269 120.882C356.688 119.392 352.504 119.392 349.924 120.882C347.343 122.371 347.343 124.787 349.924 126.277Z" fill="#736374"/>
<path opacity="0.36" d="M352.12 124.78C353.488 125.57 355.705 125.57 357.072 124.78C358.44 123.99 358.44 122.71 357.072 121.921C355.705 121.132 353.487 121.132 352.12 121.921C350.753 122.71 350.753 123.99 352.12 124.78Z" fill="#FFCC85"/>
<path d="M391.241 231.577L361.923 248.165L296.102 210.091L325.42 193.503L391.241 231.577Z" fill="#EBEAF0"/>
<path d="M361.923 248.165V255.88L391.241 239.292V231.577L361.923 248.165Z" fill="#9593B5"/>
<path d="M361.923 255.88L296.102 217.095V210.091L361.923 248.165V255.88Z" fill="#BBB8CE"/>
<path d="M317.997 174.179L336.099 183.99L342.318 180.535L324.649 170.63L317.997 174.179Z" fill="#FF5746"/>
<path d="M336.099 183.99V212.112L342.318 208.483V180.535L336.099 183.99Z" fill="#EC9227"/>
<path d="M342.318 185.38V195.858L336.099 199.313V188.835L342.318 185.38Z" fill="#BBB8CE"/>
<path d="M317.997 174.179L336.099 183.99V212.112L317.997 201.83V174.179Z" fill="#EC9227"/>
<path d="M336.099 188.838V199.301L317.997 189.49V179.027L336.099 188.838Z" fill="#EBEAF0"/>
<path d="M306.569 183.666L324.672 193.477L330.89 190.022L313.222 180.117L306.569 183.666Z" fill="#FF5746"/>
<path d="M324.672 193.477V221.599L330.89 217.97V190.022L324.672 193.477Z" fill="#EC9227"/>
<path d="M330.89 194.867V205.345L324.672 208.8V198.322L330.89 194.867Z" fill="#BBB8CE"/>
<path d="M306.569 183.666L324.672 193.477V221.599L306.569 211.317V183.666Z" fill="#EC9227"/>
<path d="M324.672 198.325V208.788L306.569 198.977V188.514L324.672 198.325Z" fill="#EBEAF0"/>
<path d="M346.154 218.427C348.735 219.917 352.919 219.917 355.499 218.427C358.08 216.937 358.08 214.521 355.499 213.031C352.918 211.541 348.734 211.541 346.154 213.031C343.574 214.521 343.574 216.937 346.154 218.427Z" fill="#FFAD10"/>
<path opacity="0.64" d="M344.219 201.336H357.435V215.729C357.435 216.706 356.79 217.682 355.499 218.427C352.918 219.917 348.734 219.917 346.154 218.427C344.864 217.682 344.219 216.706 344.219 215.729V201.336Z" fill="#FFCC85"/>
<path d="M355.5 214.612C352.919 216.102 348.735 216.102 346.155 214.612C344.865 213.867 344.22 212.891 344.22 211.914V202.91C344.227 202.91 344.233 202.911 344.239 202.912C344.319 203.821 344.952 204.717 346.155 205.411C348.736 206.901 352.92 206.901 355.5 205.411C356.699 204.719 357.334 203.826 357.418 202.92H357.435V211.915C357.435 212.891 356.79 213.867 355.5 214.612Z" fill="#FF5746"/>
<path d="M346.154 204.034C348.735 205.524 352.919 205.524 355.499 204.034C358.08 202.544 358.08 200.128 355.499 198.638C352.918 197.148 348.734 197.148 346.154 198.638C343.574 200.128 343.574 202.543 346.154 204.034Z" fill="#FFAD10"/>
<path d="M346.154 199.328C348.735 200.818 352.919 200.818 355.499 199.328C358.08 197.838 358.08 195.422 355.499 193.932C352.918 192.442 348.734 192.442 346.154 193.932C343.574 195.422 343.574 197.838 346.154 199.328Z" fill="#380200"/>
<path d="M344.219 196.63H357.435V193.043H344.219V196.63Z" fill="#380200"/>
<path d="M346.154 195.741C348.735 197.231 352.919 197.231 355.499 195.741C358.08 194.251 358.08 191.835 355.499 190.346C352.918 188.856 348.734 188.856 346.154 190.346C343.574 191.835 343.574 194.251 346.154 195.741Z" fill="#736374"/>
<path opacity="0.36" d="M348.351 194.244C349.719 195.034 351.936 195.034 353.303 194.244C354.671 193.454 354.671 192.174 353.303 191.385C351.936 190.595 349.718 190.595 348.351 191.385C346.983 192.175 346.983 193.455 348.351 194.244Z" fill="#FFCC85"/>
<path d="M331.588 226.852C334.169 228.342 338.353 228.342 340.933 226.852C343.514 225.362 343.514 222.946 340.933 221.457C338.352 219.967 334.168 219.967 331.588 221.457C329.008 222.946 329.008 225.362 331.588 226.852Z" fill="#FFAD10"/>
<path opacity="0.64" d="M329.653 209.761H342.869V224.154C342.869 225.131 342.224 226.107 340.933 226.852C338.352 228.342 334.168 228.342 331.588 226.852C330.298 226.107 329.653 225.131 329.653 224.154V209.761Z" fill="#FFCC85"/>
<path d="M340.934 223.036C338.353 224.526 334.169 224.526 331.589 223.036C330.299 222.291 329.654 221.315 329.654 220.338V211.334C329.661 211.335 329.667 211.336 329.673 211.336C329.753 212.245 330.386 213.141 331.589 213.835C334.17 215.325 338.354 215.325 340.934 213.835C342.133 213.143 342.768 212.25 342.852 211.344H342.869V220.339C342.869 221.316 342.224 222.292 340.934 223.036Z" fill="#FF5746"/>
<path d="M331.588 212.458C334.169 213.948 338.353 213.948 340.933 212.458C343.514 210.968 343.514 208.552 340.933 207.062C338.352 205.572 334.168 205.572 331.588 207.062C329.008 208.553 329.008 210.968 331.588 212.458Z" fill="#FFAD10"/>
<path d="M331.588 207.752C334.169 209.242 338.353 209.242 340.933 207.752C343.514 206.262 343.514 203.846 340.933 202.356C338.352 200.866 334.168 200.866 331.588 202.356C329.008 203.847 329.008 206.263 331.588 207.752Z" fill="#380200"/>
<path d="M329.653 205.055H342.869V201.468H329.653V205.055Z" fill="#380200"/>
<path d="M331.588 204.166C334.169 205.656 338.353 205.656 340.933 204.166C343.514 202.676 343.514 200.26 340.933 198.771C338.352 197.281 334.168 197.281 331.588 198.771C329.008 200.26 329.008 202.676 331.588 204.166Z" fill="#736374"/>
<path opacity="0.36" d="M333.785 202.669C335.153 203.459 337.37 203.459 338.737 202.669C340.105 201.879 340.105 200.599 338.737 199.81C337.369 199.021 335.152 199.021 333.785 199.81C332.417 200.599 332.417 201.879 333.785 202.669Z" fill="#FFCC85"/>
<path d="M365.255 230.182C367.836 231.672 372.02 231.672 374.6 230.182C377.181 228.692 377.181 226.276 374.6 224.787C372.019 223.297 367.835 223.297 365.255 224.787C362.674 226.276 362.674 228.691 365.255 230.182Z" fill="#FFAD10"/>
<path d="M363.319 213.09H376.535V227.483C376.535 228.46 375.89 229.436 374.599 230.181C372.018 231.671 367.834 231.671 365.254 230.181C363.964 229.436 363.319 228.46 363.319 227.483V213.09Z" fill="#B9EAF0"/>
<path d="M374.6 226.366C372.019 227.856 367.835 227.856 365.255 226.366C363.965 225.621 363.32 224.645 363.32 223.668V214.664C363.327 214.665 363.333 214.665 363.339 214.666C363.419 215.575 364.052 216.471 365.255 217.165C367.836 218.655 372.02 218.655 374.6 217.165C375.799 216.473 376.434 215.58 376.518 214.674H376.535V223.669C376.535 224.646 375.89 225.622 374.6 226.366Z" fill="#0084DA"/>
<path d="M365.255 215.788C367.836 217.278 372.02 217.278 374.6 215.788C377.181 214.298 377.181 211.882 374.6 210.392C372.019 208.902 367.835 208.902 365.255 210.392C362.674 211.883 362.674 214.298 365.255 215.788Z" fill="#0084DA"/>
<path d="M365.255 211.082C367.836 212.572 372.02 212.572 374.6 211.082C377.181 209.592 377.181 207.176 374.6 205.686C372.019 204.196 367.835 204.196 365.255 205.686C362.674 207.177 362.674 209.592 365.255 211.082Z" fill="#380200"/>
<path d="M363.32 208.384H376.536V204.797H363.32V208.384Z" fill="#380200"/>
<path d="M365.255 207.495C367.836 208.985 372.02 208.985 374.6 207.495C377.181 206.005 377.181 203.589 374.6 202.099C372.019 200.609 367.835 200.609 365.255 202.099C362.674 203.59 362.674 206.006 365.255 207.495Z" fill="#736374"/>
<path opacity="0.36" d="M367.451 205.999C368.819 206.789 371.036 206.789 372.403 205.999C373.771 205.209 373.771 203.929 372.403 203.14C371.036 202.351 368.818 202.351 367.451 203.14C366.084 203.929 366.084 205.209 367.451 205.999Z" fill="#FFCC85"/>
<path d="M350.689 238.606C353.27 240.096 357.454 240.096 360.034 238.606C362.615 237.116 362.615 234.7 360.034 233.21C357.453 231.72 353.269 231.72 350.689 233.21C348.108 234.701 348.108 237.116 350.689 238.606Z" fill="#FFAD10"/>
<path d="M348.753 221.515H361.969V235.908C361.969 236.885 361.324 237.861 360.034 238.606C357.453 240.096 353.269 240.096 350.689 238.606C349.399 237.861 348.753 236.885 348.753 235.908V221.515Z" fill="#B9EAF0"/>
<path d="M360.034 234.791C357.453 236.281 353.269 236.281 350.689 234.791C349.399 234.046 348.753 233.07 348.753 232.093V223.089C348.76 223.09 348.766 223.091 348.772 223.091C348.852 224 349.485 224.896 350.688 225.59C353.269 227.08 357.453 227.08 360.033 225.59C361.232 224.898 361.867 224.005 361.951 223.099H361.968V232.094C361.969 233.07 361.324 234.046 360.034 234.791Z" fill="#0084DA"/>
<path d="M350.689 224.213C353.27 225.703 357.454 225.703 360.034 224.213C362.615 222.723 362.615 220.307 360.034 218.817C357.453 217.327 353.269 217.327 350.689 218.817C348.108 220.307 348.108 222.723 350.689 224.213Z" fill="#0084DA"/>
<path d="M350.689 219.507C353.27 220.997 357.454 220.997 360.034 219.507C362.615 218.017 362.615 215.601 360.034 214.111C357.453 212.621 353.269 212.621 350.689 214.111C348.108 215.601 348.108 218.017 350.689 219.507Z" fill="#380200"/>
<path d="M348.754 216.81H361.97V213.223H348.754V216.81Z" fill="#380200"/>
<path d="M350.689 215.92C353.27 217.41 357.454 217.41 360.034 215.92C362.615 214.43 362.615 212.014 360.034 210.525C357.453 209.035 353.269 209.035 350.689 210.525C348.108 212.015 348.108 214.43 350.689 215.92Z" fill="#736374"/>
<path opacity="0.36" d="M352.885 214.424C354.253 215.214 356.47 215.214 357.837 214.424C359.205 213.634 359.205 212.354 357.837 211.565C356.469 210.775 354.252 210.775 352.885 211.565C351.518 212.354 351.518 213.634 352.885 214.424Z" fill="#FFCC85"/>
<path d="M192.186 295.949C191.178 309.906 207.621 324.696 228.912 328.983C250.203 333.27 268.28 325.43 269.288 311.473C270.296 297.516 253.853 282.726 232.562 278.439C211.27 274.152 193.193 281.992 192.186 295.949Z" fill="url(#paint3_linear_64_6)"/>
<path d="M203.126 198.599C203.126 198.599 215.056 207.378 248.822 204.652L238.161 140.303L210.242 139.226C210.242 139.226 215.302 177.867 203.126 198.599Z" fill="#B9EAF0"/>
<path d="M222.635 276.976H214.376C214.376 280.792 213.86 283.438 213.825 284.328C213.714 287.181 210.076 291.101 208.73 292.357C208.951 301.794 223.914 288.325 223.914 288.325C224.419 285.827 223.46 282.827 223.019 281.208C222.762 280.146 222.649 278.692 222.635 276.976Z" fill="#E69095"/>
<path d="M225.186 282.828C225.186 282.828 224.361 281.997 223.543 283.155C223.543 283.155 223.987 285.575 223.78 285.902C223.191 286.833 220.307 288.63 218.404 289.04C217.637 289.205 217.323 289.106 216.781 288.27C216.781 288.27 217.258 286.362 215.446 284.931C213.634 283.5 212.775 285.313 212.775 285.313C212.775 285.313 212.548 288.979 207.216 292.359C201.727 295.839 197.951 297.489 199.885 300.387C200.958 301.995 206.246 303.298 208.55 302.622C210.25 302.123 212.689 301.08 216.988 298.506C221.036 296.083 226.514 292.533 226.599 291.003C226.712 288.954 226.651 283.178 225.186 282.828Z" fill="#002A32"/>
<path d="M226.273 282.903C221.827 287.049 214.389 285.54 210.65 283.612C210.65 275.604 209.702 242.41 210.13 236.377C209.158 204.825 213.616 166.648 213.629 171.171C213.629 171.171 238.164 156.439 239.129 178.056C239.83 193.772 235.034 221.029 231.933 237.423C230.488 245.062 231.389 251.219 231.285 253.101C230.3 271.014 226.246 282.782 226.273 282.903Z" fill="#5C4556"/>
<path d="M224.613 275.344C225.189 261.181 223.846 247.043 223.703 232.888C223.58 220.707 226.454 208.376 224.83 196.257C223.633 187.32 223.701 178.086 217.321 172.06C217.364 170.615 238.163 156.439 239.128 178.055C239.829 193.771 235.033 221.028 231.932 237.422C230.487 245.062 231.388 251.218 231.284 253.1C230.299 271.013 226.245 282.78 226.272 282.902C225.258 283.847 224.236 284.343 223.151 284.809C223.949 281.664 224.479 278.642 224.613 275.344Z" fill="#3D283C"/>
<path d="M254.117 292.419C254.117 292.419 254.981 292.995 254.981 300.487C254.981 307.979 257.135 310.592 255.749 314.51C254.483 318.09 253.348 319.601 249.602 319.601C245.856 319.601 242.783 316.431 242.687 312.301C242.591 308.171 244.224 306.442 244.992 301.159C245.76 295.876 244.608 293.187 246.529 291.65C248.45 290.113 253.47 289.707 254.117 292.419Z" fill="#002A32"/>
<path d="M252.962 294.321C252.963 294.403 252.962 300.386 252.962 300.386H252.214C252.086 299.766 251.486 299.312 250.03 299.29C247.581 299.253 247.346 300.386 247.346 300.386H246.665C246.665 300.386 246.765 295.93 247.138 293.974C247.51 292.018 252.94 291.521 252.962 294.321Z" fill="#E69095"/>
<path d="M256.574 292.355C252.539 297.312 244.744 297.184 240.573 295.713C239.399 291.434 238.817 263.478 236.494 251.619C234.118 241.376 227.352 177.806 227.352 177.806C227.352 177.806 250.788 158.939 254.898 181.313C257.886 197.58 256.808 226.656 255.934 244.175C255.527 252.339 257.349 258.621 257.512 260.597C259.059 279.393 256.528 292.232 256.574 292.355Z" fill="#5C4556"/>
<path d="M252.654 278.311C252.353 267.034 252.676 255.695 250.721 244.535C248.695 232.971 246.366 220.066 235.838 215.063C224.733 209.787 230.859 188.105 230.938 175.687C230.939 175.556 230.922 175.437 230.904 175.319C237.619 171.064 251.789 164.386 254.899 181.314C257.887 197.581 256.809 226.657 255.935 244.176C255.527 252.34 257.35 258.622 257.513 260.598C259.06 279.395 256.529 292.233 256.575 292.356C255.611 293.54 254.545 294.423 253.427 295.073C253.357 289.481 252.801 283.852 252.654 278.311Z" fill="#3D283C"/>
<path d="M191.72 161.4C192.725 165.098 192.239 168.523 190.348 169.037C188.457 169.551 185.877 166.96 184.872 163.262C183.866 159.564 184.27 156.309 186.161 155.795C188.052 155.281 190.714 157.702 191.72 161.4Z" fill="#B9EAF0"/>
<path d="M191.703 163.627C192.837 162.944 195.949 162.079 195.96 160.815C195.98 158.723 194.462 157.582 193.932 155.757C192.63 155.473 192.205 155.397 190.748 155.978C190.554 156.055 188.006 157.485 187.723 157.534C185.534 157.911 184.018 157.732 182.162 158.703C181.042 159.289 180.059 160.414 178.937 161.067C177.573 161.861 175.559 163.476 175.566 165.012C175.573 166.548 176.588 167.695 177.213 168.742C178.489 170.879 180.045 170.969 184.547 169.295C185.737 168.852 189.314 165.557 190.604 164.361C190.958 164.032 191.521 163.737 191.703 163.627Z" fill="#E69095"/>
<path d="M176.197 157.812C176.798 157.383 177.498 156.97 178.357 156.744C179.212 156.513 180.164 156.533 180.969 156.695C181.783 156.854 182.482 157.106 183.134 157.354L184.997 158.111C186.038 158.534 186.54 159.722 186.116 160.763C185.693 161.805 184.505 162.306 183.464 161.882C183.337 161.83 183.217 161.767 183.107 161.694L183.077 161.674C182.012 160.961 180.966 160.221 180.099 159.846C179.664 159.662 179.3 159.569 178.884 159.575C178.47 159.582 177.982 159.724 177.476 159.949L177.428 159.97C176.797 160.25 176.059 159.965 175.78 159.335C175.535 158.784 175.723 158.149 176.197 157.812Z" fill="#E69095"/>
<path d="M179.539 164.951C178.76 165.507 177.872 165.901 176.919 166.078C175.972 166.256 174.928 166.205 173.955 165.79C172.979 165.389 172.16 164.562 171.761 163.655C171.348 162.746 171.272 161.83 171.301 160.987C171.322 160.368 171.841 159.883 172.46 159.904C173.027 159.923 173.482 160.361 173.537 160.91L173.545 160.986C173.605 161.575 173.753 162.114 174.001 162.487C174.249 162.862 174.562 163.063 174.937 163.158C175.692 163.365 176.755 162.988 177.438 162.312C178.103 161.653 179.176 161.658 179.835 162.323C180.494 162.988 180.489 164.061 179.824 164.72C179.761 164.783 179.694 164.839 179.624 164.89L179.539 164.951Z" fill="#E69095"/>
<path d="M179.831 167.828C179.248 168.026 178.643 168.253 177.967 168.467C177.285 168.666 176.544 168.916 175.495 168.858C174.961 168.793 174.336 168.626 173.876 168.222C173.618 168.045 173.482 167.824 173.299 167.614C173.156 167.404 173.054 167.195 172.942 166.982C172.596 166.159 172.529 165.439 172.453 164.73C172.387 164.115 172.832 163.562 173.447 163.495C174.01 163.434 174.52 163.801 174.654 164.334L174.675 164.418C174.813 164.962 174.978 165.512 175.196 165.842L175.348 166.019C175.397 166.025 175.426 166.098 175.455 166.073C175.488 166.096 175.526 166.044 175.615 166.052C175.851 166.014 176.344 165.838 176.847 165.586L178.504 164.727C179.332 164.295 180.354 164.616 180.786 165.444C181.218 166.272 180.897 167.294 180.069 167.726C179.996 167.765 179.907 167.802 179.831 167.828Z" fill="#E69095"/>
<path d="M180.217 170.377C179.461 170.623 178.621 170.909 177.432 170.709C176.825 170.572 176.168 170.231 175.758 169.703C175.365 169.199 175.17 168.653 175.099 168.203C174.942 167.277 175.052 166.525 175.183 165.807C175.321 165.092 175.538 164.439 175.76 163.793C175.962 163.207 176.6 162.895 177.187 163.096C177.72 163.279 178.026 163.823 177.927 164.361L177.917 164.412C177.809 164.998 177.708 165.585 177.687 166.138C177.662 166.683 177.704 167.227 177.83 167.549C177.883 167.724 177.97 167.771 177.978 167.76C177.982 167.732 177.935 167.656 177.947 167.661C178.036 167.634 178.463 167.517 178.877 167.282C179.691 166.818 180.727 167.102 181.191 167.917C181.655 168.731 181.371 169.767 180.557 170.231C180.458 170.288 180.355 170.333 180.251 170.368L180.217 170.377Z" fill="#E69095"/>
<path d="M186.094 168.249C185.388 168.74 184.671 169.215 183.835 169.571C183.002 169.922 182.094 170.218 180.999 170.195C180.465 170.193 179.841 170.05 179.267 169.731C178.678 169.392 178.222 168.817 177.996 168.227C177.582 167.031 177.838 166.055 178.088 165.216C178.265 164.622 178.889 164.285 179.482 164.461C180.04 164.627 180.373 165.19 180.263 165.75L180.249 165.819C180.13 166.418 180.162 167.023 180.322 167.242C180.403 167.339 180.454 167.36 180.532 167.382C180.631 167.39 180.761 167.425 180.979 167.386C181.394 167.335 181.939 167.115 182.451 166.807C182.973 166.505 183.469 166.075 183.95 165.644L183.999 165.6C184.695 164.977 185.764 165.036 186.387 165.732C187.01 166.428 186.951 167.497 186.255 168.12C186.206 168.165 186.147 168.212 186.094 168.249Z" fill="#E69095"/>
<path d="M190.348 169.037C193.293 165.649 190.542 156.048 186.16 155.795C186.594 155.732 202.784 145.72 207.035 142.664C209.062 141.206 210.982 139.937 212.969 138.837C221.199 138.57 216.751 150.811 216.737 151.108C214.623 152.247 192.292 168.584 190.348 169.037Z" fill="white"/>
<path d="M211.406 151.83C205.357 156.416 198.581 160.87 191.551 164.346C191.649 166.207 191.298 167.946 190.349 169.037C192.293 168.584 214.624 152.247 216.739 151.108C216.745 150.983 217.531 148.747 217.833 146.218C215.828 148.212 213.695 150.094 211.406 151.83Z" fill="#DDD9EB"/>
<path d="M219.534 101.924C219.534 101.924 209.119 104.933 207.462 112.119C205.847 119.32 205.69 125.732 206.013 130.443C206.336 135.153 205.876 147.972 205.876 147.972L212.402 144.24L216.163 115.518L219.534 101.924Z" fill="white"/>
<path d="M253.35 149.733C253.35 149.733 250.26 155.461 248.547 159.875C244.306 166.951 233.936 177.474 224.696 175.723C220.718 174.969 216.971 173.378 213.629 171.171C212.97 163.214 211.761 161.692 212.401 134.342C212.936 111.49 222.578 107.216 225.907 99.4009H229.455L246.236 106.881C246.236 106.881 249.852 110.304 253.302 113.348C256.305 115.997 257.799 119.963 257.281 123.935C256.031 133.522 253.35 149.733 253.35 149.733Z" fill="#0084DA"/>
<path d="M224.439 175.668C224.266 174.79 224.039 173.914 223.732 173.039C222.437 169.353 220.118 166.337 219.898 162.288C219.689 158.435 221.36 155.309 222.225 151.683C222.264 151.522 222.283 151.366 222.289 151.217C222.695 149.887 223.048 148.16 223.302 145.885C223.769 141.711 224.292 136.926 225.988 133.137C228.419 127.708 230.513 122.204 231.993 116.512C238.161 114.663 246.236 106.881 246.236 106.881C246.236 106.881 249.852 110.304 253.302 113.348C256.305 115.997 257.799 119.963 257.281 123.935C256.031 133.522 253.35 149.733 253.35 149.733C253.35 149.733 250.26 155.461 248.547 159.875C244.306 166.951 233.936 177.474 224.696 175.723C224.61 175.707 224.525 175.685 224.439 175.668Z" fill="#0090A8"/>
<path d="M229.667 116.553L226.988 120.646L223.037 119.25L223.232 114.739L226.466 113.124L229.667 116.553Z" fill="#FFAD10"/>
<path d="M226.988 120.646L222.911 172.889L218.119 177.375L215.091 170.646L223.037 119.25L226.988 120.646Z" fill="#FFAD10"/>
<path d="M229.23 97.9109C229.23 97.9109 229.252 102.579 229.265 102.649C219.405 118.891 238.123 119.267 241.39 104.946C238.761 100.217 239.692 89.3539 239.692 89.3539C239.692 88.8369 229.23 97.2929 229.23 97.9109Z" fill="#E69095"/>
<path d="M227.861 113.621L226.812 116.384L232.521 114.59L227.861 113.621Z" fill="#B9EAF0"/>
<path d="M239.715 98.1339C239.715 98.1339 241.317 98.1189 242.228 99.4039C244.336 102.006 244.071 103.895 244.071 104.099C244.071 104.517 240.893 107.758 239.389 109.919L234.562 119.761L227.862 113.622C227.862 113.622 238.779 106.832 239.715 98.1339Z" fill="#FFFFFE"/>
<path d="M226.812 116.384L227.861 113.622C227.861 113.622 227.178 108.789 229.265 102.65V100.077C229.265 100.077 226.821 100.85 225.896 101.561C225.896 101.561 222.084 105.736 221.877 109.491C221.67 113.246 220.979 116.554 220.979 116.554L224.149 113.383L226.812 116.384Z" fill="#FFFFFE"/>
<path d="M241.284 101.835C241.284 101.835 232.849 114.205 228.145 121.881C223.441 129.558 223.796 158.874 223.796 158.874L228.145 216.166C228.145 216.166 255.157 218.769 266.655 206.473C266.763 181.647 263.233 129.569 259.446 114.804C259.446 114.804 249.029 106.359 241.284 101.835Z" fill="white"/>
<path d="M259.366 114.739C258.169 118.715 248.798 129.69 248.822 136.866C248.862 148.804 250.36 167.458 251.508 184.331C252.238 195.05 249.603 204.832 247.419 215.32C254.479 214.095 261.895 211.562 266.655 206.473C266.763 181.647 263.233 129.569 259.446 114.804C259.446 114.804 259.415 114.779 259.366 114.739Z" fill="#DDD9EB"/>
<path d="M217.835 103C217.835 103 222.414 98.9638 228.146 97.9958C228.146 97.9958 215.208 119.181 213.814 129.492C212.421 139.802 212.97 211.139 212.97 211.139C212.97 211.139 206.092 205.705 203.126 198.599C203.126 198.599 206.745 145.615 207.911 133.791C209.077 121.968 214.532 117.37 215.636 111.936C216.74 106.502 217.835 103 217.835 103Z" fill="white"/>
<path d="M224.565 96.5949L219.162 101.835L216.738 110.97L217.735 114.226L214.385 115.448C214.385 115.448 208.477 135.215 212.97 166.27C212.97 166.27 212.398 136.748 217.735 119.897C221.857 106.881 229.913 95.6609 229.913 95.6609L224.565 96.5949Z" fill="#B9EAF0"/>
<path d="M263.419 188.603C263.419 193.643 262.663 193.741 261.485 198.491C260.184 198.491 256.694 196.577 255.098 191.796C253.998 188.5 253.317 182.829 255.885 182.047C258.165 181.354 263.419 183.563 263.419 188.603Z" fill="#B9EAF0"/>
<path d="M256.558 181.663C254.874 182.682 253.106 183.281 251.509 184.331C249.913 185.381 249.412 186.304 248.486 188.29C247.56 190.276 245.705 193.099 243.615 194.623C241.525 196.147 245.455 196.692 246.564 196.015C247.672 195.339 249.198 191.598 250.842 192.772C252.486 193.946 250.502 198.974 249.498 200.04C248.494 201.106 245.802 202.659 246.608 203.908C247.413 205.157 248.53 204.292 250.505 203.191C252.48 202.09 256.682 199.186 257.835 196.063C258.988 192.939 260.362 188.726 261.143 185.857C261.922 182.989 258.117 182.628 256.558 181.663Z" fill="#E69095"/>
<path d="M268.301 130.965C265.533 119.25 262.686 113.492 253.83 114.932C247.917 115.894 244.208 122.86 246.435 130.965C249.901 141.047 255.772 148.866 259.636 155.726C259.87 160.937 255.616 177.375 256.12 181.907C261.247 182.727 263.324 190.436 261.485 198.491C269.265 181.413 277.169 167.744 277.189 155.541C277.198 149.596 272.782 143.446 268.301 130.965Z" fill="white"/>
<path d="M277.189 155.542C277.199 149.597 272.782 143.446 268.301 130.966C266.693 124.163 265.051 119.385 262.229 116.843C263.675 120.569 264.546 124.592 265.252 128.223C266.545 134.87 273.1 153.394 273.071 156.605C273.032 160.973 269.041 166.978 267.814 171.138C266.141 176.815 264.075 182.543 261.552 188.016C262.338 190.976 262.352 194.691 261.484 198.493C269.265 181.414 277.169 167.745 277.189 155.542Z" fill="#DDD9EB"/>
<path d="M239.637 99.0109L239.602 96.5349L243.184 98.1999L244.145 103.032L246.435 105.117L238.162 117.507L231.809 119.418L233.28 124.151C233.28 124.151 224.935 144.296 224.38 166.55C224.38 166.55 220.975 150.105 226.274 123.679C226.274 123.679 232.253 108.35 239.637 99.0109Z" fill="#B9EAF0"/>
<path d="M225.541 99.8929C224.85 99.8279 224.222 99.476 223.805 98.922C222.804 97.593 221.706 95.719 221.012 93.937C219.938 91.179 220.166 90.348 219.981 86.778C218.062 75.25 221.632 70.8279 223.996 68.9779C229.19 64.9139 237.131 67.1559 239.383 69.1199C240.339 69.9539 241.153 70.8419 241.834 71.7709C241.829 71.8489 241.811 71.9189 241.811 72.0009V89.267C240.988 90.689 239.992 92.084 238.826 93.428C238.206 94.143 237.217 95.3829 235.985 96.6679C233.647 99.1069 230.32 100.347 226.957 100.028C226.435 99.9769 225.944 99.9309 225.541 99.8929Z" fill="#FFA0A6"/>
<path d="M223.559 64.9289C229.838 66.6689 234.87 65.6799 240.771 67.8219C245.731 69.6229 245.918 74.0449 243.623 83.8059C242.024 90.6039 241.244 92.6569 239.144 92.3299C239.335 91.0159 237.352 87.2939 237.273 87.3269C236.515 83.6189 235.854 79.7649 228.952 77.9219C224.974 76.8799 220.125 77.4839 219.436 79.3059C215.133 74.4929 215.609 62.7259 223.559 64.9289Z" fill="#002A32"/>
<path d="M235.573 87.4249C234.97 89.7519 235.594 91.9259 236.966 92.2809C238.338 92.6359 239.939 91.0379 240.541 88.7119C241.143 86.3849 240.52 84.2109 239.148 83.8559C237.776 83.4999 236.175 85.0979 235.573 87.4249Z" fill="#FFA0A6"/>
<path d="M234.87 79.3059L235.1 87.6029C235.1 87.6029 235.747 88.5499 236.93 88.2459C238.113 87.9419 238.67 81.0799 238.67 81.0799L234.87 79.3059Z" fill="#002A32"/>
<path d="M219.435 79.306C219.435 79.306 230.464 83.432 235.518 80.727C235.518 80.727 236.942 75.824 228.951 72.781C220.96 69.738 219.435 79.306 219.435 79.306Z" fill="#002A32"/>
<path d="M224.697 387.465L195.318 405.183L61.738 328.061L92.646 310.875L224.697 387.465Z" fill="url(#paint4_linear_64_6)"/>
<path d="M224.697 278.021V387.465L92.646 310.875V202.797L224.697 278.021Z" fill="#82C3EE"/>
<path d="M158.672 264.244V304.798L147.063 297.871V257.446L158.672 264.244Z" fill="#0084DA"/>
<path d="M135.267 264.385L170.507 284.407V297.908L135.267 277.756V264.385Z" fill="#0084DA"/>
<path d="M224.697 278.021L278.986 246.231V355.944L224.697 387.465V278.021Z" fill="#0084DA"/>
<path d="M278.986 246.231L145.317 169.683L92.646 202.797L224.697 278.021L278.986 246.231Z" fill="#AFDBF8"/>
<path d="M190.909 235.297L178.505 243.54L163.631 235.805V234.954L175.446 226.264L190.909 235.297Z" fill="#BBB8CE"/>
<path d="M190.909 234.446L178.505 242.689L163.631 234.954L175.446 225.414L190.909 234.446Z" fill="#A5A4C0"/>
<path d="M150.864 168.892L210.224 203.469V250.837L150.864 216.061V168.892Z" fill="#BBB8CE"/>
<path d="M150.864 168.892L153.937 167.507L212.222 201.47V249.238L210.224 250.837V203.469L150.864 168.892Z" fill="#FCFDF7"/>
<path d="M168.82 212.406L164.505 234.405L179.379 242.14L184.582 218.394C184.935 216.781 184.166 215.132 182.704 214.366L174.114 209.867C171.944 208.73 169.291 210.002 168.82 212.406Z" fill="#A5A4C0"/>
<path d="M167.946 212.956L163.631 234.955L178.505 242.69L183.708 218.945C184.061 217.332 183.292 215.683 181.829 214.917L173.239 210.418C171.069 209.28 168.417 210.552 167.946 212.956Z" fill="#EBEAF0"/>
<path d="M114.437 173.739L132.54 183.55L138.758 180.095L121.09 170.19L114.437 173.739Z" fill="#FF5746"/>
<path d="M132.54 183.55V211.672L138.758 208.043V180.095L132.54 183.55Z" fill="#EC9227"/>
<path d="M138.758 184.941V195.418L132.54 198.873V188.395L138.758 184.941Z" fill="#BBB8CE"/>
<path d="M114.437 173.739L132.54 183.55V211.672L114.437 201.39V173.739Z" fill="#EC9227"/>
<path d="M132.54 188.399V198.862L114.437 189.051V178.588L132.54 188.399Z" fill="#EBEAF0"/>
<path d="M243.081 250.415C246.679 252.493 252.513 252.493 256.111 250.415C259.709 248.338 259.709 244.97 256.111 242.892C252.513 240.815 246.679 240.815 243.081 242.892C239.483 244.969 239.483 248.337 243.081 250.415Z" fill="#FFAD10"/>
<path opacity="0.64" d="M256.537 222.501C255.466 220.934 253.429 219.064 249.596 219.064C245.763 219.064 243.731 220.937 242.655 222.501C242.075 223.344 240.382 225.309 240.382 226.584V246.652C240.382 248.013 241.282 249.375 243.081 250.414C246.679 252.492 252.513 252.492 256.111 250.414C257.91 249.375 258.81 248.014 258.81 246.652V226.585C258.81 225.309 257.047 223.247 256.537 222.501Z" fill="#FFCC85"/>
<path d="M256.111 245.095C252.513 247.172 246.679 247.172 243.081 245.095C241.282 244.056 240.382 242.695 240.382 241.333V241.334V228.779C240.391 228.78 240.4 228.781 240.409 228.782C240.521 230.049 241.404 231.298 243.081 232.266C246.679 234.343 252.513 234.343 256.111 232.266C257.783 231.301 258.668 230.056 258.786 228.792H258.81V241.334C258.809 242.696 257.909 244.057 256.111 245.095Z" fill="#BBB8CE"/>
<path d="M245.112 221.833C247.588 223.263 251.603 223.263 254.079 221.833C256.555 220.403 256.555 218.086 254.079 216.656C251.603 215.226 247.588 215.226 245.112 216.656C242.636 218.085 242.636 220.403 245.112 221.833Z" fill="#380200"/>
<path d="M243.256 219.244H255.937V215.802H243.256V219.244Z" fill="#380200"/>
<path d="M245.112 218.391C247.588 219.821 251.603 219.821 254.079 218.391C256.555 216.961 256.555 214.644 254.079 213.214C251.603 211.784 247.588 211.784 245.112 213.214C242.636 214.643 242.636 216.961 245.112 218.391Z" fill="#736374"/>
<path opacity="0.36" d="M247.22 216.955C248.532 217.713 250.66 217.713 251.972 216.955C253.284 216.197 253.284 214.969 251.972 214.211C250.66 213.453 248.532 213.453 247.22 214.211C245.908 214.969 245.908 216.197 247.22 216.955Z" fill="#FFCC85"/>
<path d="M223.02 260.898C225.601 262.388 229.785 262.388 232.365 260.898C234.946 259.408 234.946 256.992 232.365 255.502C229.784 254.012 225.6 254.012 223.02 255.502C220.44 256.993 220.44 259.409 223.02 260.898Z" fill="#B9EAF0"/>
<path d="M232.366 257.083C229.785 258.573 225.601 258.573 223.021 257.083C221.731 256.338 221.086 255.362 221.086 254.385V245.381C221.092 245.382 221.099 245.382 221.105 245.383C221.185 246.292 221.818 247.188 223.021 247.882C225.602 249.372 229.786 249.372 232.366 247.882C233.565 247.19 234.2 246.297 234.284 245.391H234.301V254.386C234.301 255.363 233.655 256.338 232.366 257.083Z" fill="#0084DA"/>
<path opacity="0.47" d="M232.366 241.109C229.785 239.619 225.601 239.619 223.021 241.109C221.731 241.854 221.086 242.83 221.086 243.807V258.2C221.086 259.177 221.731 260.153 223.021 260.898C225.602 262.388 229.786 262.388 232.366 260.898C233.656 260.153 234.302 259.176 234.301 258.2V243.808C234.301 242.831 233.656 241.855 232.366 241.109Z" fill="white"/>
<path d="M224.062 242.254C226.067 243.412 229.319 243.412 231.325 242.254C233.33 241.096 233.33 239.219 231.325 238.061C229.319 236.903 226.068 236.903 224.062 238.061C222.056 239.219 222.056 241.096 224.062 242.254Z" fill="#380200"/>
<path d="M222.558 240.158H232.829V237.371H222.558V240.158Z" fill="#380200"/>
<path d="M224.062 239.467C226.067 240.625 229.319 240.625 231.325 239.467C233.33 238.309 233.33 236.432 231.325 235.274C229.319 234.116 226.068 234.116 224.062 235.274C222.056 236.432 222.056 238.309 224.062 239.467Z" fill="#736374"/>
<path opacity="0.36" d="M225.769 238.304C226.832 238.918 228.555 238.918 229.618 238.304C230.681 237.69 230.681 236.696 229.618 236.082C228.555 235.468 226.832 235.468 225.769 236.082C224.706 236.695 224.706 237.69 225.769 238.304Z" fill="#FFCC85"/>
<path d="M60.189 375.744C59.181 389.701 75.624 404.491 96.915 408.778C118.206 413.065 136.283 405.225 137.291 391.268C138.299 377.311 121.856 362.521 100.565 358.234C79.274 353.947 61.197 361.787 60.189 375.744Z" fill="url(#paint5_linear_64_6)"/>
<path d="M95.889 210.364C94.195 211.212 93.062 212.387 93.375 212.997C93.664 213.6 93.908 214.847 95.607 213.996C97.294 213.165 99.8 210.547 99.5 209.941C99.204 209.331 97.588 209.527 95.889 210.364Z" fill="#E3C4B2"/>
<path d="M101.426 366.216C98.2978 365.331 94.3989 367.515 94.3989 367.515C94.3989 367.515 86.0239 371.029 85.6949 371.87C86.2069 378.758 84.7849 383.704 85.6749 385.389C86.5639 387.076 90.3259 388.391 92.0009 386.235C93.9359 383.749 94.9939 380.029 96.5129 378.398C98.0269 376.75 103.089 369.968 103.089 369.968C103.089 369.968 104.549 367.103 101.426 366.216Z" fill="#773829"/>
<path d="M74.96 268.967C73.012 292.424 87.171 312.764 83.347 328.19C78.193 349.005 85.406 355.819 85.694 371.869C85.781 376.682 94.019 375.979 94.019 371.91C94.019 355.802 97.257 352.245 97.438 331.965C98.337 322.172 97.84 306.815 103.43 284.452C103.302 280.425 76.529 267.607 74.96 268.967Z" fill="#FFA0A6"/>
<path d="M91.713 370.477C89.141 362.655 88.702 354.014 88.481 345.848C88.206 335.702 88.664 325.538 89.415 315.42C90.365 302.624 91.42 289.529 93.732 276.83C85.854 272.413 75.898 268.153 74.96 268.967C73.012 292.424 87.171 312.764 83.347 328.19C78.192 349.005 85.405 355.818 85.694 371.869C85.763 375.69 90.958 376.025 93.101 373.968C92.559 372.828 92.097 371.645 91.713 370.477Z" fill="#E69095"/>
<path d="M110.239 374.721C108.153 374.256 104.941 374.896 102.712 375.479C101.182 375.88 100.132 377.276 100.136 378.857C100.142 381.811 100.376 386.293 101.702 387.037C103.699 388.169 120.437 385.639 125.467 384.17C130.495 382.692 129.788 378.131 128.017 376.683C126.24 375.228 118.046 376.542 110.239 374.721Z" fill="#773829"/>
<path d="M118.511 261.969C109.323 262.315 96.6778 258.009 96.6778 258.009L82.2439 251.435C82.2439 251.435 74.8289 263.35 74.8289 270.761C74.8289 281.894 94.2649 287.626 94.2649 287.626C94.2649 287.626 100.773 328.876 100.375 331.649C93.8149 350.174 100.199 360.455 101.079 375.809C101.209 378.083 102.95 379.736 105.227 379.773C109.625 379.844 109.817 376.683 109.817 376.683C109.817 376.683 108.797 359.591 116.251 330.354C117.992 322.985 120.768 275.493 118.511 261.969Z" fill="#FFA0A6"/>
<path d="M104.537 377.112C103.628 374.651 104.073 371.858 104.271 369.323C104.488 366.539 104.359 363.794 104.251 361.005C103.993 354.291 103.653 347.566 103.953 340.848C104.22 334.874 105.152 328.97 105.956 323.051C106.6 318.312 107.405 313.666 109.462 309.318C111.408 305.203 114.636 298.187 119.029 294.744C119.522 281.439 119.542 268.153 118.51 261.97C109.322 262.316 96.6769 258.01 96.6769 258.01L82.2429 251.436C82.2429 251.436 74.8279 263.351 74.8279 270.762C74.8279 281.895 94.2639 287.627 94.2639 287.627C94.2639 287.627 100.772 328.877 100.374 331.65C93.8139 350.175 100.198 360.456 101.078 375.81C101.208 378.084 102.949 379.737 105.226 379.774C105.553 379.779 105.851 379.762 106.133 379.734C105.475 379.007 104.921 378.152 104.537 377.112Z" fill="#E69095"/>
<path d="M91.9949 207.017C90.6049 208.508 88.4209 213.2 88.4209 213.2C88.4209 213.2 94.1109 218.37 95.2419 218.174C96.3649 217.975 98.6779 211.679 98.6779 211.679C98.6779 211.679 104.25 206.259 101.998 204.129C99.7379 202.005 93.3889 205.522 91.9949 207.017Z" fill="#FFA0A6"/>
<path d="M83.454 209.77C81.762 203.649 77.989 196.872 72.14 199.793C67.791 201.966 66.947 209.637 70.261 214.981C73.578 220.311 77.425 226.837 79.327 230.044C81.242 233.268 90.332 226.546 88.871 223.463C87.386 220.388 85.138 215.874 83.454 209.77Z" fill="#3D283C"/>
<path d="M118.511 261.969L117.862 254.416C117.732 250.396 114.612 234.72 115.451 232.354C115.451 232.354 120.781 229.98 119.618 224.133C118.27 217.268 102.904 211.52 102.904 211.52L94.2678 208.16L79.1948 201.784C75.1718 200.082 70.5148 202.309 69.4398 206.542C68.9858 208.332 68.6998 210.498 68.7538 213.083C68.9828 223.089 84.0608 247.079 84.0608 247.079L82.2438 251.435C82.2438 251.435 67.3638 260.313 74.7748 297.073C74.7748 297.073 95.1088 323.111 119.784 302.409C119.784 302.409 125.575 275.678 118.511 261.969Z" fill="#5C4556"/>
<path d="M86.7478 306.036C85.4258 303.248 84.5968 300.253 84.0338 297.229C82.8188 290.707 82.6768 283.997 82.7368 277.38C82.7918 271.282 84.5138 265.881 86.9188 260.337C89.7258 253.866 92.7618 247.138 91.3828 239.895C89.2288 228.584 77.0848 221.75 78.9058 209.241C79.2548 206.841 80.0378 204.631 81.1218 202.598L79.1948 201.783C75.1718 200.081 70.5148 202.308 69.4398 206.541C68.9858 208.331 68.6998 210.497 68.7538 213.082C68.9828 223.088 84.0608 247.078 84.0608 247.078L82.2438 251.434C82.2438 251.434 67.3638 260.312 74.7748 297.072C74.7748 297.072 79.5648 303.205 87.3158 307.151C87.1198 306.785 86.9278 306.415 86.7478 306.036Z" fill="#3D283C"/>
<path d="M90.3922 200.185C90.3922 200.185 97.1602 200.779 99.5262 201.389C101.892 201.999 103.603 199.511 106.58 192.125C107.688 189.376 108.25 185.867 108.576 182.343C109.558 171.707 105.518 168.642 95.4782 171.824C84.3682 175.345 90.3922 200.185 90.3922 200.185Z" fill="#FFA0A6"/>
<path d="M101.742 200.781C101.013 201.384 100.29 201.586 99.526 201.388C97.16 200.778 90.392 200.184 90.392 200.184C90.392 200.184 90.009 198.603 89.614 196.184C93.886 195.6 98.584 197.045 101.742 200.781Z" fill="#E69095"/>
<path d="M81.6672 206.685C81.6672 206.685 84.1402 197.518 84.6712 192.758L94.2682 194.371C94.2682 194.371 95.6312 207.418 95.6312 211.935C95.6312 216.452 78.6532 215.654 81.6672 206.685Z" fill="#E69095"/>
<path d="M109.4 173.226C108.733 167.029 104.822 162.468 95.6311 163.345C81.5731 160.36 79.6741 168.39 78.6021 181.096C78.2051 185.8 73.3211 187.675 73.4671 195.23C73.5111 197.51 76.9191 200.593 80.5791 202.369C81.0341 201.95 82.5181 198.912 82.5181 198.912C82.5181 198.912 82.5181 201.575 82.5181 203.021C85.5261 203.96 89.0071 204.315 92.5181 203.695C92.5181 202.847 92.5181 200.913 92.5181 200.913L93.9501 203.466C100.083 202.434 110.745 185.732 109.4 173.226Z" fill="#002A32"/>
<path d="M107.717 217.147C114.028 215.935 115.349 223.383 115.754 229.592C116.154 235.719 117.903 248.899 119.421 261.369C120.684 263.794 131.116 286.145 133.164 288.194C133.492 288.156 135.731 288.798 137.529 289.192C139.333 289.577 142.249 294.028 142.731 295.128C142.914 295.546 142.762 296.386 141.132 295.927C139.771 295.545 138.319 293.276 138.043 293.896C137.557 294.986 138.936 297.814 138.936 297.814C138.936 297.814 141.939 302.256 141.542 303.531C141.156 304.812 139.257 305.159 136.167 304.496C134.901 304.22 133.493 301.738 132.339 299.627C130.674 296.58 128.784 291.942 128.784 291.942C128.784 291.942 113.04 269.731 111.069 266.429C109.344 263.541 103.607 236.939 101.894 231C100.168 225.061 103.026 218.035 107.717 217.147Z" fill="#FFA0A6"/>
<path d="M107.717 217.147C114.028 215.935 115.349 223.383 115.754 229.592C115.981 233.066 116.641 236.881 117.447 241.805C114.99 245.523 113.531 255.695 113.798 260.164C114.254 267.796 120.049 274.475 123.052 281.279C123.918 283.241 124.711 285.232 125.461 287.239C120.729 280.531 112.463 268.762 111.069 266.428C109.344 263.54 103.607 236.938 101.894 230.999C100.168 225.061 103.026 218.035 107.717 217.147Z" fill="#E69095"/>
<path d="M103.656 248.27C102.425 244.142 100.481 234.43 100.581 229.005C100.695 222.822 101.166 216.803 105.666 215.207C118.594 210.622 121.378 230.917 120.743 244.668C119.938 247.447 110.812 249.753 103.656 248.27Z" fill="#5C4556"/>
<path d="M368.638 372.57L342.855 386.941L318.606 376.082L346.108 360.754L368.638 372.57Z" fill="url(#paint6_linear_64_6)"/>
<path d="M341.35 328.795L341.293 361.413C341.28 368.926 348.983 375.042 358.499 375.077C368.014 375.112 375.739 369.051 375.752 361.539L375.809 328.921L341.35 328.795Z" fill="#9593B5"/>
<path d="M350.923 328.83L341.35 328.795L341.294 361.413C341.285 366.775 345.217 371.413 350.923 373.649V328.83Z" fill="#BBB8CE"/>
<path d="M375.809 328.921C375.796 336.432 368.071 342.494 358.556 342.459C349.04 342.424 341.337 336.306 341.35 328.795C341.363 321.284 349.088 315.223 358.604 315.258C368.119 315.292 375.822 321.41 375.809 328.921Z" fill="#EBEAF0"/>
<path d="M372.38 328.739C372.37 334.613 366.183 339.354 358.562 339.325C350.94 339.297 344.771 334.512 344.781 328.637C344.791 322.763 350.977 318.023 358.599 318.051C366.22 318.08 372.39 322.865 372.38 328.739Z" fill="#BBB8CE"/>
<path d="M358.587 325.012C364.625 325.034 369.738 328.047 371.603 332.216C369.724 336.372 364.6 339.347 358.562 339.325C352.524 339.303 347.411 336.29 345.546 332.121C347.425 327.965 352.549 324.99 358.587 325.012Z" fill="#EC9227"/>
<mask id="mask0_64_6" style="mask-type:luminance" maskUnits="userSpaceOnUse" x="300" y="260" width="113" height="80">
<path d="M372.38 328.739C372.37 334.613 366.183 339.354 358.562 339.325C350.94 339.297 344.771 334.512 344.781 328.637C344.784 327.232 301.151 302.957 300.977 301.583C297.578 274.797 329.694 263.155 357.925 260.232C386.034 257.322 424.086 293.195 409.319 315.257C408.855 315.95 372.381 327.885 372.38 328.739Z" fill="white"/>
</mask>
<g mask="url(#mask0_64_6)">
<path d="M353.502 341.425C353.337 341.213 345.276 313.794 353.481 295.945C361.686 278.095 374.865 277.584 379.046 280.995C383.227 284.406 382.286 287.546 374.895 297.859C368.189 307.217 360.198 319.729 361.493 339.282L353.502 341.425Z" fill="#0084DA"/>
<path d="M357.035 341.038C357.01 341.047 356.984 341.055 356.959 341.061C356.665 341.125 356.376 340.939 356.31 340.646C349.489 309.595 364.12 286.985 373.09 282.304C373.348 282.157 373.684 282.267 373.824 282.535C373.963 282.802 373.86 283.13 373.593 283.269C364.874 287.82 350.677 309.93 357.374 340.413C357.432 340.681 357.284 340.944 357.035 341.038Z" fill="#FAFAFA"/>
</g>
<mask id="mask1_64_6" style="mask-type:luminance" maskUnits="userSpaceOnUse" x="300" y="260" width="113" height="80">
<path d="M372.38 328.739C372.37 334.613 366.183 339.354 358.562 339.325C350.94 339.297 344.771 334.512 344.781 328.637C344.784 327.232 301.151 302.957 300.977 301.583C297.578 274.797 329.694 263.155 357.925 260.232C386.034 257.322 424.086 293.195 409.319 315.257C408.855 315.95 372.381 327.885 372.38 328.739Z" fill="white"/>
</mask>
<g mask="url(#mask1_64_6)">
<path d="M359.217 340.158C359.265 339.894 353.622 311.877 338.046 299.906C322.47 287.935 310.571 293.622 308.46 298.588C306.35 303.554 308.646 305.894 319.99 311.576C330.284 316.731 343.184 324.08 351.148 341.985L359.217 340.158Z" fill="#0084DA"/>
<path d="M355.91 341.462C355.936 341.459 355.962 341.454 355.988 341.447C356.278 341.367 356.448 341.068 356.369 340.778C347.937 310.125 324.457 296.935 314.34 296.972C314.043 296.962 313.797 297.216 313.798 297.518C313.799 297.819 314.043 298.062 314.344 298.06C324.18 298.025 347.042 310.974 355.318 341.067C355.393 341.33 355.646 341.495 355.91 341.462Z" fill="#FAFAFA"/>
</g>
<mask id="mask2_64_6" style="mask-type:luminance" maskUnits="userSpaceOnUse" x="300" y="260" width="113" height="80">
<path d="M372.38 328.739C372.37 334.613 366.183 339.354 358.562 339.325C350.94 339.297 344.771 334.512 344.781 328.637C344.784 327.232 301.151 302.957 300.977 301.583C297.578 274.797 329.694 263.155 357.925 260.232C386.034 257.322 424.086 293.195 409.319 315.257C408.855 315.95 372.381 327.885 372.38 328.739Z" fill="white"/>
</mask>
<g mask="url(#mask2_64_6)">
<path d="M354.834 342.166C354.761 341.907 357.719 313.482 372.089 300.086C386.459 286.69 398.844 291.222 401.416 295.966C403.988 300.709 401.924 303.257 391.171 309.989C381.413 316.098 369.269 324.638 363.04 343.218L354.834 342.166Z" fill="#0084DA"/>
<path d="M358.25 343.15C358.224 343.149 358.197 343.146 358.17 343.142C357.874 343.09 357.677 342.808 357.727 342.512C363.211 311.197 385.333 295.838 395.408 294.915C395.703 294.876 395.971 295.106 395.999 295.407C396.027 295.707 395.807 295.972 395.507 295.998C385.713 296.896 364.183 311.958 358.8 342.7C358.753 342.97 358.516 343.158 358.25 343.15Z" fill="#FAFAFA"/>
</g>
<defs>
<linearGradient id="paint0_linear_64_6" x1="103.349" y1="150.27" x2="55.0968" y2="236.284" gradientUnits="userSpaceOnUse">
<stop stop-color="#CBE4FE"/>
<stop offset="1" stop-color="#CBE4FE" stop-opacity="0"/>
</linearGradient>
<linearGradient id="paint1_linear_64_6" x1="248.946" y1="217.936" x2="234.313" y2="240.913" gradientUnits="userSpaceOnUse">
<stop stop-color="#CBE4FE"/>
<stop offset="1" stop-color="#CBE4FE" stop-opacity="0"/>
</linearGradient>
<linearGradient id="paint2_linear_64_6" x1="351.073" y1="276.442" x2="337.35" y2="297.99" gradientUnits="userSpaceOnUse">
<stop stop-color="#CBE4FE"/>
<stop offset="1" stop-color="#CBE4FE" stop-opacity="0"/>
</linearGradient>
<linearGradient id="paint3_linear_64_6" x1="254.846" y1="276.003" x2="215.692" y2="321.001" gradientUnits="userSpaceOnUse">
<stop stop-color="#CBE4FE"/>
<stop offset="1" stop-color="#CBE4FE" stop-opacity="0"/>
</linearGradient>
<linearGradient id="paint4_linear_64_6" x1="150.387" y1="344.984" x2="137.411" y2="368.114" gradientUnits="userSpaceOnUse">
<stop stop-color="#CBE4FE"/>
<stop offset="1" stop-color="#CBE4FE" stop-opacity="0"/>
</linearGradient>
<linearGradient id="paint5_linear_64_6" x1="122.85" y1="355.798" x2="83.6958" y2="400.796" gradientUnits="userSpaceOnUse">
<stop stop-color="#CBE4FE"/>
<stop offset="1" stop-color="#CBE4FE" stop-opacity="0"/>
</linearGradient>
<linearGradient id="paint6_linear_64_6" x1="349.729" y1="363.44" x2="338.568" y2="383.337" gradientUnits="userSpaceOnUse">
<stop stop-color="#CBE4FE"/>
<stop offset="1" stop-color="#CBE4FE" stop-opacity="0"/>
</linearGradient>
</defs>
</svg>
