<svg width="2153" height="1243" viewBox="0 0 2153 1243" fill="none" xmlns="http://www.w3.org/2000/svg">
<g clip-path="url(#clip0_56_2)">
<path d="M147.9 1137C124 1111.5 103.5 1085.6 86.1 1060.8C101.4 1038.1 101.1 1017 101.1 1017C96.2 1027.3 79.9 1031.1 67.1 1032.4C25 966.2 6.70001 914.5 6.70001 914.5C6.70001 914.5 70.6 893.1 153.7 887.7C160.7 904.4 169 929 164.5 944.2C164.5 944.2 187.4 917.4 201 886.6C225.7 887.1 251.2 889.4 276.7 894.2C272.1 915.5 262.5 949.2 246.2 957.4C246.2 957.4 305.4 948.4 346.5 915C378.6 928.6 409 948.1 435.5 975.1C418.3 994.9 391.6 1021.4 371 1023.6C371 1023.6 403.4 1037.4 460.7 1004.8C475.3 1024.9 488.2 1048.2 498.7 1075.1L495.2 1168C495.2 1168 491.2 1170.6 484 1174.8C480.9 1173.9 477.8 1172.9 474.4 1171.7C469.9 1170.3 465.1 1168.4 460.1 1166.4C455.1 1164.5 449.9 1162.3 444.5 1160C439.1 1157.8 433.5 1155.2 427.7 1152.5C421.9 1149.9 416 1147.1 410 1144.1C397.9 1138.2 385.2 1131.7 372.2 1124.9C365.7 1121.4 359.1 1117.9 352.5 1114.3C345.9 1110.6 339.1 1106.9 332.4 1103.2C318.9 1095.7 305.3 1087.9 291.7 1079.9C278.1 1072 264.5 1064.1 251.3 1056.1C238 1048.1 225 1040.3 212.3 1032.7C187.1 1017.3 163.6 1002.9 143.5 990.5C103.3 965.7 76.4 949.1 76.4 949.1C76.4 949.1 82.6 954 93.6 962.4C104.6 970.7 120.5 982.5 139.8 996.1C149.5 1002.9 160 1010.3 171.2 1017.8C182.5 1025.4 194.3 1033.4 206.8 1041.4C219.2 1049.4 232.1 1057.7 245.4 1065.8C258.6 1073.9 272.2 1082 285.8 1090C299.5 1097.9 313.3 1105.6 326.9 1113.1C340.6 1120.6 354.3 1127.5 367.5 1134.1C380.8 1140.7 393.8 1146.7 406.3 1152.1C418.8 1157.5 430.8 1162.3 442 1166.2C447.6 1168.2 453 1170.1 458.2 1171.6C463.4 1173.2 468.3 1174.7 473 1175.8C475.1 1176.4 477.1 1176.9 479.1 1177.3C450.6 1193.1 387.6 1223 319 1223.3C332.1 1175.1 316.4 1154.1 316.4 1154.1C314.2 1179.4 294.8 1206.3 283 1220.5C249.5 1215.1 215.9 1201 185.4 1173.5C180.6 1169.1 175.9 1164.7 171.2 1160.2C184.5 1132.9 182.6 1104.9 182.6 1104.9C183.2 1114.4 161.3 1129 147.9 1137Z" fill="#C6CEE9"/>
<path d="M415.2 1156.9C413.6 1154.4 411.6 1150.5 409 1145.7C403.7 1136 396.2 1122.2 387.1 1105.6C382.5 1097.3 377.6 1088.3 372.3 1078.9C367 1069.5 361.5 1059.5 355.5 1049.3C349.5 1039.1 343.6 1028.4 337.3 1017.8C331 1007.1 324.6 996.3 318.2 985.4C311.7 974.6 305.1 963.8 298.7 953.2C292.3 942.6 285.7 932.3 279.5 922.2C273.3 912.1 267.1 902.5 261.3 893.4C255.5 884.3 249.9 875.7 244.6 867.8C223.8 836.2 208.9 815.7 208.9 815.7C208.9 815.7 219.6 838.7 237.4 872.1C241.8 880.5 246.6 889.5 251.9 899C257.1 908.5 262.6 918.6 268.4 928.8C274.3 939 280.2 949.8 286.5 960.4C292.8 971.1 299.2 982 305.6 992.8C312.2 1003.6 318.7 1014.4 325.1 1025C331.5 1035.6 338.1 1045.9 344.4 1055.9C350.7 1065.9 356.9 1075.5 362.9 1084.6C368.8 1093.7 374.5 1102.2 379.9 1110C390.6 1125.7 399.8 1138.5 406.5 1147.3C409.8 1151.7 412.5 1155.1 414.6 1157.4C416.5 1159.6 417.6 1160.8 417.6 1160.8C417.6 1160.8 156.8 1084.8 132.5 669.8C132.5 669.8 382.9 784.3 417.6 1160.8C417.5 1160.8 416.7 1159.5 415.2 1156.9Z" fill="#91A2CA"/>
<path d="M907.1 598C907.1 598 904.1 -53.9 1009.8 10.7C1115.4 75.3 1036.8 562.9 972 622.2" fill="#91A2CA"/>
<path d="M890.5 618.7C890.5 618.7 918.1 358.1 792.9 347.7C667.7 337.2 805.3 581.4 832.5 607.5" fill="#C6CEE9"/>
<path d="M815.5 243.4C815.5 243.4 762.6 337.2 855.2 336.7C947.8 336.2 922.5 327.8 922.5 327.8" fill="#C6CEE9"/>
<path d="M917.6 621.7C917.6 621.7 963.2 232.8 923.9 209C884.6 185.2 806.8 204.7 815.5 243.4C824.2 282.1 868.2 614.4 868.2 614.4" fill="#E9EDF7"/>
<path d="M1252.8 250.3C1252.8 250.3 1258.4 376.5 1194.7 405.9C1131 435.2 1103 353.3 1103 353.3L1119.7 219.8" fill="#91A2CA"/>
<path d="M942.4 618.7C942.4 618.7 1072.7 115.6 1176.1 168.2C1279.4 220.8 1247.6 277.1 1247.6 277.1C1247.6 277.1 1225.6 247.3 1203.9 275.5C1182.2 303.7 1032.3 645.4 1032.3 645.4" fill="#C6CEE9"/>
<path d="M991.5 629.3C991.5 629.3 1085.5 384.7 1201.7 432.3C1317.9 479.9 1084.4 634.8 1048.2 645.6" fill="#91A2CA"/>
<path d="M1001.4 41.5C1001.4 41.5 993 394.5 933.8 591.6" stroke="white" stroke-miterlimit="10"/>
<path d="M878.3 221.5C878.3 221.5 902.5 502 891.4 594.9" stroke="white" stroke-miterlimit="10"/>
<path d="M784.6 381.8C784.6 381.8 847.9 533.2 850 593.8" stroke="white" stroke-miterlimit="10"/>
<path d="M1173.6 204.8C1173.6 204.8 1028.6 461.7 974.9 606.5" stroke="white" stroke-miterlimit="10"/>
<path d="M1015.3 631.2L1013.4 629.6C1081.8 548.9 1171.5 468.8 1172.4 468L1174.1 469.9C1173.1 470.7 1083.6 550.7 1015.3 631.2Z" fill="#E9EDF7"/>
<path d="M1817.2 1241.5H744.2C744.2 1241.5 591.1 989.6 805 903C1018.9 816.5 1077.3 839.4 1072.4 702C1067.5 564.6 1174.5 480.6 1262 523.9C1349.5 567.2 1424.9 676.6 1561 610.4C1697.1 544.2 1873.7 627.3 1886.9 838.2C1892.4 925.8 1917.3 961.5 1973.2 994.6C2029.1 1027.6 2043 1241.5 1817.2 1241.5Z" fill="url(#paint0_linear_56_2)"/>
<path d="M1823 1103.7C1827 1126.6 1811.7 1148.5 1788.8 1152.5L1407.5 1219.5C1384.6 1223.5 1362.7 1208.2 1358.7 1185.3L1220.6 399.3C1216.6 376.4 1231.9 354.5 1254.8 350.5L1636.1 283.5C1659 279.5 1680.9 294.8 1684.9 317.7L1823 1103.7Z" fill="#91A2CA"/>
<path d="M1384.6 427.7L1354.1 471.3L1323.6 514.9C1314.2 528.3 1317.5 546.7 1330.8 556.1C1344.2 565.5 1362.6 562.2 1372 548.9L1402.5 505.4L1433 461.8C1442.4 448.4 1439.1 430 1425.8 420.6C1412.4 411.1 1394 414.3 1384.6 427.7Z" fill="#999999"/>
<path d="M1568.1 520.5L1598.6 476.9L1629.1 433.3C1638.5 419.9 1635.2 401.5 1621.9 392.1C1608.5 382.7 1590.1 386 1580.7 399.3L1550.2 442.9L1519.7 486.5C1510.3 499.9 1513.6 518.3 1526.9 527.7C1540.3 537.1 1558.7 533.9 1568.1 520.5Z" fill="#999999"/>
<path d="M1417.1 612.3L1386.6 655.9L1356.1 699.5C1346.7 712.9 1350 731.3 1363.3 740.7C1376.7 750.1 1395.1 746.8 1404.5 733.5L1435 689.9L1465.5 646.3C1474.9 632.9 1471.6 614.5 1458.3 605.1C1444.9 595.7 1426.4 598.9 1417.1 612.3Z" fill="#999999"/>
<path d="M1613.2 584L1582.7 627.6L1552.2 671.2C1542.8 684.6 1546.1 703 1559.4 712.4C1572.8 721.8 1591.2 718.5 1600.6 705.2L1631.1 661.6L1661.6 618C1671 604.6 1667.7 586.2 1654.4 576.8C1641 567.4 1622.5 570.7 1613.2 584Z" fill="#999999"/>
<path d="M1449.5 796.8L1419 840.4L1388.5 884C1379.1 897.4 1382.4 915.8 1395.7 925.2C1409.1 934.6 1427.5 931.3 1436.9 918L1467.4 874.4L1497.9 830.8C1507.3 817.4 1504 799 1490.7 789.6C1477.3 780.2 1458.8 783.5 1449.5 796.8Z" fill="#999999"/>
<path d="M1645.6 768.6L1615.1 812.1L1584.6 855.7C1575.2 869.1 1578.5 887.5 1591.8 896.9C1605.2 906.3 1623.6 903 1633 889.7L1663.5 846.1L1694 802.5C1703.4 789.1 1700.1 770.7 1686.8 761.3C1673.4 752 1655 755.2 1645.6 768.6Z" fill="#999999"/>
<path d="M1481.9 981.4L1451.4 1025L1420.9 1068.6C1411.5 1082 1414.8 1100.4 1428.1 1109.8C1441.5 1119.2 1459.9 1115.9 1469.3 1102.6L1499.8 1059L1530.3 1015.4C1539.7 1002 1536.4 983.6 1523.1 974.2C1509.7 964.8 1491.3 968.1 1481.9 981.4Z" fill="#999999"/>
<path d="M1678 953.2L1647.5 996.8L1617 1040.4C1607.6 1053.8 1610.9 1072.2 1624.2 1081.6C1637.6 1091 1656 1087.7 1665.4 1074.4L1695.9 1030.8L1726.4 987.3C1735.8 973.9 1732.5 955.5 1719.2 946.1C1705.8 936.6 1687.4 939.8 1678 953.2Z" fill="#999999"/>
<path d="M1317.8 500.9C1308.4 514.3 1311.7 532.7 1325 542.1C1338.4 551.5 1356.8 548.2 1366.2 534.9L1396.7 491.3L1348.3 457.4L1317.8 500.9Z" fill="white"/>
<path d="M1378.9 413.8L1348.4 457.4L1396.8 491.3L1427.3 447.7C1436.7 434.3 1433.4 415.9 1420.1 406.5C1406.7 397.2 1388.2 400.4 1378.9 413.8Z" fill="#C6CEE9"/>
<path d="M1513.9 472.6C1504.5 486 1507.8 504.4 1521.1 513.8C1534.5 523.2 1552.9 519.9 1562.3 506.6L1592.8 463L1544.4 429.1L1513.9 472.6Z" fill="white"/>
<path d="M1575 385.5L1544.5 429.1L1592.9 463L1623.4 419.4C1632.8 406 1629.5 387.6 1616.2 378.2C1602.8 368.9 1584.3 372.2 1575 385.5Z" fill="#C6CEE9"/>
<path d="M1350.2 685.5C1340.8 698.9 1344.1 717.3 1357.4 726.7C1370.8 736.1 1389.2 732.8 1398.6 719.5L1429.1 675.9L1380.7 642L1350.2 685.5Z" fill="white"/>
<path d="M1411.3 598.4L1380.8 642L1429.2 675.9L1459.7 632.3C1469.1 618.9 1465.8 600.5 1452.5 591.1C1439.1 581.8 1420.7 585 1411.3 598.4Z" fill="#C6CEE9"/>
<path d="M1546.3 657.2C1536.9 670.6 1540.2 689 1553.5 698.4C1566.9 707.8 1585.3 704.5 1594.7 691.2L1625.2 647.6L1576.8 613.7L1546.3 657.2Z" fill="white"/>
<path d="M1607.4 570.1L1576.9 613.7L1625.3 647.6L1655.8 604C1665.2 590.6 1661.9 572.2 1648.6 562.8C1635.2 553.5 1616.8 556.7 1607.4 570.1Z" fill="#C6CEE9"/>
<path d="M1382.6 870C1373.2 883.4 1376.5 901.8 1389.8 911.2C1403.2 920.6 1421.6 917.3 1431 904L1461.5 860.5L1413.1 826.6L1382.6 870Z" fill="white"/>
<path d="M1443.7 782.9L1413.2 826.5L1461.6 860.4L1492.1 816.8C1501.5 803.4 1498.2 785 1484.9 775.6C1471.5 766.3 1453.1 769.6 1443.7 782.9Z" fill="#C6CEE9"/>
<path d="M1578.7 841.8C1569.3 855.2 1572.6 873.6 1585.9 883C1599.3 892.4 1617.7 889.1 1627.1 875.8L1657.6 832.2L1609.2 798.3L1578.7 841.8Z" fill="white"/>
<path d="M1639.8 754.7L1609.3 798.2L1657.7 832.1L1688.2 788.6C1697.6 775.2 1694.3 756.8 1681 747.4C1667.6 738.1 1649.2 741.3 1639.8 754.7Z" fill="#C6CEE9"/>
<path d="M1415.1 1054.6C1405.7 1068 1409 1086.4 1422.3 1095.8C1435.7 1105.2 1454.1 1101.9 1463.5 1088.6L1494 1045.1L1445.6 1011.2L1415.1 1054.6Z" fill="white"/>
<path d="M1476.2 967.5L1445.7 1011.1L1494.1 1045L1524.6 1001.4C1534 988 1530.7 969.6 1517.4 960.2C1503.9 950.9 1485.5 954.2 1476.2 967.5Z" fill="#C6CEE9"/>
<path d="M1611.2 1026.4C1601.8 1039.8 1605.1 1058.2 1618.4 1067.6C1631.8 1077 1650.2 1073.7 1659.6 1060.4L1690.1 1016.8L1641.7 982.9L1611.2 1026.4Z" fill="white"/>
<path d="M1672.3 939.3L1641.8 982.9L1690.2 1016.8L1720.7 973.3C1730.1 959.9 1726.8 941.5 1713.5 932.1C1700.1 922.7 1681.6 925.9 1672.3 939.3Z" fill="#C6CEE9"/>
<path d="M655.1 460.7C653.6 455.2 652.2 450.1 650.8 445.2C649.5 440.3 647.9 435.9 646.7 431.7C645.4 427.5 644.3 423.7 643 420.3C641.5 415.8 640.2 412 639 408.8C628.4 403.9 551 364.6 566.7 263.5C566.7 263.5 674 294.5 640.6 408.2C642.2 411.1 644.1 414.7 646.2 418.9C649.5 425.4 653.2 433.5 657.2 442.9C659.1 447.6 661.2 452.7 663.3 457.9C665.6 463.2 666.8 469.1 668.7 475.1C670 479.8 671.5 484.7 672.9 489.7C674.6 484.4 676.8 477.5 679 470.5C680.1 467 681.2 463.5 682.3 460.2C682.7 459 683.1 457.8 683.5 456.7C628.6 344.1 707.5 297.1 707.5 297.1C749.8 421.4 703.7 450 688.4 455.9C687.8 457.7 687.1 459.6 686.4 461.6C685.4 464.9 684.2 468.4 683.1 471.8C680.9 478.8 678.7 485.8 677 491C676.7 491.6 676.7 492.3 676.4 492.9C676.1 493.4 675.7 494 675.4 494.5C675.1 495 674.8 495.4 674.5 495.8C675.9 501.8 677.4 507.9 679 514.2C679.8 517.7 680.8 521.2 681.5 524.8C682.2 528.4 682.9 532.1 683.6 535.8C685 543.2 686.4 550.8 687.9 558.5C689.1 566.3 690.3 574 691.4 582.1C691.9 585.9 692.3 589.8 692.8 593.6C693 592.5 693.1 591.4 693.4 590.3C693.8 588.3 694.2 586.2 694.6 584.2C695.4 580.1 696.2 576 697 572.1C698 568.3 698.9 564.7 699.7 561.7C700 561 699.9 560.2 700.3 559.5C700.6 558.8 701 558.2 701.3 557.6C701.6 557.1 701.8 556.7 702.1 556.2C698 537.1 687.6 459.7 770.3 411.6C770.3 411.6 813.6 514.3 704.5 560C704.5 560.2 704.5 560.4 704.5 560.6C704.5 561.3 704.1 562 703.9 562.7C703.1 565.7 702.2 569.2 701.3 572.9C700.6 576.7 699.7 580.7 698.9 584.8C698.5 586.8 698.1 588.8 697.7 590.8C697.2 592.8 697 594.8 696.8 596.7C696.4 600.6 696 604.2 695.6 607.2C695.5 607.9 695.6 608.7 695.3 609.4C695.2 609.8 695 610.2 694.9 610.6C696.6 625.4 698.2 640.3 700.8 655C702 663.1 703.9 671.1 705.6 679.1C706.5 683.1 707.7 687 708.7 690.9C709.8 694.8 710.7 698.8 712.1 702.6C712.4 703.5 712.7 704.3 713 705.2C713.1 704.6 713.1 704 713.2 703.3C713.5 700.6 714.1 697.8 714.7 694.9C715.2 692 716.2 689 717 686C718 683.1 719 680 720.3 677.1C721.6 674.5 722.7 671.7 724.3 669.2C723.7 669.2 723.2 669.3 722.6 669.3C722.6 669.3 720.4 572.4 819.9 554.8C819.9 554.8 833.5 661.7 729.5 668.9C729.1 669.5 728.8 670.1 728.4 670.7C726.7 673.2 725.7 676.1 724.3 678.8C723.1 681.6 722.1 684.5 721.1 687.3C720.3 690.2 719.4 693 718.9 695.8C718.3 698.6 717.8 701.3 717.4 703.9C717 706.5 716.8 709 716.6 711.2C716.4 712.3 716.6 713.5 716.4 714.5C716.4 714.7 716.3 714.8 716.3 715C717.5 718.4 718.7 721.8 720.2 725.1C721.7 728.8 723.2 732.4 724.6 736C726.2 739.6 728 743 729.6 746.5C731.3 750 732.9 753.4 734.6 756.8C736.4 760.1 738.2 763.4 740 766.7C743.6 773.2 747 779.6 750.9 785.5C754.7 791.5 758.3 797.3 761.9 803C762.8 804.3 763.7 805.6 764.6 806.8C764.4 805.3 764.3 803.8 764.3 802.3C764 795.5 765 788.9 766.3 784C766.5 783.4 766.4 782.8 766.8 782.3C767.1 781.8 767.4 781.3 767.7 780.9C768.1 780.3 768.4 779.9 768.8 779.4C766.2 769.5 749.7 696 824.6 660.1C824.6 660.1 862.7 750.5 770.9 780C770.9 780.6 770.9 781.2 770.9 782C770.9 782.5 770.9 783.1 770.9 783.6C770.9 784.1 770.6 784.6 770.5 785.2C769.3 789.7 768.4 796 768.7 802.3C768.8 805.4 769.2 808.5 769.8 811.4C770 812.8 770.5 814.2 770.8 815.5C770.9 815.7 770.9 815.9 771 816C771.7 817 772.4 818 773.1 819C774.9 821.5 776.6 824 778.4 826.4C780.1 828.8 782 831 783.5 833.4C786.6 838.1 789.6 842.6 792.4 846.8C797.9 855.3 803.1 862.4 807.4 868.2C815.9 880 820.7 886.9 820.7 886.9C820.7 886.9 814.9 880.9 804.9 870.3C799.9 865 793.8 858.5 787.2 850.8C784.9 848.2 782.5 845.4 780 842.5C779.7 842.5 779.4 842.4 779 842.4C778.5 842.3 777.9 842.3 777.3 842.2C776.7 842.2 776.2 841.7 775.6 841.5C774.4 841.1 773.2 840.4 771.7 840.1C770.3 839.7 768.8 839.4 767.2 839C765.6 838.6 764 838.1 762.4 837.8C760.7 837.6 759 837.4 757.3 837.2C755.6 837 753.9 836.7 752.2 836.7C750.5 836.7 748.8 836.6 747.3 836.6C745.7 836.5 744.1 836.8 742.7 836.9C741.2 837.1 739.8 837.1 738.6 837.3C737.9 837.4 737.4 837.7 736.8 837.6C736.5 837.6 736.2 837.5 735.9 837.5C721.4 847.5 652.6 888.9 575.5 829.2C575.5 829.2 653.6 751.3 736.5 833.2C737 833.1 737.5 833.1 738 833C739.3 832.7 740.8 832.7 742.4 832.5C744 832.4 745.6 832.1 747.3 832.2C749 832.2 750.8 832.2 752.6 832.3C754.4 832.2 756.2 832.6 758 832.8C759.8 833 761.6 833.3 763.4 833.5C765.2 833.8 766.8 834.3 768.5 834.7C770.1 835.1 771.7 835.5 773.2 835.9C773.9 836 774.6 836.3 775.2 836.6C772.1 832.8 769.4 828.4 766.2 824C762.6 818.9 758.9 813.5 755 808C751.4 802.2 747.7 796.3 743.8 790.3C739.8 784.3 736.4 777.7 732.7 771.1C730.9 767.8 729 764.4 727.2 761.1C726.3 759.3 725.5 757.5 724.6 755.7C724.3 755.7 724.1 755.7 723.9 755.7C723.4 755.7 723.1 755.3 722.7 755.2C719.5 753.7 715.1 751.6 710.8 749.6C706.5 747.6 702.2 745.5 698.9 744C698.6 743.8 698.3 743.8 698.1 743.6C676.7 748 602 756.4 554.6 676.2C554.6 676.2 657.4 631.9 703.7 741.4C706.4 742.7 709.5 744.2 712.6 745.6C715.8 747.1 719 748.6 721.8 749.9C720.2 746.6 718.5 743.2 716.9 739.8C715.4 736.1 713.9 732.4 712.3 728.6C709 721.2 706.6 713.3 703.9 705.4C702.5 701.5 701.5 697.5 700.4 693.4C699.4 689.4 698.1 685.4 697.2 681.3C695.9 675.2 694.6 669.1 693.5 662.9C693.2 662.3 692.9 661.7 692.6 661.1C690.8 657.6 689.2 653.4 686.7 649.1C684.3 644.8 681.9 640.2 679.2 635.7C674 626.6 668.3 617.7 664 611.1C663.5 610.2 662.8 609.6 662.5 608.7C662.3 608.2 662.1 607.8 661.9 607.4C649.9 606 560.7 592.2 560.6 489C560.6 489 686.8 515.5 664.1 604.3C664.2 604.4 664.2 604.4 664.3 604.5C664.9 605.1 665.5 605.7 666.1 606.4C666.7 607.1 667 608 667.6 608.8C671.9 615.5 677.6 624.4 682.9 633.6C685.7 638.1 688.1 642.8 690.5 647.2C690.7 647.5 690.8 647.8 691 648.2C688.9 634.5 687.4 620.9 685.9 607.4C685 599.3 684 591.3 683 583.4C682 575.5 680.7 567.6 679.6 560C678.1 552.4 676.7 544.9 675.3 537.6C674.6 533.9 673.9 530.3 673.2 526.7C672.4 523.1 671.5 519.7 670.7 516.2C669.2 510 667.7 504 666.3 498.2C665.5 496.7 664.7 495.2 663.6 493.7C662.4 491.8 661.1 489.9 659.7 488.2C658.4 486.4 656.9 484.6 655.4 483C654 481.3 652.3 479.8 650.8 478.3C647.7 475.4 644.6 472.8 641.8 470.8C641.2 470.2 640.4 469.9 639.8 469.4C639.2 468.8 638.7 468.3 638.2 467.8L638.1 467.7C620.1 468.5 560.3 465.7 550.9 396.2C550.9 396.2 631.8 386.9 643.2 466.5C643.6 466.8 644 467.1 644.4 467.4C647.3 469.5 650.5 472.2 653.8 475.3C655.4 476.9 657.1 478.5 658.6 480.3C660 481.8 661.3 483.5 662.6 485.1C661.9 482.6 661.2 480.2 660.5 477.8C658.7 471.7 656.7 466.1 655.1 460.7Z" fill="#E9EDF7"/>
<path d="M617.2 836.3C617.2 775.8 623.2 735.4 576.8 721.2C530.4 707.1 528.3 666.7 528.3 666.7H488.2H429.4H389.3C389.3 666.7 387.3 707.1 340.9 721.2C294.4 735.3 300.5 775.7 300.5 836.3C300.5 896.8 300.5 1167.3 300.5 1167.3C300.5 1167.3 294.4 1243.3 363.1 1243.3C387.4 1243.3 410.2 1243.3 429.4 1243.3C429.4 1243.3 453.1 1243.3 488.2 1243.3C507.5 1243.3 530.3 1243.3 554.6 1243.3C623.2 1243.3 617.2 1167.3 617.2 1167.3C617.2 1167.3 617.2 896.8 617.2 836.3Z" fill="#91A2CA"/>
<path d="M554.9 545.8C554.2 535.8 551.7 527.8 543.5 518.9C529.7 504.1 523 465.6 523 452.2C523 431.4 507.2 431.4 507.2 431.4H497H496.9H491L486 431.3L485.8 431.4H431.9L431.7 431.3L426.7 431.4H420.8H420.7H410.5C410.5 431.4 394.7 431.4 394.7 452.2C394.7 465.6 388 504.1 374.2 518.9C365.9 527.9 363.5 535.8 362.8 545.8H362.7V547.6C362.4 553.6 362.7 560.5 362.7 568.7V679H555.1V545.8H554.9Z" fill="#6652FF"/>
<path d="M546 653V549.1H541.4V653H527.4V549.1H522.7V653H508.8V549.1H504.1V653H490.1V549.1H485.4V653H471.5V549.1H466.8V653H452.8V549.1H448.2V653H434.2V549.1H429.5V653H415.5V549.1H410.8V653H396.9V549.1H392.2V653H378.3V549.1H373.6V653H362.5V663.1H555.1V653H546Z" fill="#CCCCCC"/>
<path d="M569.2 1170.8C569.2 1184.2 558.4 1195 545 1195H372.7C359.3 1195 348.5 1184.2 348.5 1170.8V785.9C348.5 772.5 359.4 761.6 372.7 761.6H545C558.4 761.6 569.2 772.4 569.2 785.9V1170.8Z" fill="#333A7E"/>
<path d="M543.3 1023.3C543.3 1027.9 539.6 1031.2 535 1031.2H382.6C378 1031.2 374.4 1027.9 374.4 1023.3C374.4 1018.7 378.1 1015.4 382.6 1015.4H535.1C539.6 1015.4 543.3 1018.7 543.3 1023.3Z" fill="#D8E2FB"/>
<path d="M543.3 1069.1C543.3 1073.7 539.6 1077 535 1077H382.6C378 1077 374.4 1073.7 374.4 1069.1C374.4 1064.5 378.1 1061.2 382.6 1061.2H535.1C539.6 1061.2 543.3 1064.6 543.3 1069.1Z" fill="#D8E2FB"/>
<path d="M543.3 1115C543.3 1119.6 539.6 1122.9 535 1122.9H382.6C378 1122.9 374.4 1119.6 374.4 1115C374.4 1110.4 378.1 1107.1 382.6 1107.1H535.1C539.6 1107.1 543.3 1110.4 543.3 1115Z" fill="#D8E2FB"/>
<path d="M1443 518.2H1276.6V649.2H1443V518.2Z" fill="#F36C42"/>
<path d="M1443 1217C1443 1228.9 1433.3 1238.6 1421.4 1238.6H614.6C602.7 1238.6 593 1228.9 593 1217V632.2C593 620.3 602.7 610.6 614.6 610.6H1421.4C1433.3 610.6 1443 620.3 1443 632.2V1217Z" fill="#6652FF"/>
<path d="M1278 1217.1C1278 1228.7 1271.8 1238.7 1262.7 1238.7H645.9C636.8 1238.7 629 1228.7 629 1217.1V650.5C629 638.9 636.8 630.6 645.9 630.6H1262.7C1271.8 630.6 1278 638.9 1278 650.5V1217.1Z" fill="#7FB4DE"/>
<path d="M1289 724.6H613V741.6H1289V724.6Z" fill="#6652FF"/>
<path d="M1293 895.6H617V913.6H1293V895.6Z" fill="#6652FF"/>
<path d="M1265 1217C1265 1228.9 1255.3 1238.6 1243.4 1238.6H660.6C648.7 1238.6 639 1228.9 639 1217V1117.2C639 1105.3 648.7 1095.6 660.6 1095.6H1243.4C1255.3 1095.6 1265 1105.3 1265 1117.2V1217Z" fill="#333A7E"/>
<path d="M1244 1117.6H661V1216.6H1244V1117.6Z" fill="#DBEDF1"/>
<path d="M980.3 1124.9H954.4V1205.6H980.3V1124.9Z" fill="#7FB4DE"/>
<path d="M1007.8 1152.3H927.1V1178.2H1007.8V1152.3Z" fill="#7FB4DE"/>
<path d="M956.8 1033.1C956.8 1037.3 953.4 1040.8 949.1 1040.8H807C802.8 1040.8 799.3 1037.4 799.3 1033.1V943.9C799.3 939.7 802.7 936.2 807 936.2H949.1C953.3 936.2 956.8 939.6 956.8 943.9V1033.1Z" fill="white"/>
<path d="M948.2 1033.1C948.2 1037.3 944.8 1040.8 940.5 1040.8H798.3C794.1 1040.8 790.6 1037.4 790.6 1033.1V943.9C790.6 939.7 794 936.2 798.3 936.2H940.4C944.6 936.2 948.1 939.6 948.1 943.9V1033.1H948.2Z" fill="#333A7E"/>
<path d="M884.1 1064.3C884.1 1068.5 880.7 1072 876.4 1072H861.9C857.7 1072 854.2 1068.6 854.2 1064.3V1001.1C854.2 996.9 857.6 993.4 861.9 993.4H876.4C880.6 993.4 884.1 996.8 884.1 1001.1V1064.3Z" fill="white"/>
<path d="M875.2 1064.3C875.2 1068.5 871.8 1072 867.5 1072H853C848.8 1072 845.3 1068.6 845.3 1064.3V1001.1C845.3 996.9 848.7 993.4 853 993.4H867.5C871.7 993.4 875.2 996.8 875.2 1001.1V1064.3Z" fill="#7FB4DE"/>
<path d="M970.8 1066.4H790.7V1097.6H970.8V1066.4Z" fill="#333A7E"/>
<path d="M970.8 1066.4H932.4V1097.6H970.8V1066.4Z" fill="white"/>
<path d="M742.2 668.6C742.2 671.6 739.8 674 736.8 674H714C711 674 708.6 671.6 708.6 668.6V668.5C708.6 665.5 711 663.1 714 663.1H736.8C739.8 663.1 742.2 665.5 742.2 668.5V668.6Z" fill="#F75D77"/>
<path d="M734.1 673.2H733.3H717.3H716.5C709.5 673.2 704 678.9 704 685.8V711.1C704 718.1 709.5 723.7 716.5 723.7H717.3H733.3H734.1C741.1 723.7 746.9 718 746.9 711.1V685.8C746.9 678.8 741.1 673.2 734.1 673.2Z" fill="#FEC465"/>
<path d="M739.3 689.2H711.5V703.5H739.3V689.2Z" fill="white"/>
<path d="M808.8 656.2C808.8 659.9 805.8 662.8 802.2 662.8H774.2C770.5 662.8 767.6 659.8 767.6 656.2V656C767.6 652.3 770.6 649.4 774.2 649.4H802.2C805.9 649.4 808.8 652.4 808.8 656V656.2Z" fill="#F75D77"/>
<path d="M798.8 661.8H797.8H778.2H777.2C768.7 661.8 761.9 668.7 761.9 677.3V708.3C761.9 716.8 768.7 723.8 777.2 723.8H778.2H797.8H798.8C807.3 723.8 814.5 716.9 814.5 708.3V677.3C814.5 668.7 807.4 661.8 798.8 661.8Z" fill="white"/>
<path d="M805.2 681.4H771.1V698.9H805.2V681.4Z" fill="#7FB4DE"/>
<path d="M1120.6 668.8C1120.6 671.8 1118.2 674.2 1115.2 674.2H1092.4C1089.4 674.2 1087 671.8 1087 668.8V668.7C1087 665.7 1089.4 663.3 1092.4 663.3H1115.2C1118.2 663.3 1120.6 665.7 1120.6 668.7V668.8Z" fill="white"/>
<path d="M1112.5 673.3H1111.7H1095.7H1094.9C1087.9 673.3 1082.4 679 1082.4 685.9V711.2C1082.4 718.2 1087.9 723.8 1094.9 723.8H1095.7H1111.7H1112.5C1119.5 723.8 1125.3 718.1 1125.3 711.2V686C1125.2 679 1119.4 673.3 1112.5 673.3Z" fill="#F75D77"/>
<path d="M1117.7 689.3H1089.9V703.6H1117.7V689.3Z" fill="white"/>
<path d="M1187.2 656.3C1187.2 660 1184.2 662.9 1180.6 662.9H1152.6C1148.9 662.9 1146 659.9 1146 656.3V656.2C1146 652.5 1149 649.6 1152.6 649.6H1180.6C1184.3 649.6 1187.2 652.6 1187.2 656.2V656.3Z" fill="#F75D77"/>
<path d="M1177.2 661.9H1176.2H1156.6H1155.6C1147.1 661.9 1140.3 668.8 1140.3 677.4V708.4C1140.3 716.9 1147.1 723.9 1155.6 723.9H1156.6H1176.2H1177.2C1185.7 723.9 1192.9 717 1192.9 708.4V677.4C1192.8 668.9 1185.7 661.9 1177.2 661.9Z" fill="white"/>
<path d="M1183.6 681.5H1149.5V699H1183.6V681.5Z" fill="#7FB4DE"/>
<path d="M1247.6 828.3C1247.6 832 1244.6 834.9 1241 834.9H1213C1209.3 834.9 1206.4 831.9 1206.4 828.3V828.2C1206.4 824.5 1209.4 821.6 1213 821.6H1241C1244.7 821.6 1247.6 824.6 1247.6 828.2V828.3Z" fill="#F75D77"/>
<path d="M1237.6 833.9H1236.6H1217H1216C1207.5 833.9 1200.7 840.8 1200.7 849.4V880.4C1200.7 888.9 1207.5 895.9 1216 895.9H1217H1236.6H1237.6C1246.1 895.9 1253.3 889 1253.3 880.4V849.4C1253.3 840.9 1246.2 833.9 1237.6 833.9Z" fill="#FEC465"/>
<path d="M1244 853.5H1209.9V871H1244V853.5Z" fill="white"/>
<path d="M864 890.4V888.6V886.4C864 886.4 864 852.9 864 843.6C864 842.5 864 841.7 864 841.4V839.6C864 839.6 863.9 835 860 834C859.9 833.9 857.8 833.6 857.8 833.6H844.6H838.5H825.3C825.3 833.6 824.2 833.9 824 834C820 835.1 820.9 839.6 820.9 839.6V841.4C820.9 841.7 820.9 842.5 820.9 843.6C820.9 852.9 820.9 886.4 820.9 886.4V888.6V890.4C820.9 890.4 820 894.6 824 895.7C824.1 895.8 823.6 895.7 823.6 895.7H825.3C828.6 895.7 834.1 895.7 838.5 895.7C838.5 895.7 841.2 895.7 844.6 895.7C848.9 895.7 854.5 895.7 857.8 895.7H859.5C859.5 895.7 859.9 895.8 860.1 895.7C864 894.6 864 890.4 864 890.4Z" fill="#375378"/>
<path d="M857 881.5V880C857 880 857 856.5 857 850C857 849.2 857 848.7 857 848.5V847.3C857 847.3 857.1 844.4 854.3 843.7C854.2 843.6 852.9 843.7 852.9 843.7H843.7H839.4H830.2C830.2 843.7 828.8 843.6 828.7 843.7C825.9 844.4 826 847.3 826 847.3V848.5C826 848.7 826 849.3 826 850C826 856.5 826 880 826 880V881.5V882.7C826 882.7 826 886.2 828.7 887C828.8 887.1 830.2 887.6 830.2 887.6C832.5 887.6 836.4 887.6 839.4 887.6C839.4 887.6 841.3 887.6 843.7 887.6C846.7 887.6 850.6 887.6 852.9 887.6C852.9 887.6 854.2 887.1 854.3 887C857.1 886.3 857 882.7 857 882.7V881.5Z" fill="white"/>
<path d="M856 854.8H827.1V873.9H856V854.8Z" fill="#7FB4DE"/>
<path d="M856.1 828.5H826.4V834.5H856.1V828.5Z" fill="#375378"/>
<path d="M860.2 830.7C860.3 830.4 860.3 830 860.3 829.7V819.1C860.3 817.2 858.9 815.7 857.2 815.7H825.9C824.2 815.7 822.8 817.2 822.8 819.1V829.7C822.8 830 822.8 830.4 822.9 830.7H860.2Z" fill="#F75D77"/>
<path d="M825.1 821.3V830.7H823.7V821.3C823.7 820.9 824 820.6 824.4 820.6C824.8 820.6 825.1 820.9 825.1 821.3ZM828.1 820.6C827.7 820.6 827.4 820.9 827.4 821.3V830.7H828.8V821.3C828.8 820.9 828.5 820.6 828.1 820.6ZM831.8 820.6C831.4 820.6 831.1 820.9 831.1 821.3V830.7H832.5V821.3C832.5 820.9 832.2 820.6 831.8 820.6ZM835.6 820.6C835.2 820.6 834.9 820.9 834.9 821.3V830.7H836.3V821.3C836.3 820.9 835.9 820.6 835.6 820.6ZM839.3 820.6C838.9 820.6 838.6 820.9 838.6 821.3V830.7H840V821.3C840 820.9 839.7 820.6 839.3 820.6ZM843 820.6C842.6 820.6 842.3 820.9 842.3 821.3V830.7H843.7V821.3C843.7 820.9 843.4 820.6 843 820.6ZM846.8 820.6C846.4 820.6 846.1 820.9 846.1 821.3V830.7H847.5V821.3C847.5 820.9 847.1 820.6 846.8 820.6ZM850.5 820.6C850.1 820.6 849.8 820.9 849.8 821.3V830.7H851.2V821.3C851.2 820.9 850.9 820.6 850.5 820.6ZM854.2 820.6C853.8 820.6 853.5 820.9 853.5 821.3V830.7H854.9V821.3C854.9 820.9 854.6 820.6 854.2 820.6ZM858 820.6C857.6 820.6 857.3 820.9 857.3 821.3V830.7H858.7V821.3C858.7 820.9 858.3 820.6 858 820.6Z" fill="#B3B3B3"/>
<path d="M746.7 854.9C746.7 848.8 747.3 844.7 742.6 843.2C737.9 841.8 737.7 837.7 737.7 837.7H733.6H727.6H723.5C723.5 837.7 723.3 841.8 718.6 843.2C713.9 844.6 714.5 848.7 714.5 854.9C714.5 861 714.5 888.5 714.5 888.5C714.5 888.5 713.9 896.2 720.9 896.2C723.4 896.2 725.7 896.2 727.6 896.2C727.6 896.2 730 896.2 733.6 896.2C735.6 896.2 737.9 896.2 740.3 896.2C747.3 896.2 746.7 888.5 746.7 888.5C746.7 888.5 746.7 861.1 746.7 854.9Z" fill="#D8E2FB"/>
<path d="M740.4 825.6C740.3 824.6 740.1 823.8 739.2 822.9C737.8 821.4 737.1 817.5 737.1 816.1C737.1 814 735.5 814 735.5 814H734.5H733.9H733.4H727.9H727.4H726.8H725.8C725.8 814 724.2 814 724.2 816.1C724.2 817.5 723.5 821.4 722.1 822.9C721.3 823.8 721 824.6 720.9 825.6V825.8C720.9 826.4 720.9 827.1 720.9 827.9V839.1H740.4V825.6Z" fill="#F16178"/>
<path d="M739.5 836.3V825.8H739V836.3H737.6V825.8H737.1V836.3H735.7V825.8H735.2V836.3H733.8V825.8H733.4V836.3H731.9V825.8H731.5V836.3H730V825.8H729.6V836.3H728.2V825.8H727.7V836.3H726.3V825.8H725.8V836.3H724.4V825.8H723.9V836.3H722.5V825.8H722V836.3H720.9V837.4H740.4V836.3H739.5Z" fill="#CCCCCC"/>
<path d="M741.8 888.9C741.8 890.3 740.7 891.4 739.3 891.4H721.8C720.4 891.4 719.3 890.3 719.3 888.9V849.8C719.3 848.4 720.4 847.3 721.8 847.3H739.3C740.7 847.3 741.8 848.4 741.8 849.8V888.9Z" fill="#7FB4DE"/>
<path d="M739.4 853C739.4 853.5 739 853.8 738.6 853.8H723.1C722.6 853.8 722.3 853.5 722.3 853C722.3 852.5 722.7 852.2 723.1 852.2H738.6C739 852.2 739.4 852.5 739.4 853Z" fill="#D8E2FB"/>
<path d="M798.7 830.1V822.8H773.5V830.1C771.9 831 769.7 832.8 769.7 834.8V890.7C769.7 893.7 772.2 896.2 775.2 896.2H797.1C800.1 896.2 802.6 893.7 802.6 890.7V834.8C802.6 832.8 800.4 831.1 798.7 830.1Z" fill="white"/>
<path d="M799.8 851.2H772.4V868.1H799.8V851.2Z" fill="#7FB4DE"/>
<path d="M802.1 822.9C802.1 824.1 801.1 825 800 825H772.3C771.1 825 770.2 824 770.2 822.9V815C770.2 813.8 771.2 812.9 772.3 812.9H800C801.2 812.9 802.1 813.9 802.1 815V822.9Z" fill="#F75D77"/>
<path d="M687.8 830.1V822.8H662.6V830.1C661 831 658.8 832.8 658.8 834.8V890.7C658.8 893.7 661.3 896.2 664.3 896.2H686.2C689.2 896.2 691.7 893.7 691.7 890.7V834.8C691.6 832.8 689.4 831.1 687.8 830.1Z" fill="#D3E1FB"/>
<path d="M688.9 837.4H661.5V883.7H688.9V837.4Z" fill="#7FB4DE"/>
<path d="M691.2 822.9C691.2 824.1 690.2 825 689.1 825H661.4C660.2 825 659.3 824 659.3 822.9V815C659.3 813.8 660.3 812.9 661.4 812.9H689C690.2 812.9 691.1 813.9 691.1 815V822.9H691.2Z" fill="#375378"/>
<path d="M687 844.4C687 845.1 686.4 845.6 685.8 845.6H664.7C664 845.6 663.5 845 663.5 844.4C663.5 843.7 664.1 843.2 664.7 843.2H685.8C686.5 843.2 687 843.7 687 844.4Z" fill="#C1E1FF"/>
<path d="M687 849.1C687 849.8 686.4 850.3 685.8 850.3H664.7C664 850.3 663.5 849.7 663.5 849.1C663.5 848.4 664.1 847.9 664.7 847.9H685.8C686.4 847.9 687 848.4 687 849.1Z" fill="#C1E1FF"/>
<path d="M1093 890.4V888.6V886.4C1093 886.4 1093 852.9 1093 843.6C1093 842.5 1093 841.7 1093 841.4V839.6C1093 839.6 1092.9 835 1089 834C1088.9 833.9 1086.8 833.6 1086.8 833.6H1073.6H1067.5H1054.3C1054.3 833.6 1052.7 833.9 1052.5 834C1048.5 835.1 1048.9 839.6 1048.9 839.6V841.4C1048.9 841.7 1048.9 842.5 1048.9 843.6C1048.9 852.9 1048.9 886.4 1048.9 886.4V888.6V890.4C1048.9 890.4 1048.5 894.6 1052.5 895.7C1052.6 895.8 1052.6 895.7 1052.6 895.7H1054.3C1057.6 895.7 1063.1 895.7 1067.5 895.7C1067.5 895.7 1070.2 895.7 1073.6 895.7C1077.9 895.7 1083.5 895.7 1086.8 895.7H1088.5C1088.5 895.7 1088.9 895.8 1089.1 895.7C1092.9 894.6 1093 890.4 1093 890.4Z" fill="#375378"/>
<path d="M1086 881.5V880C1086 880 1086 856.5 1086 850C1086 849.2 1086 848.7 1086 848.5V847.3C1086 847.3 1086.1 844.4 1083.3 843.7C1083.2 843.6 1081.9 843.7 1081.9 843.7H1072.7H1068.4H1059.2C1059.2 843.7 1057.8 843.6 1057.7 843.7C1054.9 844.4 1055 847.3 1055 847.3V848.5C1055 848.7 1055 849.3 1055 850C1055 856.5 1055 880 1055 880V881.5V882.7C1055 882.7 1055 886.2 1057.7 887C1057.8 887.1 1059.2 887.6 1059.2 887.6C1061.5 887.6 1065.4 887.6 1068.4 887.6C1068.4 887.6 1070.3 887.6 1072.7 887.6C1075.7 887.6 1079.6 887.6 1081.9 887.6C1081.9 887.6 1083.2 887.1 1083.3 887C1086.1 886.3 1086 882.7 1086 882.7V881.5Z" fill="white"/>
<path d="M1085 854.8H1056.1V873.9H1085V854.8Z" fill="#7FB4DE"/>
<path d="M1085.1 828.5H1055.4V834.5H1085.1V828.5Z" fill="#375378"/>
<path d="M1089.2 830.7C1089.3 830.4 1089.3 830 1089.3 829.7V819.1C1089.3 817.2 1087.9 815.7 1086.2 815.7H1054.9C1053.2 815.7 1051.8 817.2 1051.8 819.1V829.7C1051.8 830 1051.8 830.4 1051.9 830.7H1089.2Z" fill="#F75D77"/>
<path d="M1054.1 821.3V830.7H1052.7V821.3C1052.7 820.9 1053 820.6 1053.4 820.6C1053.7 820.6 1054.1 820.9 1054.1 821.3ZM1057.1 820.6C1056.7 820.6 1056.4 820.9 1056.4 821.3V830.7H1057.8V821.3C1057.8 820.9 1057.5 820.6 1057.1 820.6ZM1060.8 820.6C1060.4 820.6 1060.1 820.9 1060.1 821.3V830.7H1061.5V821.3C1061.5 820.9 1061.2 820.6 1060.8 820.6ZM1064.6 820.6C1064.2 820.6 1063.9 820.9 1063.9 821.3V830.7H1065.3V821.3C1065.3 820.9 1064.9 820.6 1064.6 820.6ZM1068.3 820.6C1067.9 820.6 1067.6 820.9 1067.6 821.3V830.7H1069V821.3C1069 820.9 1068.7 820.6 1068.3 820.6ZM1072 820.6C1071.6 820.6 1071.3 820.9 1071.3 821.3V830.7H1072.7V821.3C1072.7 820.9 1072.4 820.6 1072 820.6ZM1075.8 820.6C1075.4 820.6 1075.1 820.9 1075.1 821.3V830.7H1076.5V821.3C1076.4 820.9 1076.1 820.6 1075.8 820.6ZM1079.5 820.6C1079.1 820.6 1078.8 820.9 1078.8 821.3V830.7H1080.2V821.3C1080.2 820.9 1079.9 820.6 1079.5 820.6ZM1083.2 820.6C1082.8 820.6 1082.5 820.9 1082.5 821.3V830.7H1083.9V821.3C1083.9 820.9 1083.6 820.6 1083.2 820.6ZM1087 820.6C1086.6 820.6 1086.3 820.9 1086.3 821.3V830.7H1087.7V821.3C1087.6 820.9 1087.3 820.6 1087 820.6Z" fill="#B3B3B3"/>
<path d="M975.7 854.9C975.7 848.8 976.3 844.7 971.6 843.2C966.9 841.8 966.7 837.7 966.7 837.7H962.6H956.6H952.5C952.5 837.7 952.3 841.8 947.6 843.2C942.9 844.6 943.5 848.7 943.5 854.9C943.5 861 943.5 888.5 943.5 888.5C943.5 888.5 942.9 896.2 949.9 896.2C952.4 896.2 954.7 896.2 956.6 896.2C956.6 896.2 959 896.2 962.6 896.2C964.6 896.2 966.9 896.2 969.3 896.2C976.3 896.2 975.7 888.5 975.7 888.5C975.7 888.5 975.7 861.1 975.7 854.9Z" fill="#D8E2FB"/>
<path d="M969.4 825.6C969.3 824.6 969.1 823.8 968.2 822.9C966.8 821.4 966.1 817.5 966.1 816.1C966.1 814 964.5 814 964.5 814H963.5H962.9H962.4H956.9H956.4H955.8H954.8C954.8 814 953.2 814 953.2 816.1C953.2 817.5 952.5 821.4 951.1 822.9C950.3 823.8 950 824.6 949.9 825.6V825.8C949.9 826.4 949.9 827.1 949.9 827.9V839.1H969.4V825.6Z" fill="#F16178"/>
<path d="M968.5 836.3V825.8H968V836.3H966.6V825.8H966.1V836.3H964.7V825.8H964.2V836.3H962.8V825.8H962.3V836.3H960.9V825.8H960.4V836.3H959V825.8H958.6V836.3H957.1V825.8H956.7V836.3H955.2V825.8H954.8V836.3H953.4V825.8H952.9V836.3H951.5V825.8H951V836.3H949.9V837.4H969.4V836.3H968.5Z" fill="#CCCCCC"/>
<path d="M970.8 888.9C970.8 890.3 969.7 891.4 968.3 891.4H950.8C949.4 891.4 948.3 890.3 948.3 888.9V849.8C948.3 848.4 949.4 847.3 950.8 847.3H968.3C969.7 847.3 970.8 848.4 970.8 849.8V888.9Z" fill="#7FB4DE"/>
<path d="M968.4 853C968.4 853.5 968 853.8 967.6 853.8H952.1C951.6 853.8 951.3 853.5 951.3 853C951.3 852.5 951.7 852.2 952.1 852.2H967.6C968 852.2 968.4 852.5 968.4 853Z" fill="#D8E2FB"/>
<path d="M1027.7 830.1V822.8H1002.5V830.1C1000.9 831 998.7 832.8 998.7 834.8V890.7C998.7 893.7 1001.2 896.2 1004.2 896.2H1026.1C1029.1 896.2 1031.6 893.7 1031.6 890.7V834.8C1031.6 832.8 1029.4 831.1 1027.7 830.1Z" fill="white"/>
<path d="M1028.8 851.2H1001.4V868.1H1028.8V851.2Z" fill="#7FB4DE"/>
<path d="M1031.1 822.9C1031.1 824.1 1030.1 825 1029 825H1001.3C1000.1 825 999.2 824 999.2 822.9V815C999.2 813.8 1000.2 812.9 1001.3 812.9H1029C1030.2 812.9 1031.1 813.9 1031.1 815V822.9Z" fill="#F75D77"/>
<path d="M916.8 830.1V822.8H891.6V830.1C890 831 887.8 832.8 887.8 834.8V890.7C887.8 893.7 890.3 896.2 893.3 896.2H915.2C918.2 896.2 920.7 893.7 920.7 890.7V834.8C920.6 832.8 918.4 831.1 916.8 830.1Z" fill="#D3E1FB"/>
<path d="M917.9 837.4H890.5V883.7H917.9V837.4Z" fill="#7FB4DE"/>
<path d="M920.2 822.9C920.2 824.1 919.2 825 918.1 825H890.4C889.2 825 888.3 824 888.3 822.9V815C888.3 813.8 889.3 812.9 890.4 812.9H918.1C919.3 812.9 920.2 813.9 920.2 815V822.9Z" fill="#375378"/>
<path d="M916 844.4C916 845.1 915.4 845.6 914.8 845.6H893.7C893 845.6 892.5 845 892.5 844.4C892.5 843.7 893.1 843.2 893.7 843.2H914.8C915.5 843.2 916 843.7 916 844.4Z" fill="#C1E1FF"/>
<path d="M915.9 849.1C915.9 849.8 915.3 850.3 914.7 850.3H893.6C892.9 850.3 892.4 849.7 892.4 849.1C892.4 848.4 893 847.9 893.6 847.9H914.7C915.4 847.9 915.9 848.4 915.9 849.1Z" fill="#C1E1FF"/>
<path d="M1058 717.5V715.7V713.5C1058 713.5 1058 680 1058 670.7C1058 669.6 1058 668.8 1058 668.5V666.7C1058 666.7 1058.2 662.5 1054.2 661.5C1054.1 661.4 1052.2 661.5 1052.2 661.5H1039H1032.9H1019.7C1019.7 661.5 1018.3 661.3 1018.2 661.5C1014.2 662.6 1014.9 666.7 1014.9 666.7V668.5C1014.9 668.8 1014.9 669.6 1014.9 670.7C1014.9 680 1014.9 713.5 1014.9 713.5V715.7V717.5C1014.9 717.5 1014.2 721.6 1018.2 722.7C1018.3 722.8 1018 722.6 1018 722.6H1019.7C1023 722.6 1028.5 722.6 1032.9 722.6C1032.9 722.6 1035.6 722.6 1039 722.6C1043.3 722.6 1048.9 722.6 1052.2 722.6H1053.9C1053.9 722.6 1054.1 722.8 1054.2 722.7C1058.2 721.7 1058 717.5 1058 717.5Z" fill="#375378"/>
<path d="M1051 708.7V707.2C1051 707.2 1051 683.7 1051 677.2C1051 676.4 1051 675.9 1051 675.7V674.5C1051 674.5 1051.3 672 1048.6 671.3C1048.5 671.2 1047.4 671.7 1047.4 671.7H1038.2H1033.9H1024.7C1024.7 671.7 1023.6 671.2 1023.5 671.3C1020.7 672 1021.1 674.5 1021.1 674.5V675.7C1021.1 675.9 1021.1 676.5 1021.1 677.2C1021.1 683.7 1021.1 707.2 1021.1 707.2V708.7V709.9C1021.1 709.9 1020.8 713.3 1023.5 714.1C1023.6 714.2 1024.7 714.6 1024.7 714.6C1027 714.6 1030.9 714.6 1033.9 714.6C1033.9 714.6 1035.8 714.6 1038.2 714.6C1041.2 714.6 1045.1 714.6 1047.4 714.6C1047.4 714.6 1048.5 714.2 1048.6 714.1C1051.4 713.4 1051.1 709.9 1051.1 709.9V708.7H1051Z" fill="white"/>
<path d="M1050.4 681.9H1021.5V701H1050.4V681.9Z" fill="#7FB4DE"/>
<path d="M1050.5 655.7H1020.8V661.7H1050.5V655.7Z" fill="#375378"/>
<path d="M1054.6 657.8C1054.7 657.5 1054.7 657.1 1054.7 656.8V646.2C1054.7 644.3 1053.3 642.8 1051.6 642.8H1020.3C1018.6 642.8 1017.2 644.3 1017.2 646.2V656.8C1017.2 657.1 1017.2 657.5 1017.3 657.8H1054.6Z" fill="#F75D77"/>
<path d="M1019.5 648.4V657.8H1018.1V648.4C1018.1 648 1018.4 647.7 1018.8 647.7C1019.2 647.8 1019.5 648.1 1019.5 648.4ZM1022.5 647.8C1022.1 647.8 1021.8 648.1 1021.8 648.5V657.9H1023.2V648.5C1023.2 648.1 1022.9 647.8 1022.5 647.8ZM1026.3 647.8C1025.9 647.8 1025.6 648.1 1025.6 648.5V657.9H1027V648.5C1027 648.1 1026.6 647.8 1026.3 647.8ZM1030 647.8C1029.6 647.8 1029.3 648.1 1029.3 648.5V657.9H1030.7V648.5C1030.7 648.1 1030.4 647.8 1030 647.8ZM1033.7 647.8C1033.3 647.8 1033 648.1 1033 648.5V657.9H1034.4V648.5C1034.4 648.1 1034.1 647.8 1033.7 647.8ZM1037.5 647.8C1037.1 647.8 1036.8 648.1 1036.8 648.5V657.9H1038.2V648.5C1038.2 648.1 1037.8 647.8 1037.5 647.8ZM1041.2 647.8C1040.8 647.8 1040.5 648.1 1040.5 648.5V657.9H1041.9V648.5C1041.9 648.1 1041.6 647.8 1041.2 647.8ZM1044.9 647.8C1044.5 647.8 1044.2 648.1 1044.2 648.5V657.9H1045.6V648.5C1045.6 648.1 1045.3 647.8 1044.9 647.8ZM1048.7 647.8C1048.3 647.8 1048 648.1 1048 648.5V657.9H1049.4V648.5C1049.3 648.1 1049 647.8 1048.7 647.8ZM1052.4 647.8C1052 647.8 1051.7 648.1 1051.7 648.5V657.9H1053.1V648.5C1053.1 648.1 1052.8 647.8 1052.4 647.8Z" fill="#B3B3B3"/>
<path d="M941.1 682.1C941.1 676 941.7 671.9 937 670.4C932.3 669 932.1 664.9 932.1 664.9H928H922H917.9C917.9 664.9 917.7 669 913 670.4C908.3 671.8 908.9 675.9 908.9 682.1C908.9 688.2 908.9 715.7 908.9 715.7C908.9 715.7 908.3 723.4 915.3 723.4C917.8 723.4 920.1 723.4 922 723.4C922 723.4 924.4 723.4 928 723.4C930 723.4 932.3 723.4 934.7 723.4C941.7 723.4 941.1 715.7 941.1 715.7C941.1 715.7 941.1 688.3 941.1 682.1Z" fill="#D8E2FB"/>
<path d="M934.8 652.8C934.7 651.8 934.5 651 933.6 650.1C932.2 648.6 931.5 644.7 931.5 643.3C931.5 641.2 929.9 641.2 929.9 641.2H928.9H928.3H927.8H922.3H921.8H921.2H920.2C920.2 641.2 918.6 641.2 918.6 643.3C918.6 644.7 917.9 648.6 916.5 650.1C915.7 651 915.4 651.8 915.3 652.8V653C915.3 653.6 915.3 654.3 915.3 655.1V666.3H934.8V652.8Z" fill="#F16178"/>
<path d="M933.9 663.5V653H933.5V663.5H932V653H931.6V663.5H930.1V653H929.7V663.5H928.3V653H927.8V663.5H926.4V653H925.9V663.5H924.5V653H924V663.5H922.6V653H922.1V663.5H920.7V653H920.2V663.5H918.8V653H918.3V663.5H916.9V653H916.4V663.5H915.3V664.5H934.8V663.5H933.9Z" fill="#CCCCCC"/>
<path d="M936.2 716C936.2 717.4 935.1 718.5 933.7 718.5H916.2C914.8 718.5 913.7 717.4 913.7 716V677C913.7 675.6 914.8 674.5 916.2 674.5H933.7C935.1 674.5 936.2 675.6 936.2 677V716Z" fill="#7FB4DE"/>
<path d="M933.8 680.1C933.8 680.6 933.4 680.9 933 680.9H917.5C917 680.9 916.7 680.6 916.7 680.1C916.7 679.6 917.1 679.3 917.5 679.3H933C933.4 679.3 933.8 679.7 933.8 680.1Z" fill="#D8E2FB"/>
<path d="M993.2 657.3V650H968V657.3C966.4 658.2 964.2 660 964.2 662V717.9C964.2 720.9 966.7 723.4 969.7 723.4H991.6C994.6 723.4 997.1 720.9 997.1 717.9V662C997 660 994.8 658.3 993.2 657.3Z" fill="white"/>
<path d="M994.3 678.4H966.9V695.3H994.3V678.4Z" fill="#7FB4DE"/>
<path d="M996.6 650.1C996.6 651.3 995.6 652.2 994.5 652.2H966.8C965.6 652.2 964.7 651.2 964.7 650.1V642.2C964.7 641 965.7 640.1 966.8 640.1H994.5C995.7 640.1 996.6 641.1 996.6 642.2V650.1Z" fill="#F75D77"/>
<path d="M882.2 657.3V650H857V657.3C855.4 658.2 853.2 660 853.2 662V717.9C853.2 720.9 855.7 723.4 858.7 723.4H880.6C883.6 723.4 886.1 720.9 886.1 717.9V662C886 660 883.8 658.3 882.2 657.3Z" fill="#D3E1FB"/>
<path d="M883.3 664.6H855.9V710.9H883.3V664.6Z" fill="#7FB4DE"/>
<path d="M885.6 650.1C885.6 651.3 884.6 652.2 883.5 652.2H855.8C854.6 652.2 853.7 651.2 853.7 650.1V642.2C853.7 641 854.7 640.1 855.8 640.1H883.5C884.7 640.1 885.6 641.1 885.6 642.2V650.1Z" fill="#375378"/>
<path d="M881.5 671.6C881.5 672.3 880.9 672.8 880.3 672.8H859.2C858.5 672.8 858 672.2 858 671.6C858 670.9 858.6 670.4 859.2 670.4H880.3C880.9 670.4 881.5 670.9 881.5 671.6Z" fill="#C1E1FF"/>
<path d="M881.4 676.3C881.4 677 880.8 677.5 880.2 677.5H859C858.3 677.5 857.8 676.9 857.8 676.3C857.8 675.6 858.4 675.1 859 675.1H880.1C880.8 675 881.4 675.6 881.4 676.3Z" fill="#C1E1FF"/>
<path d="M1240.5 1130.5H1235V1084.1C1235 1077.3 1240 1071.8 1246.2 1071.8H1271.8C1277.9 1071.8 1282.9 1077.3 1282.9 1084.1V1129.8H1277.4V1084.1C1277.4 1080.4 1274.9 1077.3 1271.8 1077.3H1246.2C1243.1 1077.3 1240.6 1080.3 1240.6 1084.1V1130.5H1240.5Z" fill="#375378"/>
<path d="M1327 1108.7H1204.1V1238.4H1327V1108.7Z" fill="white"/>
<path d="M1228.5 1108.7H1204.1V1238.4H1228.5V1108.7Z" fill="#7FB4DE"/>
<path d="M1257.1 1130.5H1251.6V1084.1C1251.6 1077.3 1256.6 1071.8 1262.7 1071.8H1288.3C1294.4 1071.8 1299.4 1077.3 1299.4 1084.1V1129.8H1293.9V1084.1C1293.9 1080.4 1291.4 1077.3 1288.3 1077.3H1262.7C1259.6 1077.3 1257.1 1080.3 1257.1 1084.1V1130.5Z" fill="white"/>
<path d="M1273.7 1148.3C1259.7 1148.3 1248.4 1159.6 1248.4 1173.6C1248.4 1187.5 1259.7 1198.9 1273.7 1198.9C1287.6 1198.9 1299 1187.6 1299 1173.6C1298.9 1159.6 1287.6 1148.3 1273.7 1148.3ZM1290.7 1178.9H1279V1190.6H1268.3V1178.9H1256.6V1168.2H1268.3V1156.5H1279V1168.2H1290.7V1178.9Z" fill="#7FB4DE"/>
<path d="M639.2 905.7C632.4 900.7 621.9 908.8 617.4 916.1C613.3 922.8 595.6 1009 595.6 1009L625.6 1016L639.2 905.7Z" fill="#F15A24"/>
<path d="M595.7 1009L588.3 1037.8L624.6 1068L625.7 1016L595.7 1009Z" fill="url(#paint1_linear_56_2)"/>
<path d="M709.6 865.2C709.6 865.2 694.1 885.2 703.8 900.3L661.7 888.8C661.7 888.8 669.4 874 669 856.1C669 855.5 669 854.8 668.9 854.2C667.8 835.5 709.6 865.2 709.6 865.2Z" fill="url(#paint2_linear_56_2)"/>
<path d="M695.2 857.7L684.4 865.2L668.8 863.2L648.7 819.7C648.7 819.7 654 796.2 668.4 795.7C682.8 795.2 721.2 786.1 724.6 779.4C728 772.7 749.6 784.7 744.8 798.6C740 812.5 731.9 822.8 731.9 822.8L695.2 857.7Z" fill="#253336"/>
<path d="M732.2 1095.6L778.3 1264.6H636.2L614.3 1144.3L614.6 1095.6H732.2Z" fill="#333A7E"/>
<path d="M661.7 888.7C661.7 888.7 626.8 895.9 619.6 923.3C612.4 950.7 611.6 1132.6 611.6 1132.6L740.7 1128.3L728.4 929.3L703.9 899L661.7 888.7Z" fill="#F36C42"/>
<path d="M732.7 942C732.7 942 726.7 918 711.9 919.9C711 920 682.3 932.9 691.1 955.9C695.4 967.2 707.3 997.3 719.7 1024.5L755.8 996.6L732.7 942Z" fill="#F15A24"/>
<path d="M862.6 947.8C859.2 946.7 849.6 970.9 839 971.2C832.3 971.4 840.4 958.5 837.2 957.6C834 956.8 831.3 969.7 825.6 973.7C819.8 977.7 820.2 983.4 821.5 985.9L766.8 1022.2L755.9 996.6L719.8 1024.5C732.8 1052.9 746.4 1078.2 752.8 1075.5C765.3 1070.2 822.4 1007.8 822.4 1007.8L825.7 1004.2C834.2 997.5 860.8 988.5 865.9 981.2C870.9 973.8 866 949 862.6 947.8Z" fill="url(#paint3_linear_56_2)"/>
<path d="M730.7 812.4C730.7 812.4 739.3 883.9 720.1 878.2C700.9 872.4 695.1 857.7 695.1 857.7L697 848.9C697 848.9 689.3 846.7 689.3 834.3C689.3 822.9 698.9 815.3 702.2 821.5C705.6 827.7 706 831.6 706 831.6L711.7 815.3L730.7 812.4Z" fill="url(#paint4_linear_56_2)"/>
<path d="M1276.6 555.2H498.6V611.9H1276.6V555.2Z" fill="white"/>
<path d="M521.3 566.6H483.1V596H532.7V566.6H521.3Z" fill="#F68A53"/>
<path d="M768.5 566.6H731.1V596H780.5L768.5 566.6Z" fill="white"/>
<path d="M681.5 566.6H631.9V595.9H681.5V566.6Z" fill="white"/>
<path d="M696.4 566.6H681.5V596H708.5H731.1V566.6H696.4Z" fill="#F68A53"/>
<path d="M544.6 566.6H532.7V596H532.9H533.3H582.3V566.6H544.6Z" fill="white"/>
<path d="M631.9 566.6H582.3V595.9H631.9V566.6Z" fill="#F68A53"/>
<path d="M830.1 566.6H780.5V595.9H830.1V566.6Z" fill="#F68A53"/>
<path d="M1093.1 566.6H1078.1V596H1105.1H1127.7V566.6H1093.1Z" fill="#F68A53"/>
<path d="M1192.5 566.6H1177.5V596H1204.5H1227.1V566.6H1192.5Z" fill="#F68A53"/>
<path d="M891.6 566.6H879.7V596H879.9H880.3H929.3V566.6H891.6Z" fill="#F68A53"/>
<path d="M1028.5 566.6H978.9V595.9H1028.5V566.6Z" fill="#F68A53"/>
<path d="M483.1 596V638.3C483.1 652 494.2 663.1 507.9 663.1C521.6 663.1 532.7 652 532.7 638.3V596H483.1Z" fill="#F36C42"/>
<path d="M532.7 596V638.3C532.7 652 543.8 663.1 557.5 663.1C571.2 663.1 582.3 652 582.3 638.3V596H532.7Z" fill="#CCCCCC"/>
<path d="M582.3 596V638.3C582.3 652 593.4 663.1 607.1 663.1C620.8 663.1 631.9 652 631.9 638.3V596H582.3Z" fill="#F36C42"/>
<path d="M631.9 596V638.3C631.9 652 643 663.1 656.7 663.1C670.4 663.1 681.5 652 681.5 638.3V596H631.9Z" fill="#CCCCCC"/>
<path d="M681.5 596V638.3C681.5 652 692.6 663.1 706.3 663.1C720 663.1 731.1 652 731.1 638.3V596H681.5Z" fill="#F36C42"/>
<path d="M731.1 596V638.3C731.1 652 742.2 663.1 755.9 663.1C769.6 663.1 780.7 652 780.7 638.3V596H731.1Z" fill="#CCCCCC"/>
<path d="M780.5 596V638.3C780.5 652 791.6 663.1 805.3 663.1C819 663.1 830.1 652 830.1 638.3V596H780.5Z" fill="#F36C42"/>
<path d="M830.1 596V638.3C830.1 652 841.2 663.1 854.9 663.1C868.6 663.1 879.7 652 879.7 638.3V596H830.1Z" fill="#CCCCCC"/>
<path d="M879.7 596V638.3C879.7 652 890.8 663.1 904.5 663.1C918.2 663.1 929.3 652 929.3 638.3V596H879.7Z" fill="#F36C42"/>
<path d="M929.3 596V638.3C929.3 652 940.4 663.1 954.1 663.1C967.8 663.1 978.9 652 978.9 638.3V596H929.3Z" fill="#CCCCCC"/>
<path d="M978.9 596V638.3C978.9 652 990 663.1 1003.7 663.1C1017.4 663.1 1028.5 652 1028.5 638.3V596H978.9Z" fill="#F36C42"/>
<path d="M1028.5 596V638.3C1028.5 652 1039.6 663.1 1053.3 663.1C1067 663.1 1078.1 652 1078.1 638.3V596H1028.5Z" fill="#CCCCCC"/>
<path d="M1078.1 596V638.3C1078.1 652 1089.2 663.1 1102.9 663.1C1116.6 663.1 1127.7 652 1127.7 638.3V596H1078.1Z" fill="#F36C42"/>
<path d="M1127.7 596V638.3C1127.7 652 1138.8 663.1 1152.5 663.1C1166.2 663.1 1177.3 652 1177.3 638.3V596H1127.7Z" fill="#CCCCCC"/>
<path d="M1177.3 596V638.3C1177.3 652 1188.4 663.1 1202.1 663.1C1215.8 663.1 1226.9 652 1226.9 638.3V596H1177.3Z" fill="#F36C42"/>
<path d="M1227 596V638.3C1227 652 1238.1 663.1 1251.8 663.1C1265.5 663.1 1276.6 652 1276.6 638.3V596H1227Z" fill="#CCCCCC"/>
<path d="M1278.9 518.2H483.1V566.6H1278.9V518.2Z" fill="#F68A53"/>
<path d="M1022 936.6H970V964.6H1022V936.6Z" fill="#375378"/>
<path d="M1065.3 984L1066.1 1010.8L1007.1 976.8C1007.1 976.8 1004.5 961.5 1002.8 958.9C1001.1 956.3 988.6 951.3 987 950.7C985.4 950.1 974.5 964.4 979.1 971.1C983.7 977.7 996.8 991.3 996.8 991.3C996.8 991.3 1070.1 1049.5 1080.5 1051.4C1091 1053.3 1097.5 990.9 1097.5 990.9" fill="url(#paint5_linear_56_2)"/>
<path d="M1156.1 900.7C1156.1 900.7 1192.2 918.2 1196.3 931.4C1200.4 944.6 1201.7 1098.3 1201.7 1098.3L1063.9 1097.6C1063.9 1097.6 1081.5 927.7 1088.3 919.5C1095.1 911.3 1129 896.4 1129 896.4L1156.1 900.7Z" fill="white"/>
<path d="M1176.6 1047.5H1134.8V1096.1H1176.6V1047.5Z" fill="#7991B4"/>
<path d="M1092.7 1096.3H1071.8L1077.6 1047.7H1092.7V1096.3Z" fill="#7991B4"/>
<path d="M1086.7 921.1C1086.7 921.1 1068 925.8 1064 976.7V988L1099.3 995.2L1108.9 946.3C1108.9 946.4 1110 921.2 1086.7 921.1Z" fill="white"/>
<path d="M1122 874.4C1122 874.4 1124 896.6 1119.2 901.6C1119.2 901.6 1114.5 909.9 1128.9 914.7C1143.3 919.5 1156.6 901 1156.6 901C1156.6 901 1145.9 869.5 1147.3 858.8L1122 874.4Z" fill="url(#paint6_linear_56_2)"/>
<path d="M1155.8 898.4L1117.2 954.1L1146.6 939.3L1143 929.5L1161.4 919.8L1155.8 898.4Z" fill="#7991B4"/>
<path d="M1120.4 897.9L1118 952.8L1106.5 931.6L1110.6 923.4L1102.9 915L1120.4 897.9Z" fill="#7991B4"/>
<path d="M1214.7 993.6C1214.7 993.6 1227.8 1031.2 1227.2 1038.9C1226.6 1046.6 1197.1 1095.2 1197.1 1095.2C1197.1 1095.2 1158.8 1096.5 1152.9 1095.2C1147 1093.8 1155.2 1088.7 1155.2 1088.7H1171.2L1191.7 1037.4L1181.2 993.7H1214.7V993.6Z" fill="url(#paint7_linear_56_2)"/>
<path d="M1108.8 1097.6C1107.6 1097.6 1106.6 1096.6 1106.6 1095.4C1106.6 1090.2 1107.5 966.9 1116 951.7C1116.6 950.7 1117.9 950.3 1118.9 950.9C1119.9 951.5 1120.3 952.8 1119.7 953.8C1113.1 965.6 1111.1 1060.1 1110.9 1095.4C1111 1096.6 1110 1097.6 1108.8 1097.6Z" fill="#7991B4"/>
<path d="M1195.5 929.6L1215.1 995.2L1179.6 1002.5L1163.6 945C1163.6 945 1175.1 929.7 1195.5 929.6Z" fill="white"/>
<path d="M1149.9 878.4C1149.9 878.4 1164.7 881.1 1172.5 866.4C1172.5 866.4 1192 863.7 1188.2 836.3C1188.2 836.3 1183.4 818.9 1167 825.7C1167 825.7 1151.3 792.9 1132.8 792.6C1114.4 792.3 1086.8 800.8 1099.7 828.5L1106.2 808.7C1106.2 808.7 1106.1 826.5 1120.3 830.9C1134.5 835.3 1144.4 852.7 1144.4 852.7L1149.9 878.4Z" fill="#253336"/>
<path d="M1099.8 828.5C1099.8 828.5 1089.9 886.2 1111.8 883.2C1133.7 880.1 1146 865.1 1146 865.1C1146 865.1 1148.4 867.1 1152.8 865.4C1157.2 863.7 1164.4 846 1155.2 842.9C1146 839.8 1144.2 847.6 1144.2 847.6C1144.2 847.6 1145.2 819 1130.3 829.3C1115.4 839.6 1106.3 808.7 1106.3 808.7L1099.8 828.5Z" fill="url(#paint8_linear_56_2)"/>
<path d="M282.9 623.5C285.1 616.1 287.2 611.3 282 607.9C276.8 604.5 278 599.5 278 599.5L273.1 598.1L265.9 596L261 594.6C261 594.6 259.3 599.5 253.1 599.6C246.9 599.7 246.2 604.9 244.1 612.3C241.9 619.7 232.3 652.9 232.3 652.9C232.3 652.9 228.9 662 237.3 664.5C240.3 665.4 243.1 666.2 245.4 666.9C245.4 666.9 248.3 667.7 252.6 669C255 669.7 257.8 670.5 260.7 671.4C269.1 673.8 271.1 664.3 271.1 664.3C271.1 664.3 280.8 631 282.9 623.5Z" fill="#C6CEE9"/>
<path d="M285.5 585.8C285.8 584.5 285.8 583.5 285.1 582.1C283.9 579.8 284.5 574.8 285 573.2C285.7 570.7 283.8 570.1 283.8 570.1L282.5 569.7L281.8 569.5L281.2 569.3L274.6 567.4L274 567.2L273.3 567L272.1 566.6C272.1 566.6 270.2 566 269.4 568.6C268.9 570.3 266.7 574.7 264.5 576.1C263.2 576.9 262.6 577.8 262.1 579L262 579.2C261.8 579.9 261.5 580.8 261.3 581.8L257.4 595.3L281 602.1L285.5 585.8Z" fill="#C6CEE9"/>
<path d="M280.7 598.5L284.4 585.8L283.8 585.6L280.1 598.4L278.4 597.9L282.1 585.1L281.5 584.9L277.8 597.7L276.1 597.2L279.8 584.4L279.2 584.3L275.5 597L273.8 596.5L277.5 583.8L276.9 583.6L273.3 596.4L271.5 595.9L275.2 583.1L274.7 582.9L271 595.7L269.2 595.2L272.9 582.4L272.4 582.3L268.7 595.1L267 594.6L270.7 581.8L270.1 581.6L266.4 594.4L264.7 593.9L268.4 581.1L267.8 581L264.1 593.7L262.4 593.2L266.1 580.5L265.5 580.3L261.8 593.1L260.1 592.6L263.8 579.8L263.2 579.6L259.5 592.4L258.2 592L257.8 593.2L281.4 600.1L281.8 598.9L280.7 598.5Z" fill="#C6CEE9"/>
<path d="M265.1 662.9C264.6 664.5 262.9 665.5 261.3 665L240.1 658.9C238.5 658.4 237.5 656.7 238 655.1L251.7 607.9C252.2 606.3 253.9 605.3 255.5 605.8L276.7 611.9C278.3 612.4 279.3 614.1 278.8 615.7L265.1 662.9Z" fill="#C6CEE9"/>
<path d="M1563.2 749.7L1627 660.1C1627 660.1 1590.7 632.1 1595.1 574.4C1599.4 519 1616.7 429 1704 440.7C1761.2 448.4 1836.2 495 1792.1 542.9" fill="#253336"/>
<path d="M1659.9 613.7C1659.9 613.7 1629.2 698.6 1627.7 740.3C1626.1 782 1627.7 742.7 1627.7 742.7C1627.7 742.7 1733.1 845.7 1788.1 832.3L1776.3 736.4C1776.3 736.4 1712.6 728.5 1726.8 664.1L1659.9 613.7Z" fill="url(#paint9_linear_56_2)"/>
<path d="M1657.9 629.4C1657.9 629.4 1666.7 688.4 1726.4 696.1L1723.6 675.2L1673.9 630.6" fill="#E6E6E6"/>
<path d="M1670.1 770.5L1766.8 819.3L1773.7 779.4C1773.7 779.4 1888.3 892.8 1894 975.4C1899.7 1058 1881.9 1250.2 1881.9 1250.2L1707.5 1251.5" fill="#333A7E"/>
<path d="M1790.4 522.4C1790.4 522.4 1803 700.1 1758.2 693.8C1713.4 687.5 1669.3 659.2 1667 634C1667 634 1648.1 634 1647.7 616.9C1647.3 599.8 1647.5 565 1663.4 569.1C1679.3 573.2 1679.7 580.7 1679.7 580.7C1679.7 580.7 1691.1 553.6 1691.7 552.4C1692.3 551.2 1729.6 510.7 1750.1 505.2C1770.6 499.7 1790.4 522.4 1790.4 522.4Z" fill="url(#paint10_linear_56_2)"/>
<path d="M1809.4 878.6L1952.7 937.3L1944.7 946.8L1807.6 889.3L1809.4 878.6Z" fill="white"/>
<path d="M1802.2 1004.5C1802.2 1004.5 1825 995.6 1827 983.1C1829 970.6 1832.5 913.3 1832.5 913.3L1882 880.7L1924.5 924.3L1920.2 947.1L1878.1 1020.2L1817.2 1060.3" fill="url(#paint11_linear_56_2)"/>
<path d="M1547.6 1092.4L1514.5 1249.9L1793.6 1251.5C1797.5 1220.8 1801.8 1044.4 1781.4 959.6C1753.1 841.9 1689.8 768 1678.8 756.4C1659.9 736.3 1643.4 665.2 1643.4 665.2L1627 713.7C1576.8 729.4 1510.5 827.7 1510.5 827.7L1547.5 1090.9" fill="url(#paint12_linear_56_2)"/>
<path d="M1665.7 730L1712.9 754.4L1766.8 819.3L1703.4 795.1C1703.5 795.1 1661.4 743.4 1665.7 730Z" fill="white"/>
<path d="M1750.7 742.6L1765.3 818.7L1775.5 770.9L1750.7 742.6Z" fill="white"/>
<path d="M1860.4 894.8C1860.4 894.8 1824.3 825.9 1791.3 801.6C1758.3 777.2 1735 712.2 1735 712.2V709.5L1801.5 738.7C1801.5 738.7 1835.7 747.3 1852.2 795.3C1868.7 843.3 1881.9 880.6 1881.9 880.6" fill="#DBEDF1"/>
<path d="M1882 1021.4L2011.7 827.5L2147 819.3L2007.8 1004.9L1893.2 1019.9L1882 1021.4Z" fill="#F36C42"/>
<path d="M1872.2 1253.1L1895.8 1250.8L1915.8 1016.9L1893.2 1019.9L1872.2 1253.1Z" fill="url(#paint13_linear_56_2)"/>
<path d="M2060.6 958.4L2076.2 951.2C2076.2 951.2 2076.5 946.4 2076.2 942C2075.9 937.6 2034.3 929.9 2034.3 929.9C2034.3 929.9 2026.6 939.9 2034.3 944C2042 948.1 2011 946.4 2008.9 950.5C2006.8 954.6 2014.4 966.7 2014.4 966.7C2014.4 966.7 2001.2 966.9 1999.8 970.3C1998.4 973.7 1989.8 987.6 1998 992.6C2006.3 997.6 2009.4 1002.1 2009.4 1002.1L1963 1010.5V1043.6L2001 1029.4C2001 1029.4 2033 1030.3 2044.5 1021.1C2056 1011.9 2067 966.3 2067 966.3L2060.6 958.4Z" fill="url(#paint14_linear_56_2)"/>
<path d="M1906.4 1121.7L1975.4 1101L1963.6 1010.7L1893 1021.4L1881.9 1126.9L1906.4 1121.7Z" fill="white"/>
<path d="M1745.7 619.2C1730.4 619.2 1718 606 1718 589.9C1718 573.7 1730.4 560.6 1745.7 560.6C1761 560.6 1773.4 573.8 1773.4 589.9C1773.4 606 1761 619.2 1745.7 619.2ZM1745.7 565.2C1733 565.2 1722.7 576.2 1722.7 589.8C1722.7 603.4 1733 614.4 1745.7 614.4C1758.4 614.4 1768.7 603.4 1768.7 589.8C1768.7 576.2 1758.4 565.2 1745.7 565.2Z" fill="#253336"/>
<path d="M1801 611.6C1788.9 611.6 1779 600.1 1779 586C1779 571.9 1788.9 560.4 1801 560.4C1813.1 560.4 1823 571.9 1823 586C1822.9 600.2 1813.1 611.6 1801 611.6ZM1801 565.2C1791.5 565.2 1783.8 574.6 1783.8 586.1C1783.8 597.6 1791.5 607 1801 607C1810.5 607 1818.2 597.6 1818.2 586.1C1818.2 574.6 1810.5 565.2 1801 565.2Z" fill="#253336"/>
<path d="M1781 584.6H1771V589.6H1781V584.6Z" fill="#253336"/>
<path d="M1677.91 567.143L1676.07 571.466L1719.48 590.001L1721.32 585.679L1677.91 567.143Z" fill="#253336"/>
<path d="M1496.3 859.8C1496.3 859.8 1508.1 788.5 1544.3 780.7C1580.5 772.8 1636.3 800.8 1640.2 859.8C1644.1 918.8 1641.4 1042.2 1641.4 1042.2L1810 997.4L1835.2 1127.9L1576.5 1175.1C1576.5 1175.1 1533.3 1187.7 1524.6 1111.4C1516 1035.1 1496.3 859.8 1496.3 859.8Z" fill="white"/>
<path d="M1527 614L1549.2 651.2L1491.8 634.3" fill="white"/>
<path d="M1551.07 573.168C1554.82 520.501 1515.16 474.772 1462.49 471.029C1409.82 467.287 1364.09 506.947 1360.35 559.614C1356.61 612.28 1396.27 658.009 1448.93 661.752C1501.6 665.494 1547.33 625.834 1551.07 573.168Z" fill="white"/>
<path d="M1505.4 519C1477 505.2 1457.6 530.4 1455.6 533.1C1453.6 530.4 1434.2 505.2 1405.8 519C1375.9 533.6 1384.3 579.2 1455.4 630.1C1455.4 630.1 1455.5 630.3 1455.6 630.2L1455.8 630.1C1527.3 578.7 1535.3 533.6 1505.4 519Z" fill="#E62552"/>
<path d="M1470.4 596.1C1470.3 596.1 1470.1 596.1 1470 596.1C1468.7 595.9 1467.6 594.9 1467.4 593.6L1459.1 543.1L1448.3 593.7C1448 595.1 1446.8 596.1 1445.4 596.1C1443.9 596 1442.7 595.2 1442.4 593.8L1433.3 556.6L1427.6 578.6C1427.2 580 1426 580.9 1424.6 580.9H1383.1C1381.4 580.9 1380 579.5 1380 577.8C1380 576.1 1381.4 574.7 1383.1 574.7H1422.2L1430.3 543.2C1430.7 541.8 1431.9 540.9 1433.3 540.9C1434.7 540.9 1435.9 541.9 1436.3 543.3L1445.1 579.3L1456.5 525.9C1456.8 524.5 1458.1 523.4 1459.6 523.5C1461.1 523.5 1462.3 524.6 1462.6 526.1L1471.9 582.7L1479.7 565.7C1480.2 564.6 1481.3 563.9 1482.5 563.9H1528.3C1530 563.9 1531.4 565.3 1531.4 567C1531.4 568.7 1530 570.1 1528.3 570.1H1484.4L1473.2 594.5C1472.7 595.4 1471.6 596.1 1470.4 596.1Z" fill="white"/>
</g>
<defs>
<linearGradient id="paint0_linear_56_2" x1="691.162" y1="876.977" x2="2008.02" y2="876.977" gradientUnits="userSpaceOnUse">
<stop stop-color="white"/>
<stop offset="1" stop-color="#97CCEF"/>
</linearGradient>
<linearGradient id="paint1_linear_56_2" x1="588.274" y1="1038.54" x2="627.52" y2="1038.54" gradientUnits="userSpaceOnUse">
<stop offset="0.2957" stop-color="#FFDA8B"/>
<stop offset="0.4333" stop-color="#FDC784"/>
<stop offset="0.7115" stop-color="#F79772"/>
<stop offset="1" stop-color="#F15F5D"/>
</linearGradient>
<linearGradient id="paint2_linear_56_2" x1="668.847" y1="885.174" x2="708.517" y2="862.436" gradientUnits="userSpaceOnUse">
<stop offset="0.2957" stop-color="#FFDA8B"/>
<stop offset="0.4333" stop-color="#FDC784"/>
<stop offset="0.7115" stop-color="#F79772"/>
<stop offset="1" stop-color="#F15F5D"/>
</linearGradient>
<linearGradient id="paint3_linear_56_2" x1="847.425" y1="1023.28" x2="705.283" y2="982.761" gradientUnits="userSpaceOnUse">
<stop offset="0.2957" stop-color="#FFDA8B"/>
<stop offset="0.4333" stop-color="#FDC784"/>
<stop offset="0.7115" stop-color="#F79772"/>
<stop offset="1" stop-color="#F15F5D"/>
</linearGradient>
<linearGradient id="paint4_linear_56_2" x1="749.717" y1="870.662" x2="681.154" y2="807.509" gradientUnits="userSpaceOnUse">
<stop offset="0.2957" stop-color="#FFDA8B"/>
<stop offset="0.4333" stop-color="#FDC784"/>
<stop offset="0.7115" stop-color="#F79772"/>
<stop offset="1" stop-color="#F15F5D"/>
</linearGradient>
<linearGradient id="paint5_linear_56_2" x1="977.909" y1="1001.11" x2="1097.41" y2="1001.11" gradientUnits="userSpaceOnUse">
<stop offset="0.2957" stop-color="#FFDA8B"/>
<stop offset="0.4333" stop-color="#FDC784"/>
<stop offset="0.7115" stop-color="#F79772"/>
<stop offset="1" stop-color="#F15F5D"/>
</linearGradient>
<linearGradient id="paint6_linear_56_2" x1="1124.44" y1="906.51" x2="1148.06" y2="876.61" gradientUnits="userSpaceOnUse">
<stop offset="0.2957" stop-color="#FFDA8B"/>
<stop offset="0.4333" stop-color="#FDC784"/>
<stop offset="0.7115" stop-color="#F79772"/>
<stop offset="1" stop-color="#F15F5D"/>
</linearGradient>
<linearGradient id="paint7_linear_56_2" x1="1150.74" y1="1044.71" x2="1227.24" y2="1044.71" gradientUnits="userSpaceOnUse">
<stop offset="0.2957" stop-color="#FFDA8B"/>
<stop offset="0.4333" stop-color="#FDC784"/>
<stop offset="0.7115" stop-color="#F79772"/>
<stop offset="1" stop-color="#F15F5D"/>
</linearGradient>
<linearGradient id="paint8_linear_56_2" x1="1097.56" y1="846.008" x2="1159.64" y2="846.008" gradientUnits="userSpaceOnUse">
<stop offset="0.2957" stop-color="#FFDA8B"/>
<stop offset="0.4333" stop-color="#FDC784"/>
<stop offset="0.7115" stop-color="#F79772"/>
<stop offset="1" stop-color="#F15F5D"/>
</linearGradient>
<linearGradient id="paint9_linear_56_2" x1="1709.26" y1="761.109" x2="1628.55" y2="621.677" gradientUnits="userSpaceOnUse">
<stop offset="0.2957" stop-color="#FFDA8B"/>
<stop offset="0.4333" stop-color="#FDC784"/>
<stop offset="0.7115" stop-color="#F79772"/>
<stop offset="1" stop-color="#F15F5D"/>
</linearGradient>
<linearGradient id="paint10_linear_56_2" x1="1773.19" y1="610.184" x2="1644.86" y2="543.908" gradientUnits="userSpaceOnUse">
<stop offset="0.2957" stop-color="#FFDA8B"/>
<stop offset="0.4333" stop-color="#FDC784"/>
<stop offset="0.7115" stop-color="#F79772"/>
<stop offset="1" stop-color="#F15F5D"/>
</linearGradient>
<linearGradient id="paint11_linear_56_2" x1="1802.2" y1="970.452" x2="1924.47" y2="970.452" gradientUnits="userSpaceOnUse">
<stop offset="0.2957" stop-color="#FFDA8B"/>
<stop offset="0.4333" stop-color="#FDC784"/>
<stop offset="0.7115" stop-color="#F79772"/>
<stop offset="1" stop-color="#F15F5D"/>
</linearGradient>
<linearGradient id="paint12_linear_56_2" x1="1510.47" y1="958.242" x2="1796.83" y2="958.242" gradientUnits="userSpaceOnUse">
<stop stop-color="white"/>
<stop offset="1" stop-color="#97CCEF"/>
</linearGradient>
<linearGradient id="paint13_linear_56_2" x1="1872.18" y1="1135.03" x2="1915.78" y2="1135.03" gradientUnits="userSpaceOnUse">
<stop stop-color="white"/>
<stop offset="1" stop-color="#97CCEF"/>
</linearGradient>
<linearGradient id="paint14_linear_56_2" x1="1963" y1="986.875" x2="2076.36" y2="986.875" gradientUnits="userSpaceOnUse">
<stop offset="0.2957" stop-color="#FFDA8B"/>
<stop offset="0.4333" stop-color="#FDC784"/>
<stop offset="0.7115" stop-color="#F79772"/>
<stop offset="1" stop-color="#F15F5D"/>
</linearGradient>
<clipPath id="clip0_56_2">
<rect width="2153" height="1243" fill="white"/>
</clipPath>
</defs>
</svg>
